%TF.GenerationSoftware,KiCad,Pcbnew,10.0.1*%
%TF.CreationDate,2026-07-19T00:05:50+03:00*%
%TF.ProjectId,devyboardy,64657679-626f-4617-9264-792e6b696361,rev?*%
%TF.SameCoordinates,Original*%
%TF.FileFunction,Plated,1,2,PTH,Mixed*%
%TF.FilePolarity,Positive*%
%FSLAX46Y46*%
G04 Gerber Fmt 4.6, Leading zero omitted, Abs format (unit mm)*
G04 Created by KiCad (PCBNEW 10.0.1) date 2026-07-19 00:05:50*
%MOMM*%
%LPD*%
G01*
G04 APERTURE LIST*
%TA.AperFunction,ViaDrill*%
%ADD10C,0.300000*%
%TD*%
G04 aperture for slot hole*
%TA.AperFunction,ComponentDrill*%
%ADD11C,0.600000*%
%TD*%
%TA.AperFunction,ComponentDrill*%
%ADD12C,1.000000*%
%TD*%
G04 APERTURE END LIST*
D10*
X87000000Y-48000000D03*
X88000000Y-45000000D03*
X88000000Y-60000000D03*
X88000000Y-84000000D03*
X88770789Y-71500000D03*
X89000000Y-57000000D03*
X89000000Y-86000000D03*
X90000000Y-79500000D03*
X90500000Y-66000000D03*
X91174265Y-64325735D03*
X91384109Y-67615901D03*
X91500000Y-56400000D03*
X92000000Y-53500000D03*
X92179020Y-70095198D03*
X92179105Y-70904911D03*
X92190383Y-71719819D03*
X92300000Y-73748533D03*
X92536969Y-72984433D03*
X92713567Y-69500000D03*
X92800000Y-66314428D03*
X92900000Y-51050000D03*
X93060000Y-58000000D03*
X93225000Y-56150000D03*
X93500000Y-82500000D03*
X94000000Y-54000000D03*
X94025000Y-56950000D03*
X94043357Y-68989563D03*
X94075000Y-51125000D03*
X94199997Y-73500000D03*
X94250000Y-58175000D03*
X94400000Y-76814213D03*
X94911147Y-56987618D03*
X95000000Y-60000000D03*
X95000000Y-73600002D03*
X95900000Y-69400000D03*
X96203366Y-75752886D03*
X96274265Y-81925735D03*
X96475000Y-59675000D03*
X96500000Y-54000000D03*
X96500000Y-79500000D03*
X96500000Y-83000000D03*
X96569608Y-58075000D03*
X96700000Y-51625000D03*
X96900002Y-70500000D03*
X97000000Y-63000000D03*
X97207484Y-65996019D03*
X97222445Y-69222445D03*
X97302918Y-71191130D03*
X97307475Y-73958945D03*
X97308840Y-72648534D03*
X97550000Y-50900000D03*
X97665792Y-76985679D03*
X97700000Y-87500000D03*
X97794304Y-62400000D03*
X98000000Y-85000000D03*
X98371351Y-64500000D03*
X98559988Y-60677271D03*
X99371351Y-68871351D03*
X99394485Y-76105515D03*
X99971351Y-66000000D03*
X100000000Y-61500000D03*
X100000000Y-77000000D03*
X100194265Y-82805735D03*
X100359314Y-74207843D03*
X100750000Y-50950000D03*
X101500000Y-57400000D03*
X101500000Y-75500000D03*
X101500000Y-88500000D03*
X101794265Y-71705735D03*
X102000000Y-84000000D03*
X103000000Y-60500000D03*
%TO.C,J1*%
D11*
X90680000Y-41650000D02*
X90680000Y-42250000D01*
X90680000Y-45580000D02*
X90680000Y-46680000D01*
X99320000Y-41650000D02*
X99320000Y-42250000D01*
X99320000Y-45580000D02*
X99320000Y-46680000D01*
D12*
%TO.C,J2*%
X86000000Y-41740000D03*
X86000000Y-44280000D03*
X86000000Y-46820000D03*
X86000000Y-49360000D03*
X86000000Y-51900000D03*
X86000000Y-54440000D03*
X86000000Y-56980000D03*
X86000000Y-59520000D03*
X86000000Y-62060000D03*
X86000000Y-64600000D03*
X86000000Y-67140000D03*
X86000000Y-69680000D03*
X86000000Y-72220000D03*
X86000000Y-74760000D03*
X86000000Y-77300000D03*
X86000000Y-79840000D03*
X86000000Y-82380000D03*
X86000000Y-84920000D03*
X86000000Y-87460000D03*
X86000000Y-90000000D03*
%TO.C,J4*%
X91960000Y-90000000D03*
X94500000Y-90000000D03*
X97040000Y-90000000D03*
%TO.C,J3*%
X104000000Y-41740000D03*
X104000000Y-44280000D03*
X104000000Y-46820000D03*
X104000000Y-49360000D03*
X104000000Y-51900000D03*
X104000000Y-54440000D03*
X104000000Y-56980000D03*
X104000000Y-59520000D03*
X104000000Y-62060000D03*
X104000000Y-64600000D03*
X104000000Y-67140000D03*
X104000000Y-69680000D03*
X104000000Y-72220000D03*
X104000000Y-74760000D03*
X104000000Y-77300000D03*
X104000000Y-79840000D03*
X104000000Y-82380000D03*
X104000000Y-84920000D03*
X104000000Y-87460000D03*
X104000000Y-90000000D03*
M02*
