%TF.GenerationSoftware,KiCad,Pcbnew,10.0.1*%
%TF.CreationDate,2026-07-19T00:05:55+03:00*%
%TF.ProjectId,devyboardy,64657679-626f-4617-9264-792e6b696361,rev?*%
%TF.SameCoordinates,Original*%
%TF.FileFunction,Copper,L2,Bot*%
%TF.FilePolarity,Positive*%
%FSLAX46Y46*%
G04 Gerber Fmt 4.6, Leading zero omitted, Abs format (unit mm)*
G04 Created by KiCad (PCBNEW 10.0.1) date 2026-07-19 00:05:55*
%MOMM*%
%LPD*%
G01*
G04 APERTURE LIST*
%TA.AperFunction,ComponentPad*%
%ADD10R,1.700000X1.700000*%
%TD*%
%TA.AperFunction,ComponentPad*%
%ADD11C,1.700000*%
%TD*%
%TA.AperFunction,ComponentPad*%
%ADD12O,1.000000X2.100000*%
%TD*%
%TA.AperFunction,ComponentPad*%
%ADD13O,1.000000X1.600000*%
%TD*%
%TA.AperFunction,ViaPad*%
%ADD14C,0.600000*%
%TD*%
%TA.AperFunction,Conductor*%
%ADD15C,0.200000*%
%TD*%
G04 APERTURE END LIST*
D10*
%TO.P,J4,1,Pin_1_1*%
%TO.N,SWCLK*%
X91960000Y-90000000D03*
D11*
%TO.P,J4,2,Pin_2_2*%
%TO.N,GND*%
X94500000Y-90000000D03*
%TO.P,J4,3,Pin_3_3*%
%TO.N,SWD*%
X97040000Y-90000000D03*
%TD*%
D10*
%TO.P,J3,1,Pin_1_1*%
%TO.N,VBUS*%
X104000000Y-41740000D03*
D11*
%TO.P,J3,2,Pin_2_2*%
%TO.N,GPIO29_ADC3*%
X104000000Y-44280000D03*
%TO.P,J3,3,Pin_3_3*%
%TO.N,GND*%
X104000000Y-46820000D03*
%TO.P,J3,4,Pin_4_4*%
%TO.N,GPIO28_ADC2*%
X104000000Y-49360000D03*
%TO.P,J3,5,Pin_5_5*%
%TO.N,+3V3*%
X104000000Y-51900000D03*
%TO.P,J3,6,Pin_6_6*%
%TO.N,GPIO27_ADC1*%
X104000000Y-54440000D03*
%TO.P,J3,7,Pin_7_7*%
%TO.N,GPIO26_ADC0*%
X104000000Y-56980000D03*
%TO.P,J3,8,Pin_8_8*%
%TO.N,GND*%
X104000000Y-59520000D03*
%TO.P,J3,9,Pin_9_9*%
%TO.N,GPIO24*%
X104000000Y-62060000D03*
%TO.P,J3,10,Pin_10_10*%
%TO.N,GPIO23*%
X104000000Y-64600000D03*
%TO.P,J3,11,Pin_11_11*%
%TO.N,RUN*%
X104000000Y-67140000D03*
%TO.P,J3,12,Pin_12_12*%
%TO.N,GPIO22*%
X104000000Y-69680000D03*
%TO.P,J3,13,Pin_13_13*%
%TO.N,GND*%
X104000000Y-72220000D03*
%TO.P,J3,14,Pin_14_14*%
%TO.N,GPIO21*%
X104000000Y-74760000D03*
%TO.P,J3,15,Pin_15_15*%
%TO.N,GPIO20*%
X104000000Y-77300000D03*
%TO.P,J3,16,Pin_16_16*%
%TO.N,GPIO19*%
X104000000Y-79840000D03*
%TO.P,J3,17,Pin_17_17*%
%TO.N,GPIO18*%
X104000000Y-82380000D03*
%TO.P,J3,18,Pin_18_18*%
%TO.N,GND*%
X104000000Y-84920000D03*
%TO.P,J3,19,Pin_19_19*%
%TO.N,GPIO17*%
X104000000Y-87460000D03*
%TO.P,J3,20,Pin_20_20*%
%TO.N,GPIO16*%
X104000000Y-90000000D03*
%TD*%
D12*
%TO.P,J1,SH,SHIELD_SH*%
%TO.N,GND*%
X99320000Y-46130000D03*
D13*
X99320000Y-41950000D03*
D12*
X90680000Y-46130000D03*
D13*
X90680000Y-41950000D03*
%TD*%
D10*
%TO.P,J2,1,Pin_1_1*%
%TO.N,GPIO0*%
X86000000Y-41740000D03*
D11*
%TO.P,J2,2,Pin_2_2*%
%TO.N,GPIO1*%
X86000000Y-44280000D03*
%TO.P,J2,3,Pin_3_3*%
%TO.N,GND*%
X86000000Y-46820000D03*
%TO.P,J2,4,Pin_4_4*%
%TO.N,GPIO2*%
X86000000Y-49360000D03*
%TO.P,J2,5,Pin_5_5*%
%TO.N,GPIO3*%
X86000000Y-51900000D03*
%TO.P,J2,6,Pin_6_6*%
%TO.N,GPIO4*%
X86000000Y-54440000D03*
%TO.P,J2,7,Pin_7_7*%
%TO.N,GPIO5*%
X86000000Y-56980000D03*
%TO.P,J2,8,Pin_8_8*%
%TO.N,GND*%
X86000000Y-59520000D03*
%TO.P,J2,9,Pin_9_9*%
%TO.N,GPIO6*%
X86000000Y-62060000D03*
%TO.P,J2,10,Pin_10_10*%
%TO.N,GPIO7*%
X86000000Y-64600000D03*
%TO.P,J2,11,Pin_11_11*%
%TO.N,GPIO8*%
X86000000Y-67140000D03*
%TO.P,J2,12,Pin_12_12*%
%TO.N,GPIO9*%
X86000000Y-69680000D03*
%TO.P,J2,13,Pin_13_13*%
%TO.N,GND*%
X86000000Y-72220000D03*
%TO.P,J2,14,Pin_14_14*%
%TO.N,GPIO10*%
X86000000Y-74760000D03*
%TO.P,J2,15,Pin_15_15*%
%TO.N,GPIO11*%
X86000000Y-77300000D03*
%TO.P,J2,16,Pin_16_16*%
%TO.N,GPIO12*%
X86000000Y-79840000D03*
%TO.P,J2,17,Pin_17_17*%
%TO.N,GPIO13*%
X86000000Y-82380000D03*
%TO.P,J2,18,Pin_18_18*%
%TO.N,GND*%
X86000000Y-84920000D03*
%TO.P,J2,19,Pin_19_19*%
%TO.N,GPIO14*%
X86000000Y-87460000D03*
%TO.P,J2,20,Pin_20_20*%
%TO.N,GPIO15*%
X86000000Y-90000000D03*
%TD*%
D14*
%TO.N,+3V3*%
X94075000Y-51125000D03*
X96700000Y-51625000D03*
X101500000Y-57400000D03*
X96569608Y-58075000D03*
%TO.N,GND*%
X95000000Y-60000000D03*
X91500000Y-56400000D03*
X93225000Y-56150000D03*
X100750000Y-50950000D03*
X97550000Y-50900000D03*
%TO.N,USB_D-*%
X94911147Y-56987618D03*
X98559988Y-60677271D03*
%TO.N,USB_D+*%
X94025000Y-56950000D03*
X97794304Y-62400000D03*
%TO.N,GND*%
X96475000Y-59675000D03*
X94250000Y-58175000D03*
%TO.N,SWCLK*%
X95000000Y-73600002D03*
%TO.N,GND*%
X91174265Y-64325735D03*
X101500000Y-75500000D03*
X101500000Y-88500000D03*
X90000000Y-79500000D03*
X92000000Y-53500000D03*
X89000000Y-86000000D03*
X89000000Y-57000000D03*
X95900000Y-69400000D03*
X92900000Y-51050000D03*
X103000000Y-60500000D03*
X96274265Y-81925735D03*
X88000000Y-60000000D03*
X88770789Y-71500000D03*
X87000000Y-48000000D03*
X90500000Y-66000000D03*
X94199997Y-73500000D03*
X92300000Y-73748533D03*
X94000000Y-54000000D03*
X96500000Y-79500000D03*
X88000000Y-84000000D03*
X100000000Y-77000000D03*
X102000000Y-84000000D03*
X100000000Y-61500000D03*
X99971351Y-66000000D03*
X96500000Y-54000000D03*
X93060000Y-58000000D03*
X88000000Y-45000000D03*
%TO.N,SWD*%
X96203366Y-75752886D03*
%TO.N,QSPI_SS*%
X98000000Y-85000000D03*
X91384109Y-67615901D03*
%TO.N,+1V1*%
X97000000Y-63000000D03*
X97207484Y-65996019D03*
X98371351Y-64500000D03*
X97665792Y-76985679D03*
%TO.N,+3V3*%
X99371351Y-68871351D03*
X100359314Y-74207843D03*
X101794265Y-71705735D03*
X92536969Y-72984433D03*
X92800000Y-66314428D03*
X94043357Y-68989563D03*
X97302918Y-71191130D03*
X100194265Y-82805735D03*
X97700000Y-87500000D03*
X96500000Y-83000000D03*
X99394485Y-76105515D03*
%TO.N,GPIO0*%
X92713567Y-69500000D03*
%TO.N,GPIO2*%
X92179020Y-70095198D03*
%TO.N,GPIO4*%
X92179105Y-70904911D03*
%TO.N,GPIO6*%
X92190383Y-71719819D03*
%TO.N,XIN*%
X93500000Y-82500000D03*
X94400000Y-76814213D03*
%TO.N,RUN*%
X96900002Y-70500000D03*
%TO.N,GPIO20*%
X97307475Y-73958945D03*
%TO.N,GPIO21*%
X97308840Y-72648534D03*
%TO.N,GPIO29_ADC3*%
X97222445Y-69222445D03*
%TD*%
%TO.N,GND*%
D15*
X98350000Y-51625000D02*
X98275000Y-51625000D01*
X98350000Y-51625000D02*
X96500000Y-53475000D01*
X96500000Y-53475000D02*
X96500000Y-54000000D01*
X92900000Y-51050000D02*
X94000000Y-52150000D01*
X94000000Y-52150000D02*
X94000000Y-54000000D01*
%TO.N,+3V3*%
X96200000Y-51125000D02*
X94075000Y-51125000D01*
X96700000Y-51625000D02*
X96200000Y-51125000D01*
%TO.N,GND*%
X100750000Y-50950000D02*
X100075000Y-51625000D01*
X100075000Y-51625000D02*
X98350000Y-51625000D01*
X98275000Y-51625000D02*
X97550000Y-50900000D01*
%TO.N,USB_D-*%
X94911147Y-57270461D02*
X94911147Y-56987618D01*
X98559988Y-60677271D02*
X98559988Y-60250723D01*
X98559988Y-60250723D02*
X96984265Y-58675000D01*
X96984265Y-58675000D02*
X96315686Y-58675000D01*
X96315686Y-58675000D02*
X94911147Y-57270461D01*
%TO.N,+3V3*%
X100800000Y-58100000D02*
X96550000Y-58100000D01*
X101500000Y-57400000D02*
X100800000Y-58100000D01*
X96550000Y-58100000D02*
X96550000Y-58094608D01*
X96550000Y-58094608D02*
X96569608Y-58075000D01*
%TO.N,GND*%
X91500000Y-56400000D02*
X92975000Y-56400000D01*
X92975000Y-56400000D02*
X93225000Y-56150000D01*
%TO.N,USB_D+*%
X97794304Y-60145775D02*
X97794304Y-62400000D01*
X94025000Y-56950000D02*
X96150000Y-59075000D01*
X96150000Y-59075000D02*
X96723529Y-59075000D01*
X96723529Y-59075000D02*
X97794304Y-60145775D01*
X97794304Y-60144304D02*
X97794304Y-60145775D01*
%TO.N,GND*%
X96475000Y-59675000D02*
X95750000Y-59675000D01*
X95750000Y-59675000D02*
X94250000Y-58175000D01*
%TO.N,SWCLK*%
X91960000Y-79460000D02*
X91960000Y-90000000D01*
X93600002Y-75000000D02*
X92565686Y-75000000D01*
X95000000Y-73600002D02*
X93600002Y-75000000D01*
X90532843Y-77032843D02*
X90532843Y-78032843D01*
X90532843Y-78032843D02*
X91960000Y-79460000D01*
X92565686Y-75000000D02*
X90532843Y-77032843D01*
%TO.N,GND*%
X96500000Y-81700000D02*
X96274265Y-81925735D01*
X94000000Y-54000000D02*
X92500000Y-54000000D01*
X92500000Y-74500000D02*
X90000000Y-77000000D01*
X88050789Y-72220000D02*
X86000000Y-72220000D01*
X96551471Y-69400000D02*
X96973916Y-69822445D01*
X94000000Y-54000000D02*
X96500000Y-54000000D01*
X88000000Y-84000000D02*
X89000000Y-85000000D01*
X88000000Y-60000000D02*
X88000000Y-58000000D01*
X91051467Y-72500000D02*
X89770789Y-72500000D01*
X92300000Y-73748533D02*
X91051467Y-72500000D01*
X95900000Y-69400000D02*
X96551471Y-69400000D01*
X88000000Y-84000000D02*
X88000000Y-81500000D01*
X101000000Y-60500000D02*
X100000000Y-61500000D01*
X96973916Y-69822445D02*
X99268786Y-69822445D01*
X93199997Y-74500000D02*
X94199997Y-73500000D01*
X92500000Y-74500000D02*
X93199997Y-74500000D01*
X96500000Y-79500000D02*
X96500000Y-81700000D01*
X102000000Y-88000000D02*
X101500000Y-88500000D01*
X99971351Y-69119880D02*
X99971351Y-66000000D01*
X92300000Y-73748533D02*
X92448530Y-73748533D01*
X88152843Y-46847157D02*
X88152843Y-45152843D01*
X90500000Y-65000000D02*
X91174265Y-64325735D01*
X87000000Y-48000000D02*
X88152843Y-46847157D01*
X88000000Y-58000000D02*
X89000000Y-57000000D01*
X88000000Y-81500000D02*
X90000000Y-79500000D01*
X102000000Y-84000000D02*
X102000000Y-88000000D01*
X88152843Y-45152843D02*
X88000000Y-45000000D01*
X90000000Y-77000000D02*
X90000000Y-79500000D01*
X89770789Y-72500000D02*
X88770789Y-71500000D01*
X88770789Y-71500000D02*
X88050789Y-72220000D01*
X99268786Y-69822445D02*
X99971351Y-69119880D01*
X103000000Y-60500000D02*
X101000000Y-60500000D01*
X89000000Y-85000000D02*
X89000000Y-86000000D01*
X92500000Y-54000000D02*
X92000000Y-53500000D01*
X100000000Y-77000000D02*
X101500000Y-75500000D01*
X92448530Y-73748533D02*
X93199997Y-74500000D01*
X90500000Y-66000000D02*
X90500000Y-65000000D01*
%TO.N,SWD*%
X96203366Y-77269052D02*
X97967157Y-79032843D01*
X96203366Y-75752886D02*
X96203366Y-77269052D01*
X98000000Y-81000000D02*
X97100000Y-81900000D01*
X97100000Y-89940000D02*
X97040000Y-90000000D01*
X97100000Y-81900000D02*
X97100000Y-82600000D01*
X97967157Y-79032843D02*
X97967157Y-80967157D01*
X97100000Y-82600000D02*
X97100000Y-89940000D01*
X97967157Y-80967157D02*
X98000000Y-81000000D01*
%TO.N,QSPI_SS*%
X94062096Y-71562096D02*
X95000000Y-72500000D01*
X94062096Y-70000000D02*
X94062096Y-71562096D01*
X95314213Y-72500000D02*
X96000000Y-73185788D01*
X91677997Y-67615901D02*
X94062096Y-70000000D01*
X98500000Y-82000000D02*
X98000000Y-82500000D01*
X96000000Y-74700991D02*
X97000000Y-75700991D01*
X98500000Y-79000000D02*
X98500000Y-82000000D01*
X91384109Y-67615901D02*
X91677997Y-67615901D01*
X97000000Y-75700991D02*
X97000000Y-77500000D01*
X97000000Y-77500000D02*
X98500000Y-79000000D01*
X95000000Y-72500000D02*
X95314213Y-72500000D01*
X98000000Y-82500000D02*
X98000000Y-85000000D01*
X96000000Y-73185788D02*
X96000000Y-74700991D01*
%TO.N,+1V1*%
X98000000Y-63000000D02*
X98371351Y-63371351D01*
X95300000Y-67903503D02*
X95300000Y-69748527D01*
X97207484Y-65996019D02*
X95300000Y-67903503D01*
X98371351Y-63371351D02*
X98371351Y-64500000D01*
X96532843Y-70981370D02*
X96532843Y-74668148D01*
X95300000Y-69748527D02*
X96532843Y-70981370D01*
X97000000Y-63000000D02*
X98000000Y-63000000D01*
X97665792Y-75801097D02*
X97665792Y-76985679D01*
X96532843Y-74668148D02*
X97665792Y-75801097D01*
%TO.N,+3V3*%
X99371351Y-61528649D02*
X99400000Y-61500000D01*
X95600000Y-82100000D02*
X96500000Y-83000000D01*
X100500000Y-75000000D02*
X100500000Y-74065686D01*
X100467157Y-74032843D02*
X100359314Y-74140686D01*
X95600000Y-73351473D02*
X95600000Y-82100000D01*
X101279660Y-71191130D02*
X97302918Y-71191130D01*
X93004010Y-73451474D02*
X93399994Y-73451474D01*
X102500000Y-59000000D02*
X102500000Y-53400000D01*
X100651471Y-60000000D02*
X101500000Y-60000000D01*
X99400000Y-61251471D02*
X100651471Y-60000000D01*
X101500000Y-60000000D02*
X102500000Y-59000000D01*
X102500000Y-53400000D02*
X104000000Y-51900000D01*
X93951468Y-72900000D02*
X95148527Y-72900000D01*
X92800000Y-66314428D02*
X94043357Y-67557785D01*
X97700000Y-87300000D02*
X97700000Y-87500000D01*
X93399994Y-73451474D02*
X93951468Y-72900000D01*
X100194265Y-82805735D02*
X99000000Y-84000000D01*
X95148527Y-72900000D02*
X95600000Y-73351473D01*
X99371351Y-68871351D02*
X99371351Y-61528649D01*
X100359314Y-74140686D02*
X100359314Y-74207843D01*
X99000000Y-86000000D02*
X97700000Y-87300000D01*
X101794265Y-71705735D02*
X101279660Y-71191130D01*
X99394485Y-76105515D02*
X100500000Y-75000000D01*
X100500000Y-74065686D02*
X100467157Y-74032843D01*
X99000000Y-84000000D02*
X99000000Y-86000000D01*
X94043357Y-67557785D02*
X94043357Y-68989563D01*
X92536969Y-72984433D02*
X93004010Y-73451474D01*
X99400000Y-61500000D02*
X99400000Y-61251471D01*
%TO.N,GPIO0*%
X91000000Y-63651471D02*
X89500000Y-65151471D01*
X86000000Y-41740000D02*
X89500000Y-45240000D01*
X89500000Y-55500000D02*
X91000000Y-57000000D01*
X89500000Y-66580321D02*
X89500000Y-65151471D01*
X92618289Y-69595278D02*
X92514957Y-69595278D01*
X89500000Y-45240000D02*
X89500000Y-55500000D01*
X92713567Y-69500000D02*
X92618289Y-69595278D01*
X91000000Y-57000000D02*
X91000000Y-63651471D01*
X92514957Y-69595278D02*
X89500000Y-66580321D01*
%TO.N,GPIO2*%
X89595198Y-70095198D02*
X92179020Y-70095198D01*
X90600000Y-57165686D02*
X90600000Y-63400000D01*
X89000000Y-69500000D02*
X89595198Y-70095198D01*
X86000000Y-49360000D02*
X88500000Y-51860000D01*
X90600000Y-63400000D02*
X89000000Y-65000000D01*
X88500000Y-51860000D02*
X88500000Y-55065686D01*
X89000000Y-65000000D02*
X89000000Y-69500000D01*
X88500000Y-55065686D02*
X90600000Y-57165686D01*
%TO.N,GPIO4*%
X88868628Y-56000000D02*
X90200000Y-57331372D01*
X92157390Y-70883196D02*
X92179105Y-70904911D01*
X87560000Y-56000000D02*
X88868628Y-56000000D01*
X91404911Y-70904911D02*
X92179105Y-70904911D01*
X91000000Y-70500000D02*
X91404911Y-70904911D01*
X86000000Y-54440000D02*
X87560000Y-56000000D01*
X90200000Y-63234314D02*
X88565686Y-64868628D01*
X89065686Y-70500000D02*
X91000000Y-70500000D01*
X88565686Y-70000000D02*
X89065686Y-70500000D01*
X90200000Y-57331372D02*
X90200000Y-63234314D01*
X88565686Y-64868628D02*
X88565686Y-70000000D01*
%TO.N,GPIO6*%
X86000000Y-62060000D02*
X87500000Y-63560000D01*
X92155575Y-71685011D02*
X92190383Y-71719819D01*
X90500000Y-70900000D02*
X91319819Y-71719819D01*
X91319819Y-71719819D02*
X92190383Y-71719819D01*
X88400001Y-70900000D02*
X90500000Y-70900000D01*
X87500000Y-70000000D02*
X88400001Y-70900000D01*
X87500000Y-63560000D02*
X87500000Y-70000000D01*
%TO.N,XIN*%
X93500000Y-77714213D02*
X93500000Y-82500000D01*
X94400000Y-76814213D02*
X93500000Y-77714213D01*
%TO.N,RUN*%
X100640000Y-70500000D02*
X102000000Y-69140000D01*
X96900002Y-70500000D02*
X100640000Y-70500000D01*
X102000000Y-69140000D02*
X104000000Y-67140000D01*
%TO.N,GPIO20*%
X100500000Y-73500000D02*
X104000000Y-77000000D01*
X104000000Y-77000000D02*
X104000000Y-77300000D01*
X97307475Y-73603560D02*
X97411035Y-73500000D01*
X97411035Y-73500000D02*
X100500000Y-73500000D01*
X97307475Y-73958945D02*
X97307475Y-73603560D01*
%TO.N,GPIO21*%
X97323833Y-72633541D02*
X101873541Y-72633541D01*
X101873541Y-72633541D02*
X104000000Y-74760000D01*
X97308840Y-72648534D02*
X97323833Y-72633541D01*
%TO.N,GPIO29_ADC3*%
X98944890Y-67500000D02*
X98971351Y-67500000D01*
X98971351Y-61114435D02*
X100618629Y-59467157D01*
X100618629Y-59467157D02*
X101467157Y-59467157D01*
X98971351Y-67500000D02*
X98971351Y-61114435D01*
X101467157Y-59467157D02*
X102100000Y-58834314D01*
X97222445Y-69222445D02*
X98944890Y-67500000D01*
X102100000Y-46180000D02*
X104000000Y-44280000D01*
X102100000Y-58834314D02*
X102100000Y-46180000D01*
%TO.N,GND*%
X93060000Y-58060000D02*
X95000000Y-60000000D01*
X93060000Y-58000000D02*
X93060000Y-58060000D01*
%TD*%
%TA.AperFunction,Conductor*%
%TO.N,GND*%
G36*
X87166949Y-70235912D02*
G01*
X87183192Y-70249585D01*
X88079519Y-71145910D01*
X88079521Y-71145913D01*
X88154088Y-71220480D01*
X88205979Y-71250439D01*
X88214814Y-71255540D01*
X88214818Y-71255543D01*
X88245408Y-71273204D01*
X88245409Y-71273204D01*
X88245414Y-71273207D01*
X88347274Y-71300500D01*
X88452728Y-71300500D01*
X90282745Y-71300500D01*
X90349784Y-71320185D01*
X90370426Y-71336819D01*
X91073906Y-72040299D01*
X91142349Y-72079815D01*
X91158188Y-72088960D01*
X91165231Y-72093026D01*
X91267092Y-72120319D01*
X91690285Y-72120319D01*
X91757324Y-72140004D01*
X91777966Y-72156638D01*
X91821667Y-72200339D01*
X91821669Y-72200340D01*
X91821673Y-72200343D01*
X91928852Y-72262222D01*
X91958599Y-72279396D01*
X92093564Y-72315559D01*
X92153223Y-72351924D01*
X92183752Y-72414771D01*
X92175457Y-72484147D01*
X92149151Y-72523015D01*
X92056447Y-72615719D01*
X92056444Y-72615723D01*
X91977395Y-72752642D01*
X91977392Y-72752649D01*
X91936469Y-72905376D01*
X91936469Y-73063490D01*
X91968867Y-73184399D01*
X91977392Y-73216216D01*
X91977395Y-73216223D01*
X92056444Y-73353142D01*
X92056448Y-73353147D01*
X92056449Y-73353149D01*
X92168253Y-73464953D01*
X92168255Y-73464954D01*
X92168259Y-73464957D01*
X92305178Y-73544006D01*
X92305185Y-73544010D01*
X92457912Y-73584933D01*
X92519715Y-73584933D01*
X92549155Y-73593577D01*
X92579142Y-73600101D01*
X92584157Y-73603855D01*
X92586754Y-73604618D01*
X92607396Y-73621252D01*
X92679189Y-73693045D01*
X92679199Y-73693056D01*
X92683529Y-73697386D01*
X92683530Y-73697387D01*
X92758097Y-73771954D01*
X92785963Y-73788042D01*
X92785966Y-73788045D01*
X92785966Y-73788044D01*
X92849423Y-73824681D01*
X92951283Y-73851975D01*
X92951285Y-73851975D01*
X93064333Y-73851975D01*
X93064349Y-73851974D01*
X93452719Y-73851974D01*
X93452721Y-73851974D01*
X93554582Y-73824681D01*
X93645907Y-73771954D01*
X94081042Y-73336819D01*
X94107969Y-73322115D01*
X94133788Y-73305523D01*
X94139988Y-73304631D01*
X94142365Y-73303334D01*
X94168723Y-73300500D01*
X94296968Y-73300500D01*
X94364007Y-73320185D01*
X94409762Y-73372989D01*
X94419706Y-73442147D01*
X94416743Y-73456593D01*
X94399500Y-73520945D01*
X94399500Y-73582747D01*
X94379815Y-73649786D01*
X94363181Y-73670428D01*
X93470428Y-74563181D01*
X93409105Y-74596666D01*
X93382747Y-74599500D01*
X92512959Y-74599500D01*
X92411096Y-74626793D01*
X92319773Y-74679520D01*
X92319770Y-74679522D01*
X90212365Y-76786927D01*
X90212361Y-76786933D01*
X90159635Y-76878255D01*
X90159636Y-76878256D01*
X90132343Y-76980116D01*
X90132343Y-78085569D01*
X90159636Y-78187432D01*
X90182433Y-78226916D01*
X90212363Y-78278756D01*
X90880882Y-78947275D01*
X91523181Y-79589573D01*
X91556666Y-79650896D01*
X91559500Y-79677254D01*
X91559500Y-88725500D01*
X91539815Y-88792539D01*
X91487011Y-88838294D01*
X91435500Y-88849500D01*
X91065143Y-88849500D01*
X91065117Y-88849502D01*
X91040012Y-88852413D01*
X91040008Y-88852415D01*
X90937235Y-88897793D01*
X90857794Y-88977234D01*
X90812415Y-89080006D01*
X90812415Y-89080008D01*
X90809502Y-89105122D01*
X90809500Y-89105135D01*
X90809500Y-89999999D01*
X90809501Y-90875500D01*
X90789816Y-90942539D01*
X90737013Y-90988294D01*
X90685501Y-90999500D01*
X86926916Y-90999500D01*
X86859877Y-90979815D01*
X86814122Y-90927011D01*
X86804178Y-90857853D01*
X86833203Y-90794297D01*
X86839235Y-90787819D01*
X86877553Y-90749501D01*
X86983996Y-90602994D01*
X87066211Y-90441639D01*
X87122171Y-90269409D01*
X87136765Y-90177259D01*
X87150500Y-90090551D01*
X87150500Y-89909448D01*
X87122189Y-89730706D01*
X87122171Y-89730591D01*
X87066273Y-89558552D01*
X87066212Y-89558363D01*
X87066211Y-89558360D01*
X87036474Y-89500000D01*
X86983996Y-89397006D01*
X86970396Y-89378287D01*
X86877558Y-89250505D01*
X86877554Y-89250500D01*
X86749499Y-89122445D01*
X86749494Y-89122441D01*
X86602997Y-89016006D01*
X86602996Y-89016005D01*
X86602994Y-89016004D01*
X86551300Y-88989664D01*
X86441639Y-88933788D01*
X86441636Y-88933787D01*
X86269410Y-88877829D01*
X86109321Y-88852473D01*
X86046186Y-88822544D01*
X86009255Y-88763232D01*
X86010253Y-88693370D01*
X86048863Y-88635137D01*
X86109321Y-88607527D01*
X86179425Y-88596422D01*
X86269409Y-88582171D01*
X86441639Y-88526211D01*
X86602994Y-88443996D01*
X86749501Y-88337553D01*
X86877553Y-88209501D01*
X86983996Y-88062994D01*
X87066211Y-87901639D01*
X87122171Y-87729409D01*
X87136765Y-87637259D01*
X87150500Y-87550551D01*
X87150500Y-87369448D01*
X87131269Y-87248035D01*
X87122171Y-87190591D01*
X87066211Y-87018361D01*
X87066211Y-87018360D01*
X87022091Y-86931772D01*
X86983996Y-86857006D01*
X86885492Y-86721426D01*
X86877558Y-86710505D01*
X86877554Y-86710500D01*
X86749499Y-86582445D01*
X86749494Y-86582441D01*
X86602997Y-86476006D01*
X86602996Y-86476005D01*
X86602994Y-86476004D01*
X86551300Y-86449664D01*
X86441639Y-86393788D01*
X86441636Y-86393787D01*
X86269410Y-86337828D01*
X86107720Y-86312219D01*
X86044585Y-86282289D01*
X86007654Y-86222978D01*
X86008652Y-86153115D01*
X86047262Y-86094883D01*
X86107721Y-86067273D01*
X86269292Y-86041683D01*
X86441444Y-85985748D01*
X86441452Y-85985745D01*
X86602730Y-85903568D01*
X86618532Y-85892085D01*
X86618533Y-85892085D01*
X86129410Y-85402962D01*
X86192993Y-85385925D01*
X86307007Y-85320099D01*
X86400099Y-85227007D01*
X86465925Y-85112993D01*
X86482962Y-85049409D01*
X86972085Y-85538532D01*
X86983568Y-85522730D01*
X87065745Y-85361452D01*
X87065748Y-85361444D01*
X87121682Y-85189293D01*
X87150000Y-85010506D01*
X87150000Y-84829493D01*
X87121682Y-84650706D01*
X87065748Y-84478555D01*
X87065747Y-84478552D01*
X86983571Y-84317275D01*
X86983566Y-84317267D01*
X86972085Y-84301466D01*
X86482962Y-84790589D01*
X86465925Y-84727007D01*
X86400099Y-84612993D01*
X86307007Y-84519901D01*
X86192993Y-84454075D01*
X86129409Y-84437037D01*
X86618533Y-83947913D01*
X86602730Y-83936431D01*
X86441447Y-83854252D01*
X86441444Y-83854251D01*
X86269293Y-83798317D01*
X86107720Y-83772726D01*
X86044585Y-83742797D01*
X86007654Y-83683485D01*
X86008652Y-83613623D01*
X86047262Y-83555390D01*
X86107720Y-83527780D01*
X86122270Y-83525475D01*
X86269409Y-83502171D01*
X86441639Y-83446211D01*
X86602994Y-83363996D01*
X86749501Y-83257553D01*
X86877553Y-83129501D01*
X86983996Y-82982994D01*
X87066211Y-82821639D01*
X87122171Y-82649409D01*
X87138348Y-82547273D01*
X87150500Y-82470551D01*
X87150500Y-82289448D01*
X87131761Y-82171139D01*
X87122171Y-82110591D01*
X87086207Y-81999902D01*
X87066212Y-81938363D01*
X87066211Y-81938360D01*
X87019799Y-81847273D01*
X86983996Y-81777006D01*
X86966728Y-81753238D01*
X86877558Y-81630505D01*
X86877554Y-81630500D01*
X86749499Y-81502445D01*
X86749494Y-81502441D01*
X86602997Y-81396006D01*
X86602996Y-81396005D01*
X86602994Y-81396004D01*
X86551300Y-81369664D01*
X86441639Y-81313788D01*
X86441636Y-81313787D01*
X86269410Y-81257829D01*
X86109321Y-81232473D01*
X86046186Y-81202544D01*
X86009255Y-81143232D01*
X86010253Y-81073370D01*
X86048863Y-81015137D01*
X86109321Y-80987527D01*
X86179425Y-80976422D01*
X86269409Y-80962171D01*
X86441639Y-80906211D01*
X86602994Y-80823996D01*
X86749501Y-80717553D01*
X86877553Y-80589501D01*
X86983996Y-80442994D01*
X87066211Y-80281639D01*
X87122171Y-80109409D01*
X87136765Y-80017259D01*
X87150500Y-79930551D01*
X87150500Y-79749448D01*
X87125177Y-79589573D01*
X87122171Y-79570591D01*
X87094191Y-79484476D01*
X87066212Y-79398363D01*
X87066211Y-79398360D01*
X87018851Y-79305413D01*
X86983996Y-79237006D01*
X86913169Y-79139520D01*
X86877558Y-79090505D01*
X86877554Y-79090500D01*
X86749499Y-78962445D01*
X86749494Y-78962441D01*
X86602997Y-78856006D01*
X86602996Y-78856005D01*
X86602994Y-78856004D01*
X86551300Y-78829664D01*
X86441639Y-78773788D01*
X86441636Y-78773787D01*
X86269410Y-78717829D01*
X86109321Y-78692473D01*
X86046186Y-78662544D01*
X86009255Y-78603232D01*
X86010253Y-78533370D01*
X86048863Y-78475137D01*
X86109321Y-78447527D01*
X86179425Y-78436422D01*
X86269409Y-78422171D01*
X86441639Y-78366211D01*
X86602994Y-78283996D01*
X86749501Y-78177553D01*
X86877553Y-78049501D01*
X86983996Y-77902994D01*
X87066211Y-77741639D01*
X87122171Y-77569409D01*
X87140920Y-77451032D01*
X87150500Y-77390551D01*
X87150500Y-77209448D01*
X87127579Y-77064736D01*
X87122171Y-77030591D01*
X87081892Y-76906622D01*
X87066212Y-76858363D01*
X87066211Y-76858360D01*
X87029813Y-76786927D01*
X86983996Y-76697006D01*
X86925842Y-76616963D01*
X86877558Y-76550505D01*
X86877554Y-76550500D01*
X86749499Y-76422445D01*
X86749494Y-76422441D01*
X86602997Y-76316006D01*
X86602996Y-76316005D01*
X86602994Y-76316004D01*
X86551300Y-76289664D01*
X86441639Y-76233788D01*
X86441636Y-76233787D01*
X86269410Y-76177829D01*
X86109321Y-76152473D01*
X86046186Y-76122544D01*
X86009255Y-76063232D01*
X86010253Y-75993370D01*
X86048863Y-75935137D01*
X86109321Y-75907527D01*
X86179425Y-75896422D01*
X86269409Y-75882171D01*
X86441639Y-75826211D01*
X86602994Y-75743996D01*
X86749501Y-75637553D01*
X86877553Y-75509501D01*
X86983996Y-75362994D01*
X87066211Y-75201639D01*
X87122171Y-75029409D01*
X87136765Y-74937259D01*
X87150500Y-74850551D01*
X87150500Y-74669448D01*
X87133076Y-74559444D01*
X87122171Y-74490591D01*
X87069233Y-74327661D01*
X87066212Y-74318363D01*
X87066211Y-74318360D01*
X87016459Y-74220718D01*
X86983996Y-74157006D01*
X86911042Y-74056593D01*
X86877558Y-74010505D01*
X86877554Y-74010500D01*
X86749499Y-73882445D01*
X86749494Y-73882441D01*
X86602997Y-73776006D01*
X86602996Y-73776005D01*
X86602994Y-73776004D01*
X86551300Y-73749664D01*
X86441639Y-73693788D01*
X86441636Y-73693787D01*
X86269410Y-73637828D01*
X86107720Y-73612219D01*
X86044585Y-73582289D01*
X86007654Y-73522978D01*
X86008652Y-73453115D01*
X86047262Y-73394883D01*
X86107721Y-73367273D01*
X86269292Y-73341683D01*
X86441444Y-73285748D01*
X86441452Y-73285745D01*
X86602730Y-73203568D01*
X86618532Y-73192085D01*
X86618533Y-73192085D01*
X86129410Y-72702962D01*
X86192993Y-72685925D01*
X86307007Y-72620099D01*
X86400099Y-72527007D01*
X86465925Y-72412993D01*
X86482962Y-72349409D01*
X86972085Y-72838532D01*
X86983568Y-72822730D01*
X87065745Y-72661452D01*
X87065748Y-72661444D01*
X87121682Y-72489293D01*
X87150000Y-72310506D01*
X87150000Y-72129493D01*
X87121682Y-71950706D01*
X87065748Y-71778555D01*
X87065747Y-71778552D01*
X86983571Y-71617275D01*
X86983566Y-71617267D01*
X86972085Y-71601466D01*
X86482962Y-72090589D01*
X86465925Y-72027007D01*
X86400099Y-71912993D01*
X86307007Y-71819901D01*
X86192993Y-71754075D01*
X86129409Y-71737037D01*
X86618533Y-71247913D01*
X86602730Y-71236431D01*
X86441447Y-71154252D01*
X86441444Y-71154251D01*
X86269293Y-71098317D01*
X86107720Y-71072726D01*
X86044585Y-71042797D01*
X86007654Y-70983485D01*
X86008652Y-70913623D01*
X86047262Y-70855390D01*
X86107720Y-70827780D01*
X86122270Y-70825475D01*
X86269409Y-70802171D01*
X86441639Y-70746211D01*
X86602994Y-70663996D01*
X86749501Y-70557553D01*
X86877553Y-70429501D01*
X86983996Y-70282994D01*
X86985022Y-70280979D01*
X86985616Y-70280349D01*
X86986541Y-70278842D01*
X86986857Y-70279036D01*
X87032992Y-70230180D01*
X87100812Y-70213379D01*
X87166949Y-70235912D01*
G37*
%TD.AperFunction*%
%TA.AperFunction,Conductor*%
G36*
X93315702Y-90060214D02*
G01*
X93353476Y-90118992D01*
X93356972Y-90134529D01*
X93378317Y-90269293D01*
X93434251Y-90441444D01*
X93434252Y-90441447D01*
X93516431Y-90602730D01*
X93527913Y-90618532D01*
X93527913Y-90618533D01*
X94017037Y-90129409D01*
X94034075Y-90192993D01*
X94099901Y-90307007D01*
X94192993Y-90400099D01*
X94307007Y-90465925D01*
X94370590Y-90482962D01*
X93890371Y-90963181D01*
X93829048Y-90996666D01*
X93802690Y-90999500D01*
X93234500Y-90999500D01*
X93167461Y-90979815D01*
X93121706Y-90927011D01*
X93110500Y-90875500D01*
X93110500Y-90572565D01*
X93110499Y-90153925D01*
X93130183Y-90086888D01*
X93182987Y-90041133D01*
X93252146Y-90031189D01*
X93315702Y-90060214D01*
G37*
%TD.AperFunction*%
%TA.AperFunction,Conductor*%
G36*
X95806376Y-90008652D02*
G01*
X95864609Y-90047261D01*
X95892219Y-90107720D01*
X95917828Y-90269410D01*
X95973787Y-90441636D01*
X95973788Y-90441639D01*
X96029664Y-90551300D01*
X96055869Y-90602730D01*
X96056006Y-90602997D01*
X96162441Y-90749494D01*
X96162445Y-90749499D01*
X96200765Y-90787819D01*
X96234250Y-90849142D01*
X96229266Y-90918834D01*
X96187394Y-90974767D01*
X96121930Y-90999184D01*
X96113084Y-90999500D01*
X95197310Y-90999500D01*
X95130271Y-90979815D01*
X95109629Y-90963181D01*
X94629410Y-90482962D01*
X94692993Y-90465925D01*
X94807007Y-90400099D01*
X94900099Y-90307007D01*
X94965925Y-90192993D01*
X94982962Y-90129410D01*
X95472085Y-90618533D01*
X95472085Y-90618532D01*
X95483568Y-90602730D01*
X95565745Y-90441452D01*
X95565748Y-90441444D01*
X95621683Y-90269292D01*
X95647273Y-90107721D01*
X95677202Y-90044586D01*
X95736513Y-90007654D01*
X95806376Y-90008652D01*
G37*
%TD.AperFunction*%
%TA.AperFunction,Conductor*%
G36*
X99725422Y-73920185D02*
G01*
X99771177Y-73972989D01*
X99781121Y-74042147D01*
X99778157Y-74056593D01*
X99758814Y-74128786D01*
X99758814Y-74286900D01*
X99798243Y-74434049D01*
X99799737Y-74439626D01*
X99799740Y-74439633D01*
X99878789Y-74576552D01*
X99878793Y-74576557D01*
X99878794Y-74576559D01*
X99990598Y-74688363D01*
X99990599Y-74688364D01*
X99990601Y-74688365D01*
X100012087Y-74700770D01*
X100060302Y-74751337D01*
X100073526Y-74819944D01*
X100047558Y-74884809D01*
X100037768Y-74895838D01*
X99464911Y-75468696D01*
X99403588Y-75502181D01*
X99377230Y-75505015D01*
X99315428Y-75505015D01*
X99162701Y-75545938D01*
X99162694Y-75545941D01*
X99025775Y-75624990D01*
X99025767Y-75624996D01*
X98913966Y-75736797D01*
X98913960Y-75736805D01*
X98834911Y-75873724D01*
X98834908Y-75873731D01*
X98793985Y-76026458D01*
X98793985Y-76184572D01*
X98833941Y-76333688D01*
X98834908Y-76337298D01*
X98834911Y-76337305D01*
X98913960Y-76474224D01*
X98913964Y-76474229D01*
X98913965Y-76474231D01*
X99025769Y-76586035D01*
X99025771Y-76586036D01*
X99025775Y-76586039D01*
X99138393Y-76651058D01*
X99162701Y-76665092D01*
X99315428Y-76706015D01*
X99315430Y-76706015D01*
X99473540Y-76706015D01*
X99473542Y-76706015D01*
X99626269Y-76665092D01*
X99763201Y-76586035D01*
X99875005Y-76474231D01*
X99954062Y-76337299D01*
X99994985Y-76184572D01*
X99994985Y-76122770D01*
X100014670Y-76055731D01*
X100031304Y-76035089D01*
X100419884Y-75646509D01*
X100820480Y-75245913D01*
X100873207Y-75154587D01*
X100900500Y-75052727D01*
X100900500Y-74766255D01*
X100920185Y-74699216D01*
X100972989Y-74653461D01*
X101042147Y-74643517D01*
X101105703Y-74672542D01*
X101112181Y-74678574D01*
X102990984Y-76557377D01*
X103024469Y-76618700D01*
X103019485Y-76688392D01*
X103013788Y-76701353D01*
X102933789Y-76858360D01*
X102933787Y-76858363D01*
X102877829Y-77030589D01*
X102849500Y-77209448D01*
X102849500Y-77390551D01*
X102877829Y-77569410D01*
X102933787Y-77741636D01*
X102933788Y-77741639D01*
X103016006Y-77902997D01*
X103122441Y-78049494D01*
X103122445Y-78049499D01*
X103250500Y-78177554D01*
X103250505Y-78177558D01*
X103378287Y-78270396D01*
X103397006Y-78283996D01*
X103502484Y-78337740D01*
X103558360Y-78366211D01*
X103558363Y-78366212D01*
X103644476Y-78394191D01*
X103730591Y-78422171D01*
X103803639Y-78433740D01*
X103890678Y-78447527D01*
X103953813Y-78477456D01*
X103990744Y-78536768D01*
X103989746Y-78606631D01*
X103951136Y-78664863D01*
X103890678Y-78692473D01*
X103730589Y-78717829D01*
X103558363Y-78773787D01*
X103558360Y-78773788D01*
X103397002Y-78856006D01*
X103250505Y-78962441D01*
X103250500Y-78962445D01*
X103122445Y-79090500D01*
X103122441Y-79090505D01*
X103016006Y-79237002D01*
X102933788Y-79398360D01*
X102933787Y-79398363D01*
X102877829Y-79570589D01*
X102849500Y-79749448D01*
X102849500Y-79930551D01*
X102877829Y-80109410D01*
X102933787Y-80281636D01*
X102933788Y-80281639D01*
X103016006Y-80442997D01*
X103122441Y-80589494D01*
X103122445Y-80589499D01*
X103250500Y-80717554D01*
X103250505Y-80717558D01*
X103378287Y-80810396D01*
X103397006Y-80823996D01*
X103502484Y-80877740D01*
X103558360Y-80906211D01*
X103558363Y-80906212D01*
X103644476Y-80934191D01*
X103730591Y-80962171D01*
X103803639Y-80973740D01*
X103890678Y-80987527D01*
X103953813Y-81017456D01*
X103990744Y-81076768D01*
X103989746Y-81146631D01*
X103951136Y-81204863D01*
X103890678Y-81232473D01*
X103730589Y-81257829D01*
X103558363Y-81313787D01*
X103558360Y-81313788D01*
X103397002Y-81396006D01*
X103250505Y-81502441D01*
X103250500Y-81502445D01*
X103122445Y-81630500D01*
X103122441Y-81630505D01*
X103016006Y-81777002D01*
X102933788Y-81938360D01*
X102933787Y-81938363D01*
X102877829Y-82110589D01*
X102849500Y-82289448D01*
X102849500Y-82470551D01*
X102877829Y-82649410D01*
X102933787Y-82821636D01*
X102933788Y-82821639D01*
X102965967Y-82884792D01*
X103014745Y-82980524D01*
X103016006Y-82982997D01*
X103122441Y-83129494D01*
X103122445Y-83129499D01*
X103250500Y-83257554D01*
X103250505Y-83257558D01*
X103378287Y-83350396D01*
X103397006Y-83363996D01*
X103485466Y-83409069D01*
X103558360Y-83446211D01*
X103558363Y-83446212D01*
X103644476Y-83474191D01*
X103730591Y-83502171D01*
X103850038Y-83521089D01*
X103892279Y-83527780D01*
X103955414Y-83557709D01*
X103992345Y-83617021D01*
X103991347Y-83686883D01*
X103952737Y-83745116D01*
X103892279Y-83772726D01*
X103730706Y-83798317D01*
X103558555Y-83854251D01*
X103558547Y-83854254D01*
X103397269Y-83936432D01*
X103381466Y-83947912D01*
X103381466Y-83947913D01*
X103870591Y-84437037D01*
X103807007Y-84454075D01*
X103692993Y-84519901D01*
X103599901Y-84612993D01*
X103534075Y-84727007D01*
X103517037Y-84790590D01*
X103027912Y-84301466D01*
X103016432Y-84317269D01*
X102934254Y-84478547D01*
X102934251Y-84478555D01*
X102878317Y-84650706D01*
X102850000Y-84829493D01*
X102850000Y-85010506D01*
X102878317Y-85189293D01*
X102934251Y-85361444D01*
X102934252Y-85361447D01*
X103016431Y-85522730D01*
X103027913Y-85538532D01*
X103027913Y-85538533D01*
X103517037Y-85049409D01*
X103534075Y-85112993D01*
X103599901Y-85227007D01*
X103692993Y-85320099D01*
X103807007Y-85385925D01*
X103870590Y-85402962D01*
X103381466Y-85892085D01*
X103381466Y-85892086D01*
X103397267Y-85903566D01*
X103397275Y-85903571D01*
X103558552Y-85985747D01*
X103558555Y-85985748D01*
X103730706Y-86041682D01*
X103892279Y-86067273D01*
X103955413Y-86097202D01*
X103992345Y-86156513D01*
X103991347Y-86226376D01*
X103952738Y-86284609D01*
X103892280Y-86312219D01*
X103730589Y-86337829D01*
X103558363Y-86393787D01*
X103558360Y-86393788D01*
X103397002Y-86476006D01*
X103250505Y-86582441D01*
X103250500Y-86582445D01*
X103122445Y-86710500D01*
X103122441Y-86710505D01*
X103016006Y-86857002D01*
X102933788Y-87018360D01*
X102933787Y-87018363D01*
X102877829Y-87190589D01*
X102849500Y-87369448D01*
X102849500Y-87550551D01*
X102877829Y-87729410D01*
X102933787Y-87901636D01*
X102933788Y-87901639D01*
X102973980Y-87980518D01*
X103014262Y-88059576D01*
X103016006Y-88062997D01*
X103122441Y-88209494D01*
X103122445Y-88209499D01*
X103250500Y-88337554D01*
X103250505Y-88337558D01*
X103378287Y-88430396D01*
X103397006Y-88443996D01*
X103502484Y-88497740D01*
X103558360Y-88526211D01*
X103558363Y-88526212D01*
X103644476Y-88554191D01*
X103730591Y-88582171D01*
X103803639Y-88593740D01*
X103890678Y-88607527D01*
X103953813Y-88637456D01*
X103990744Y-88696768D01*
X103989746Y-88766631D01*
X103951136Y-88824863D01*
X103890678Y-88852473D01*
X103730589Y-88877829D01*
X103558363Y-88933787D01*
X103558360Y-88933788D01*
X103397002Y-89016006D01*
X103250505Y-89122441D01*
X103250500Y-89122445D01*
X103122445Y-89250500D01*
X103122441Y-89250505D01*
X103016006Y-89397002D01*
X102933788Y-89558360D01*
X102933787Y-89558363D01*
X102877829Y-89730589D01*
X102849500Y-89909448D01*
X102849500Y-90090551D01*
X102877829Y-90269410D01*
X102933787Y-90441636D01*
X102933788Y-90441639D01*
X102989664Y-90551300D01*
X103015869Y-90602730D01*
X103016006Y-90602997D01*
X103122441Y-90749494D01*
X103122445Y-90749499D01*
X103160765Y-90787819D01*
X103194250Y-90849142D01*
X103189266Y-90918834D01*
X103147394Y-90974767D01*
X103081930Y-90999184D01*
X103073084Y-90999500D01*
X97966916Y-90999500D01*
X97899877Y-90979815D01*
X97854122Y-90927011D01*
X97844178Y-90857853D01*
X97873203Y-90794297D01*
X97879235Y-90787819D01*
X97917553Y-90749501D01*
X98023996Y-90602994D01*
X98106211Y-90441639D01*
X98162171Y-90269409D01*
X98176765Y-90177259D01*
X98190500Y-90090551D01*
X98190500Y-89909448D01*
X98162189Y-89730706D01*
X98162171Y-89730591D01*
X98106273Y-89558552D01*
X98106212Y-89558363D01*
X98106211Y-89558360D01*
X98076474Y-89500000D01*
X98023996Y-89397006D01*
X98010396Y-89378287D01*
X97917558Y-89250505D01*
X97917554Y-89250500D01*
X97789499Y-89122445D01*
X97789494Y-89122441D01*
X97642995Y-89016004D01*
X97568204Y-88977895D01*
X97517408Y-88929920D01*
X97500500Y-88867411D01*
X97500500Y-88224500D01*
X97520185Y-88157461D01*
X97572989Y-88111706D01*
X97624500Y-88100500D01*
X97779055Y-88100500D01*
X97779057Y-88100500D01*
X97931784Y-88059577D01*
X98068716Y-87980520D01*
X98180520Y-87868716D01*
X98259577Y-87731784D01*
X98300500Y-87579057D01*
X98300500Y-87420943D01*
X98286262Y-87367806D01*
X98287925Y-87297960D01*
X98318354Y-87248037D01*
X99235703Y-86330687D01*
X99235708Y-86330684D01*
X99245911Y-86320480D01*
X99245913Y-86320480D01*
X99320480Y-86245913D01*
X99373207Y-86154587D01*
X99400501Y-86052727D01*
X99400501Y-85947273D01*
X99400501Y-85939678D01*
X99400500Y-85939660D01*
X99400500Y-84217254D01*
X99420185Y-84150215D01*
X99436819Y-84129573D01*
X100123838Y-83442554D01*
X100185161Y-83409069D01*
X100211519Y-83406235D01*
X100273320Y-83406235D01*
X100273322Y-83406235D01*
X100426049Y-83365312D01*
X100562981Y-83286255D01*
X100674785Y-83174451D01*
X100753842Y-83037519D01*
X100794765Y-82884792D01*
X100794765Y-82726678D01*
X100753842Y-82573951D01*
X100694142Y-82470546D01*
X100674789Y-82437025D01*
X100674783Y-82437017D01*
X100562982Y-82325216D01*
X100562974Y-82325210D01*
X100426055Y-82246161D01*
X100426051Y-82246159D01*
X100426049Y-82246158D01*
X100273322Y-82205235D01*
X100115208Y-82205235D01*
X99962481Y-82246158D01*
X99962474Y-82246161D01*
X99825555Y-82325210D01*
X99825547Y-82325216D01*
X99713746Y-82437017D01*
X99713740Y-82437025D01*
X99634691Y-82573944D01*
X99634688Y-82573951D01*
X99593765Y-82726678D01*
X99593765Y-82788480D01*
X99574080Y-82855519D01*
X99557446Y-82876161D01*
X98679522Y-83754084D01*
X98679517Y-83754090D01*
X98631887Y-83836589D01*
X98581320Y-83884805D01*
X98512713Y-83898027D01*
X98447848Y-83872059D01*
X98407320Y-83815145D01*
X98400500Y-83774589D01*
X98400500Y-82717253D01*
X98420185Y-82650214D01*
X98436815Y-82629576D01*
X98745910Y-82320481D01*
X98745913Y-82320480D01*
X98820480Y-82245913D01*
X98858812Y-82179520D01*
X98873207Y-82154588D01*
X98900500Y-82052727D01*
X98900500Y-81947273D01*
X98900500Y-78947273D01*
X98873207Y-78845413D01*
X98820480Y-78754087D01*
X98745913Y-78679520D01*
X97823940Y-77757547D01*
X97790455Y-77696224D01*
X97795439Y-77626532D01*
X97837311Y-77570599D01*
X97879523Y-77550093D01*
X97897576Y-77545256D01*
X98034508Y-77466199D01*
X98146312Y-77354395D01*
X98225369Y-77217463D01*
X98266292Y-77064736D01*
X98266292Y-76906622D01*
X98225369Y-76753895D01*
X98195034Y-76701353D01*
X98146316Y-76616969D01*
X98146310Y-76616961D01*
X98102611Y-76573262D01*
X98069126Y-76511939D01*
X98066292Y-76485581D01*
X98066292Y-75748372D01*
X98066292Y-75748370D01*
X98053374Y-75700159D01*
X98049826Y-75686916D01*
X98039000Y-75646510D01*
X98008222Y-75593203D01*
X97986272Y-75555184D01*
X97202214Y-74771126D01*
X97168729Y-74709803D01*
X97173713Y-74640111D01*
X97215585Y-74584178D01*
X97281049Y-74559761D01*
X97289895Y-74559445D01*
X97386530Y-74559445D01*
X97386532Y-74559445D01*
X97539259Y-74518522D01*
X97676191Y-74439465D01*
X97787995Y-74327661D01*
X97867052Y-74190729D01*
X97907975Y-74038002D01*
X97907975Y-74024500D01*
X97927660Y-73957461D01*
X97980464Y-73911706D01*
X98031975Y-73900500D01*
X99658383Y-73900500D01*
X99725422Y-73920185D01*
G37*
%TD.AperFunction*%
%TA.AperFunction,Conductor*%
G36*
X95142539Y-74220187D02*
G01*
X95188294Y-74272991D01*
X95199500Y-74324502D01*
X95199500Y-76538264D01*
X95179815Y-76605303D01*
X95127011Y-76651058D01*
X95057853Y-76661002D01*
X94994297Y-76631977D01*
X94963642Y-76589466D01*
X94963641Y-76589467D01*
X94963631Y-76589450D01*
X94960940Y-76585718D01*
X94959577Y-76582428D01*
X94880524Y-76445503D01*
X94880518Y-76445495D01*
X94768717Y-76333694D01*
X94768709Y-76333688D01*
X94631790Y-76254639D01*
X94631786Y-76254637D01*
X94631784Y-76254636D01*
X94479057Y-76213713D01*
X94320943Y-76213713D01*
X94168216Y-76254636D01*
X94168209Y-76254639D01*
X94031290Y-76333688D01*
X94031282Y-76333694D01*
X93919481Y-76445495D01*
X93919475Y-76445503D01*
X93840426Y-76582422D01*
X93840423Y-76582429D01*
X93799500Y-76735156D01*
X93799500Y-76796958D01*
X93779815Y-76863997D01*
X93763181Y-76884639D01*
X93179522Y-77468297D01*
X93179520Y-77468300D01*
X93126793Y-77559623D01*
X93122049Y-77577327D01*
X93119678Y-77586179D01*
X93119678Y-77586180D01*
X93119677Y-77586179D01*
X93099500Y-77661484D01*
X93099500Y-81999902D01*
X93079815Y-82066941D01*
X93063181Y-82087583D01*
X93019481Y-82131282D01*
X93019475Y-82131290D01*
X92940426Y-82268209D01*
X92940423Y-82268216D01*
X92899500Y-82420943D01*
X92899500Y-82579057D01*
X92939056Y-82726680D01*
X92940423Y-82731783D01*
X92940426Y-82731790D01*
X93019475Y-82868709D01*
X93019479Y-82868714D01*
X93019480Y-82868716D01*
X93131284Y-82980520D01*
X93131286Y-82980521D01*
X93131290Y-82980524D01*
X93194911Y-83017255D01*
X93268216Y-83059577D01*
X93420943Y-83100500D01*
X93420945Y-83100500D01*
X93579055Y-83100500D01*
X93579057Y-83100500D01*
X93731784Y-83059577D01*
X93868716Y-82980520D01*
X93980520Y-82868716D01*
X94059577Y-82731784D01*
X94100500Y-82579057D01*
X94100500Y-82420943D01*
X94059577Y-82268216D01*
X94059573Y-82268209D01*
X93980524Y-82131290D01*
X93980518Y-82131282D01*
X93936819Y-82087583D01*
X93903334Y-82026260D01*
X93900500Y-81999902D01*
X93900500Y-77931468D01*
X93920185Y-77864429D01*
X93936819Y-77843787D01*
X94329574Y-77451032D01*
X94390897Y-77417547D01*
X94417255Y-77414713D01*
X94479055Y-77414713D01*
X94479057Y-77414713D01*
X94631784Y-77373790D01*
X94768716Y-77294733D01*
X94880520Y-77182929D01*
X94889856Y-77166757D01*
X94959575Y-77046001D01*
X94960938Y-77042711D01*
X94962831Y-77040361D01*
X94963641Y-77038959D01*
X94963859Y-77039085D01*
X95004778Y-76988306D01*
X95071072Y-76966240D01*
X95138771Y-76983518D01*
X95186383Y-77034654D01*
X95199500Y-77090161D01*
X95199500Y-82047273D01*
X95199500Y-82152727D01*
X95206679Y-82179520D01*
X95226793Y-82254589D01*
X95246923Y-82289454D01*
X95279520Y-82345913D01*
X95279522Y-82345915D01*
X95863181Y-82929574D01*
X95896666Y-82990897D01*
X95899500Y-83017255D01*
X95899500Y-83079057D01*
X95935445Y-83213203D01*
X95940423Y-83231783D01*
X95940426Y-83231790D01*
X96019475Y-83368709D01*
X96019479Y-83368714D01*
X96019480Y-83368716D01*
X96131284Y-83480520D01*
X96131286Y-83480521D01*
X96131290Y-83480524D01*
X96260964Y-83555390D01*
X96268216Y-83559577D01*
X96420943Y-83600500D01*
X96420945Y-83600500D01*
X96575500Y-83600500D01*
X96642539Y-83620185D01*
X96688294Y-83672989D01*
X96699500Y-83724500D01*
X96699500Y-88810835D01*
X96679815Y-88877874D01*
X96627011Y-88923629D01*
X96613824Y-88928764D01*
X96598360Y-88933789D01*
X96437002Y-89016006D01*
X96290505Y-89122441D01*
X96290500Y-89122445D01*
X96162445Y-89250500D01*
X96162441Y-89250505D01*
X96056006Y-89397002D01*
X95973788Y-89558360D01*
X95973787Y-89558363D01*
X95917829Y-89730589D01*
X95892219Y-89892280D01*
X95862289Y-89955414D01*
X95802978Y-89992345D01*
X95733115Y-89991347D01*
X95674883Y-89952737D01*
X95647273Y-89892279D01*
X95621682Y-89730706D01*
X95565748Y-89558555D01*
X95565747Y-89558552D01*
X95483571Y-89397275D01*
X95483566Y-89397267D01*
X95472085Y-89381466D01*
X94982962Y-89870589D01*
X94965925Y-89807007D01*
X94900099Y-89692993D01*
X94807007Y-89599901D01*
X94692993Y-89534075D01*
X94629409Y-89517037D01*
X95118533Y-89027913D01*
X95102730Y-89016431D01*
X94941447Y-88934252D01*
X94941444Y-88934251D01*
X94769293Y-88878317D01*
X94590506Y-88850000D01*
X94409494Y-88850000D01*
X94230706Y-88878317D01*
X94058555Y-88934251D01*
X94058547Y-88934254D01*
X93897269Y-89016432D01*
X93881466Y-89027912D01*
X93881466Y-89027913D01*
X94370591Y-89517037D01*
X94307007Y-89534075D01*
X94192993Y-89599901D01*
X94099901Y-89692993D01*
X94034075Y-89807007D01*
X94017037Y-89870590D01*
X93527912Y-89381466D01*
X93516432Y-89397269D01*
X93434254Y-89558547D01*
X93434251Y-89558555D01*
X93378317Y-89730706D01*
X93356972Y-89865471D01*
X93327043Y-89928606D01*
X93267731Y-89965537D01*
X93197868Y-89964539D01*
X93139636Y-89925929D01*
X93111522Y-89861965D01*
X93110499Y-89846073D01*
X93110499Y-89105143D01*
X93110499Y-89105136D01*
X93107585Y-89080009D01*
X93062206Y-88977235D01*
X92982765Y-88897794D01*
X92938654Y-88878317D01*
X92879992Y-88852415D01*
X92854868Y-88849500D01*
X92854865Y-88849500D01*
X92484500Y-88849500D01*
X92417461Y-88829815D01*
X92371706Y-88777011D01*
X92360500Y-88725500D01*
X92360500Y-79407275D01*
X92360500Y-79407273D01*
X92333207Y-79305413D01*
X92333207Y-79305412D01*
X92293712Y-79237006D01*
X92280480Y-79214087D01*
X92205913Y-79139520D01*
X92205912Y-79139519D01*
X92201582Y-79135189D01*
X92201571Y-79135179D01*
X90969662Y-77903269D01*
X90936177Y-77841946D01*
X90933343Y-77815588D01*
X90933343Y-77250098D01*
X90953028Y-77183059D01*
X90969662Y-77162417D01*
X92695260Y-75436819D01*
X92756583Y-75403334D01*
X92782941Y-75400500D01*
X93652727Y-75400500D01*
X93652729Y-75400500D01*
X93754590Y-75373207D01*
X93845915Y-75320480D01*
X94929574Y-74236821D01*
X94956501Y-74222117D01*
X94982320Y-74205525D01*
X94988520Y-74204633D01*
X94990897Y-74203336D01*
X95017255Y-74200502D01*
X95075500Y-74200502D01*
X95142539Y-74220187D01*
G37*
%TD.AperFunction*%
%TA.AperFunction,Conductor*%
G36*
X104963181Y-85529628D02*
G01*
X104996666Y-85590951D01*
X104999500Y-85617309D01*
X104999500Y-86533084D01*
X104979815Y-86600123D01*
X104927011Y-86645878D01*
X104857853Y-86655822D01*
X104794297Y-86626797D01*
X104787819Y-86620765D01*
X104749499Y-86582445D01*
X104749494Y-86582441D01*
X104602997Y-86476006D01*
X104602996Y-86476005D01*
X104602994Y-86476004D01*
X104551300Y-86449664D01*
X104441639Y-86393788D01*
X104441636Y-86393787D01*
X104269410Y-86337828D01*
X104107720Y-86312219D01*
X104044585Y-86282289D01*
X104007654Y-86222978D01*
X104008652Y-86153115D01*
X104047262Y-86094883D01*
X104107721Y-86067273D01*
X104269292Y-86041683D01*
X104441444Y-85985748D01*
X104441452Y-85985745D01*
X104602730Y-85903568D01*
X104618532Y-85892085D01*
X104618533Y-85892085D01*
X104129410Y-85402962D01*
X104192993Y-85385925D01*
X104307007Y-85320099D01*
X104400099Y-85227007D01*
X104465925Y-85112993D01*
X104482962Y-85049409D01*
X104963181Y-85529628D01*
G37*
%TD.AperFunction*%
%TA.AperFunction,Conductor*%
G36*
X85534075Y-85112993D02*
G01*
X85599901Y-85227007D01*
X85692993Y-85320099D01*
X85807007Y-85385925D01*
X85870590Y-85402962D01*
X85381466Y-85892085D01*
X85381466Y-85892086D01*
X85397267Y-85903566D01*
X85397275Y-85903571D01*
X85558552Y-85985747D01*
X85558555Y-85985748D01*
X85730706Y-86041682D01*
X85892279Y-86067273D01*
X85955413Y-86097202D01*
X85992345Y-86156513D01*
X85991347Y-86226376D01*
X85952738Y-86284609D01*
X85892280Y-86312219D01*
X85730589Y-86337829D01*
X85558363Y-86393787D01*
X85558360Y-86393788D01*
X85397002Y-86476006D01*
X85250505Y-86582441D01*
X85250500Y-86582445D01*
X85212181Y-86620765D01*
X85150858Y-86654250D01*
X85081166Y-86649266D01*
X85025233Y-86607394D01*
X85000816Y-86541930D01*
X85000500Y-86533084D01*
X85000500Y-85617309D01*
X85020185Y-85550270D01*
X85036819Y-85529628D01*
X85517037Y-85049409D01*
X85534075Y-85112993D01*
G37*
%TD.AperFunction*%
%TA.AperFunction,Conductor*%
G36*
X85205703Y-83213203D02*
G01*
X85212181Y-83219235D01*
X85250500Y-83257554D01*
X85250505Y-83257558D01*
X85378287Y-83350396D01*
X85397006Y-83363996D01*
X85485466Y-83409069D01*
X85558360Y-83446211D01*
X85558363Y-83446212D01*
X85644476Y-83474191D01*
X85730591Y-83502171D01*
X85850038Y-83521089D01*
X85892279Y-83527780D01*
X85955414Y-83557709D01*
X85992345Y-83617021D01*
X85991347Y-83686883D01*
X85952737Y-83745116D01*
X85892279Y-83772726D01*
X85730706Y-83798317D01*
X85558555Y-83854251D01*
X85558547Y-83854254D01*
X85397269Y-83936432D01*
X85381466Y-83947912D01*
X85381466Y-83947913D01*
X85870591Y-84437037D01*
X85807007Y-84454075D01*
X85692993Y-84519901D01*
X85599901Y-84612993D01*
X85534075Y-84727007D01*
X85517037Y-84790590D01*
X85036819Y-84310372D01*
X85003334Y-84249049D01*
X85000500Y-84222691D01*
X85000500Y-83306916D01*
X85020185Y-83239877D01*
X85072989Y-83194122D01*
X85142147Y-83184178D01*
X85205703Y-83213203D01*
G37*
%TD.AperFunction*%
%TA.AperFunction,Conductor*%
G36*
X104918834Y-83190734D02*
G01*
X104974767Y-83232606D01*
X104999184Y-83298070D01*
X104999500Y-83306916D01*
X104999500Y-84222690D01*
X104979815Y-84289729D01*
X104963181Y-84310371D01*
X104482962Y-84790589D01*
X104465925Y-84727007D01*
X104400099Y-84612993D01*
X104307007Y-84519901D01*
X104192993Y-84454075D01*
X104129409Y-84437037D01*
X104618533Y-83947913D01*
X104602730Y-83936431D01*
X104441447Y-83854252D01*
X104441444Y-83854251D01*
X104269293Y-83798317D01*
X104107720Y-83772726D01*
X104044585Y-83742797D01*
X104007654Y-83683485D01*
X104008652Y-83613623D01*
X104047262Y-83555390D01*
X104107720Y-83527780D01*
X104122270Y-83525475D01*
X104269409Y-83502171D01*
X104441639Y-83446211D01*
X104602994Y-83363996D01*
X104749501Y-83257553D01*
X104787819Y-83219235D01*
X104849142Y-83185750D01*
X104918834Y-83190734D01*
G37*
%TD.AperFunction*%
%TA.AperFunction,Conductor*%
G36*
X96205703Y-77838228D02*
G01*
X96212181Y-77844260D01*
X97530338Y-79162417D01*
X97563823Y-79223740D01*
X97566657Y-79250098D01*
X97566657Y-80815588D01*
X97546972Y-80882627D01*
X97530338Y-80903269D01*
X96779522Y-81654084D01*
X96779518Y-81654090D01*
X96726792Y-81745412D01*
X96726793Y-81745413D01*
X96699500Y-81847273D01*
X96699500Y-82275500D01*
X96696949Y-82284185D01*
X96698238Y-82293147D01*
X96687259Y-82317187D01*
X96679815Y-82342539D01*
X96672974Y-82348466D01*
X96669213Y-82356703D01*
X96646978Y-82370992D01*
X96627011Y-82388294D01*
X96616496Y-82390581D01*
X96610435Y-82394477D01*
X96575500Y-82399500D01*
X96517255Y-82399500D01*
X96450216Y-82379815D01*
X96429574Y-82363181D01*
X96036819Y-81970426D01*
X96003334Y-81909103D01*
X96000500Y-81882745D01*
X96000500Y-77931941D01*
X96020185Y-77864902D01*
X96072989Y-77819147D01*
X96142147Y-77809203D01*
X96205703Y-77838228D01*
G37*
%TD.AperFunction*%
%TA.AperFunction,Conductor*%
G36*
X104963181Y-72829628D02*
G01*
X104996666Y-72890951D01*
X104999500Y-72917309D01*
X104999500Y-73833084D01*
X104979815Y-73900123D01*
X104927011Y-73945878D01*
X104857853Y-73955822D01*
X104794297Y-73926797D01*
X104787819Y-73920765D01*
X104749499Y-73882445D01*
X104749494Y-73882441D01*
X104602997Y-73776006D01*
X104602996Y-73776005D01*
X104602994Y-73776004D01*
X104551300Y-73749664D01*
X104441639Y-73693788D01*
X104441636Y-73693787D01*
X104269410Y-73637828D01*
X104107720Y-73612219D01*
X104044585Y-73582289D01*
X104007654Y-73522978D01*
X104008652Y-73453115D01*
X104047262Y-73394883D01*
X104107721Y-73367273D01*
X104269292Y-73341683D01*
X104441444Y-73285748D01*
X104441452Y-73285745D01*
X104602730Y-73203568D01*
X104618532Y-73192085D01*
X104618533Y-73192085D01*
X104129410Y-72702962D01*
X104192993Y-72685925D01*
X104307007Y-72620099D01*
X104400099Y-72527007D01*
X104465925Y-72412993D01*
X104482962Y-72349409D01*
X104963181Y-72829628D01*
G37*
%TD.AperFunction*%
%TA.AperFunction,Conductor*%
G36*
X85534075Y-72412993D02*
G01*
X85599901Y-72527007D01*
X85692993Y-72620099D01*
X85807007Y-72685925D01*
X85870590Y-72702962D01*
X85381466Y-73192085D01*
X85381466Y-73192086D01*
X85397267Y-73203566D01*
X85397275Y-73203571D01*
X85558552Y-73285747D01*
X85558555Y-73285748D01*
X85730706Y-73341682D01*
X85892279Y-73367273D01*
X85955413Y-73397202D01*
X85992345Y-73456513D01*
X85991347Y-73526376D01*
X85952738Y-73584609D01*
X85892280Y-73612219D01*
X85730589Y-73637829D01*
X85558363Y-73693787D01*
X85558360Y-73693788D01*
X85397002Y-73776006D01*
X85250505Y-73882441D01*
X85250500Y-73882445D01*
X85212181Y-73920765D01*
X85150858Y-73954250D01*
X85081166Y-73949266D01*
X85025233Y-73907394D01*
X85000816Y-73841930D01*
X85000500Y-73833084D01*
X85000500Y-72917309D01*
X85020185Y-72850270D01*
X85036819Y-72829628D01*
X85517037Y-72349409D01*
X85534075Y-72412993D01*
G37*
%TD.AperFunction*%
%TA.AperFunction,Conductor*%
G36*
X103586716Y-68215424D02*
G01*
X103730591Y-68262171D01*
X103803639Y-68273740D01*
X103890678Y-68287527D01*
X103953813Y-68317456D01*
X103990744Y-68376768D01*
X103989746Y-68446631D01*
X103951136Y-68504863D01*
X103890678Y-68532473D01*
X103730589Y-68557829D01*
X103558363Y-68613787D01*
X103558360Y-68613788D01*
X103397003Y-68696005D01*
X103265754Y-68791361D01*
X103265744Y-68791370D01*
X103250499Y-68802447D01*
X103122447Y-68930499D01*
X103111368Y-68945747D01*
X103111364Y-68945752D01*
X103016003Y-69077006D01*
X102933788Y-69238360D01*
X102933787Y-69238363D01*
X102877829Y-69410589D01*
X102849500Y-69589448D01*
X102849500Y-69770551D01*
X102877829Y-69949410D01*
X102933787Y-70121636D01*
X102933788Y-70121639D01*
X102960598Y-70174255D01*
X103014656Y-70280349D01*
X103016006Y-70282997D01*
X103122441Y-70429494D01*
X103122445Y-70429499D01*
X103250500Y-70557554D01*
X103250505Y-70557558D01*
X103376342Y-70648983D01*
X103397006Y-70663996D01*
X103502484Y-70717740D01*
X103558360Y-70746211D01*
X103558363Y-70746212D01*
X103634486Y-70770945D01*
X103730591Y-70802171D01*
X103830046Y-70817923D01*
X103892279Y-70827780D01*
X103955414Y-70857709D01*
X103992345Y-70917021D01*
X103991347Y-70986883D01*
X103952737Y-71045116D01*
X103892279Y-71072726D01*
X103730706Y-71098317D01*
X103558555Y-71154251D01*
X103558547Y-71154254D01*
X103397269Y-71236432D01*
X103381466Y-71247912D01*
X103381466Y-71247913D01*
X103870591Y-71737037D01*
X103807007Y-71754075D01*
X103692993Y-71819901D01*
X103599901Y-71912993D01*
X103534075Y-72027007D01*
X103517037Y-72090590D01*
X103027913Y-71601466D01*
X103027912Y-71601466D01*
X103016432Y-71617269D01*
X102934254Y-71778547D01*
X102934251Y-71778555D01*
X102878317Y-71950706D01*
X102850000Y-72129493D01*
X102850000Y-72310506D01*
X102878317Y-72489293D01*
X102934251Y-72661444D01*
X102934252Y-72661447D01*
X103016431Y-72822730D01*
X103027913Y-72838532D01*
X103027913Y-72838533D01*
X103517037Y-72349409D01*
X103534075Y-72412993D01*
X103599901Y-72527007D01*
X103692993Y-72620099D01*
X103807007Y-72685925D01*
X103870590Y-72702962D01*
X103381466Y-73192085D01*
X103381466Y-73192086D01*
X103397267Y-73203566D01*
X103397275Y-73203571D01*
X103558552Y-73285747D01*
X103558555Y-73285748D01*
X103730706Y-73341682D01*
X103892279Y-73367273D01*
X103955413Y-73397202D01*
X103992345Y-73456513D01*
X103991347Y-73526376D01*
X103952738Y-73584609D01*
X103892280Y-73612219D01*
X103730586Y-73637829D01*
X103586716Y-73684575D01*
X103516875Y-73686570D01*
X103460718Y-73654325D01*
X102165495Y-72359102D01*
X102132010Y-72297779D01*
X102136994Y-72228087D01*
X102165491Y-72183744D01*
X102274785Y-72074451D01*
X102353842Y-71937519D01*
X102394765Y-71784792D01*
X102394765Y-71626678D01*
X102353842Y-71473951D01*
X102294519Y-71371199D01*
X102274789Y-71337025D01*
X102274783Y-71337017D01*
X102162982Y-71225216D01*
X102162974Y-71225210D01*
X102026055Y-71146161D01*
X102026051Y-71146159D01*
X102026049Y-71146158D01*
X101873322Y-71105235D01*
X101873321Y-71105235D01*
X101811520Y-71105235D01*
X101744481Y-71085550D01*
X101723839Y-71068916D01*
X101525575Y-70870652D01*
X101525573Y-70870650D01*
X101451321Y-70827780D01*
X101434249Y-70817923D01*
X101383317Y-70804276D01*
X101332387Y-70790630D01*
X101332386Y-70790630D01*
X101215125Y-70790630D01*
X101148086Y-70770945D01*
X101102331Y-70718141D01*
X101092387Y-70648983D01*
X101121412Y-70585427D01*
X101127444Y-70578949D01*
X102320480Y-69385913D01*
X102468033Y-69238360D01*
X103460719Y-68245672D01*
X103522040Y-68212189D01*
X103586716Y-68215424D01*
G37*
%TD.AperFunction*%
%TA.AperFunction,Conductor*%
G36*
X102882206Y-40520185D02*
G01*
X102927961Y-40572989D01*
X102937905Y-40642147D01*
X102908880Y-40705703D01*
X102902848Y-40712181D01*
X102897794Y-40717234D01*
X102852415Y-40820006D01*
X102852415Y-40820008D01*
X102849500Y-40845131D01*
X102849500Y-42634856D01*
X102849502Y-42634882D01*
X102852413Y-42659987D01*
X102852415Y-42659991D01*
X102897793Y-42762764D01*
X102897794Y-42762765D01*
X102977235Y-42842206D01*
X103080009Y-42887585D01*
X103105135Y-42890500D01*
X103842873Y-42890499D01*
X103909910Y-42910183D01*
X103955665Y-42962987D01*
X103965609Y-43032146D01*
X103936584Y-43095702D01*
X103877806Y-43133476D01*
X103862270Y-43136972D01*
X103730589Y-43157829D01*
X103558363Y-43213787D01*
X103558360Y-43213788D01*
X103397002Y-43296006D01*
X103250505Y-43402441D01*
X103250500Y-43402445D01*
X103122445Y-43530500D01*
X103122441Y-43530505D01*
X103016006Y-43677002D01*
X102933788Y-43838360D01*
X102933787Y-43838363D01*
X102877829Y-44010589D01*
X102849500Y-44189448D01*
X102849500Y-44370551D01*
X102877829Y-44549412D01*
X102924575Y-44693283D01*
X102926570Y-44763124D01*
X102894325Y-44819281D01*
X101779522Y-45934084D01*
X101779520Y-45934087D01*
X101726793Y-46025410D01*
X101699500Y-46127273D01*
X101699500Y-56675500D01*
X101679815Y-56742539D01*
X101627011Y-56788294D01*
X101575500Y-56799500D01*
X101420943Y-56799500D01*
X101268216Y-56840423D01*
X101268209Y-56840426D01*
X101131290Y-56919475D01*
X101131282Y-56919481D01*
X101019481Y-57031282D01*
X101019475Y-57031290D01*
X100940426Y-57168209D01*
X100940423Y-57168216D01*
X100899500Y-57320943D01*
X100899500Y-57382745D01*
X100879815Y-57449784D01*
X100863181Y-57470426D01*
X100670426Y-57663181D01*
X100609103Y-57696666D01*
X100582745Y-57699500D01*
X97094706Y-57699500D01*
X97027667Y-57679815D01*
X97007025Y-57663181D01*
X96938325Y-57594481D01*
X96938317Y-57594475D01*
X96801398Y-57515426D01*
X96801394Y-57515424D01*
X96801392Y-57515423D01*
X96648665Y-57474500D01*
X96490551Y-57474500D01*
X96337824Y-57515423D01*
X96337817Y-57515426D01*
X96200898Y-57594475D01*
X96200894Y-57594478D01*
X96088906Y-57706466D01*
X96027583Y-57739950D01*
X95957891Y-57734966D01*
X95913544Y-57706465D01*
X95511997Y-57304918D01*
X95478512Y-57243595D01*
X95479903Y-57185144D01*
X95480802Y-57181790D01*
X95511647Y-57066675D01*
X95511647Y-56908561D01*
X95470724Y-56755834D01*
X95463048Y-56742539D01*
X95391671Y-56618908D01*
X95391665Y-56618900D01*
X95279864Y-56507099D01*
X95279856Y-56507093D01*
X95142937Y-56428044D01*
X95142933Y-56428042D01*
X95142931Y-56428041D01*
X94990204Y-56387118D01*
X94832090Y-56387118D01*
X94679363Y-56428041D01*
X94679356Y-56428044D01*
X94554398Y-56500188D01*
X94486498Y-56516661D01*
X94420471Y-56493808D01*
X94404718Y-56480482D01*
X94393717Y-56469481D01*
X94393709Y-56469475D01*
X94256790Y-56390426D01*
X94256786Y-56390424D01*
X94256784Y-56390423D01*
X94104057Y-56349500D01*
X93945943Y-56349500D01*
X93793216Y-56390423D01*
X93793209Y-56390426D01*
X93656290Y-56469475D01*
X93656282Y-56469481D01*
X93544481Y-56581282D01*
X93544475Y-56581290D01*
X93465426Y-56718209D01*
X93465423Y-56718216D01*
X93424500Y-56870943D01*
X93424500Y-57029057D01*
X93461788Y-57168216D01*
X93465423Y-57181783D01*
X93465426Y-57181790D01*
X93544475Y-57318709D01*
X93544479Y-57318714D01*
X93544480Y-57318716D01*
X93656284Y-57430520D01*
X93656286Y-57430521D01*
X93656290Y-57430524D01*
X93732460Y-57474500D01*
X93793216Y-57509577D01*
X93945943Y-57550500D01*
X94007745Y-57550500D01*
X94074784Y-57570185D01*
X94095426Y-57586819D01*
X95904087Y-59395480D01*
X95995412Y-59448207D01*
X96097273Y-59475500D01*
X96506274Y-59475500D01*
X96573313Y-59495185D01*
X96593955Y-59511819D01*
X97357485Y-60275348D01*
X97390970Y-60336671D01*
X97393804Y-60363029D01*
X97393804Y-61899902D01*
X97374119Y-61966941D01*
X97357485Y-61987583D01*
X97313785Y-62031282D01*
X97313779Y-62031290D01*
X97234730Y-62168209D01*
X97234727Y-62168216D01*
X97197380Y-62307595D01*
X97161017Y-62367254D01*
X97098170Y-62397783D01*
X97077607Y-62399500D01*
X96920943Y-62399500D01*
X96768216Y-62440423D01*
X96768209Y-62440426D01*
X96631290Y-62519475D01*
X96631282Y-62519481D01*
X96519481Y-62631282D01*
X96519475Y-62631290D01*
X96440426Y-62768209D01*
X96440423Y-62768216D01*
X96399500Y-62920943D01*
X96399500Y-63079057D01*
X96433924Y-63207527D01*
X96440423Y-63231783D01*
X96440426Y-63231790D01*
X96519475Y-63368709D01*
X96519479Y-63368714D01*
X96519480Y-63368716D01*
X96631284Y-63480520D01*
X96631286Y-63480521D01*
X96631290Y-63480524D01*
X96723549Y-63533789D01*
X96768216Y-63559577D01*
X96920943Y-63600500D01*
X96920945Y-63600500D01*
X97079055Y-63600500D01*
X97079057Y-63600500D01*
X97231784Y-63559577D01*
X97368716Y-63480520D01*
X97412417Y-63436819D01*
X97473740Y-63403334D01*
X97500098Y-63400500D01*
X97782744Y-63400500D01*
X97812180Y-63409143D01*
X97842170Y-63415667D01*
X97847187Y-63419422D01*
X97849783Y-63420185D01*
X97870425Y-63436818D01*
X97934532Y-63500924D01*
X97968017Y-63562247D01*
X97970851Y-63588606D01*
X97970851Y-63999902D01*
X97951166Y-64066941D01*
X97934532Y-64087583D01*
X97890832Y-64131282D01*
X97890826Y-64131290D01*
X97811777Y-64268209D01*
X97811774Y-64268216D01*
X97770851Y-64420943D01*
X97770851Y-64579057D01*
X97800725Y-64690546D01*
X97811774Y-64731783D01*
X97811777Y-64731790D01*
X97890826Y-64868709D01*
X97890830Y-64868714D01*
X97890831Y-64868716D01*
X98002635Y-64980520D01*
X98002637Y-64980521D01*
X98002641Y-64980524D01*
X98108492Y-65041636D01*
X98139567Y-65059577D01*
X98292294Y-65100500D01*
X98292296Y-65100500D01*
X98446851Y-65100500D01*
X98513890Y-65120185D01*
X98559645Y-65172989D01*
X98570851Y-65224500D01*
X98570851Y-67256284D01*
X98551166Y-67323323D01*
X98534532Y-67343965D01*
X97292871Y-68585626D01*
X97231548Y-68619111D01*
X97205190Y-68621945D01*
X97143388Y-68621945D01*
X96990661Y-68662868D01*
X96990654Y-68662871D01*
X96853735Y-68741920D01*
X96853727Y-68741926D01*
X96741926Y-68853727D01*
X96741920Y-68853735D01*
X96662871Y-68990654D01*
X96662868Y-68990661D01*
X96621945Y-69143388D01*
X96621945Y-69301502D01*
X96656625Y-69430927D01*
X96662868Y-69454228D01*
X96662871Y-69454235D01*
X96741920Y-69591154D01*
X96741926Y-69591162D01*
X96849935Y-69699171D01*
X96883420Y-69760494D01*
X96878436Y-69830186D01*
X96836564Y-69886119D01*
X96794349Y-69906626D01*
X96761695Y-69915376D01*
X96668216Y-69940423D01*
X96668211Y-69940426D01*
X96531292Y-70019475D01*
X96531284Y-70019481D01*
X96421997Y-70128769D01*
X96360674Y-70162254D01*
X96290982Y-70157270D01*
X96246635Y-70128769D01*
X95736819Y-69618953D01*
X95703334Y-69557630D01*
X95700500Y-69531272D01*
X95700500Y-68120757D01*
X95720185Y-68053718D01*
X95736819Y-68033076D01*
X97137057Y-66632838D01*
X97198380Y-66599353D01*
X97224738Y-66596519D01*
X97286539Y-66596519D01*
X97286541Y-66596519D01*
X97439268Y-66555596D01*
X97576200Y-66476539D01*
X97688004Y-66364735D01*
X97767061Y-66227803D01*
X97807984Y-66075076D01*
X97807984Y-65916962D01*
X97767061Y-65764235D01*
X97710468Y-65666212D01*
X97688008Y-65627309D01*
X97688002Y-65627301D01*
X97576201Y-65515500D01*
X97576193Y-65515494D01*
X97439274Y-65436445D01*
X97439270Y-65436443D01*
X97439268Y-65436442D01*
X97286541Y-65395519D01*
X97128427Y-65395519D01*
X96975700Y-65436442D01*
X96975693Y-65436445D01*
X96838774Y-65515494D01*
X96838766Y-65515500D01*
X96726965Y-65627301D01*
X96726959Y-65627309D01*
X96647910Y-65764228D01*
X96647907Y-65764235D01*
X96606984Y-65916962D01*
X96606984Y-65978764D01*
X96587299Y-66045803D01*
X96570665Y-66066445D01*
X94979522Y-67657587D01*
X94979518Y-67657593D01*
X94926792Y-67748916D01*
X94926791Y-67748916D01*
X94915842Y-67789785D01*
X94915842Y-67789786D01*
X94899500Y-67850776D01*
X94899500Y-69801253D01*
X94926793Y-69903116D01*
X94932482Y-69912969D01*
X94979520Y-69994440D01*
X94979522Y-69994442D01*
X96096024Y-71110944D01*
X96129509Y-71172267D01*
X96132343Y-71198625D01*
X96132343Y-72452375D01*
X96112658Y-72519414D01*
X96059854Y-72565169D01*
X95990696Y-72575113D01*
X95927140Y-72546088D01*
X95920662Y-72540056D01*
X95560128Y-72179522D01*
X95560127Y-72179521D01*
X95560126Y-72179520D01*
X95491683Y-72140004D01*
X95468802Y-72126793D01*
X95417870Y-72113146D01*
X95366940Y-72099500D01*
X95366939Y-72099500D01*
X95217254Y-72099500D01*
X95150215Y-72079815D01*
X95129573Y-72063181D01*
X94498915Y-71432522D01*
X94465430Y-71371199D01*
X94462596Y-71344841D01*
X94462596Y-69947276D01*
X94462596Y-69947273D01*
X94455640Y-69921312D01*
X94435303Y-69845412D01*
X94382576Y-69754087D01*
X94327589Y-69699100D01*
X94294104Y-69637777D01*
X94299088Y-69568085D01*
X94340960Y-69512152D01*
X94353266Y-69504034D01*
X94412073Y-69470083D01*
X94523877Y-69358279D01*
X94602934Y-69221347D01*
X94643857Y-69068620D01*
X94643857Y-68910506D01*
X94602934Y-68757779D01*
X94589280Y-68734130D01*
X94523881Y-68620853D01*
X94523875Y-68620845D01*
X94480176Y-68577146D01*
X94446691Y-68515823D01*
X94443857Y-68489465D01*
X94443857Y-67505060D01*
X94443857Y-67505058D01*
X94416564Y-67403198D01*
X94363837Y-67311872D01*
X94289270Y-67237305D01*
X93436819Y-66384854D01*
X93403334Y-66323531D01*
X93400500Y-66297173D01*
X93400500Y-66235373D01*
X93400500Y-66235371D01*
X93359577Y-66082644D01*
X93355207Y-66075075D01*
X93280524Y-65945718D01*
X93280518Y-65945710D01*
X93168717Y-65833909D01*
X93168709Y-65833903D01*
X93031790Y-65754854D01*
X93031786Y-65754852D01*
X93031784Y-65754851D01*
X92879057Y-65713928D01*
X92720943Y-65713928D01*
X92568216Y-65754851D01*
X92568209Y-65754854D01*
X92431290Y-65833903D01*
X92431282Y-65833909D01*
X92319481Y-65945710D01*
X92319475Y-65945718D01*
X92240426Y-66082637D01*
X92240423Y-66082644D01*
X92199500Y-66235371D01*
X92199500Y-66393485D01*
X92237957Y-66537006D01*
X92240423Y-66546211D01*
X92240426Y-66546218D01*
X92319475Y-66683137D01*
X92319479Y-66683142D01*
X92319480Y-66683144D01*
X92431284Y-66794948D01*
X92431286Y-66794949D01*
X92431290Y-66794952D01*
X92562299Y-66870589D01*
X92568216Y-66874005D01*
X92720943Y-66914928D01*
X92782745Y-66914928D01*
X92849784Y-66934613D01*
X92870426Y-66951247D01*
X93606538Y-67687359D01*
X93640023Y-67748682D01*
X93642857Y-67775040D01*
X93642857Y-68489465D01*
X93636500Y-68511113D01*
X93634734Y-68533606D01*
X93625881Y-68547275D01*
X93623172Y-68556504D01*
X93617604Y-68564465D01*
X93612503Y-68571180D01*
X93562837Y-68620847D01*
X93524981Y-68686415D01*
X93520247Y-68692649D01*
X93498172Y-68708935D01*
X93478320Y-68727865D01*
X93470463Y-68729379D01*
X93464024Y-68734130D01*
X93436645Y-68735896D01*
X93409713Y-68741087D01*
X93402285Y-68738113D01*
X93394299Y-68738629D01*
X93370310Y-68725312D01*
X93344848Y-68715119D01*
X93333819Y-68705330D01*
X91923912Y-67295423D01*
X91923910Y-67295421D01*
X91917893Y-67291947D01*
X91905285Y-67284667D01*
X91868910Y-67252765D01*
X91864627Y-67247183D01*
X91841282Y-67223838D01*
X91752825Y-67135381D01*
X91752822Y-67135379D01*
X91752818Y-67135376D01*
X91615899Y-67056327D01*
X91615895Y-67056325D01*
X91615893Y-67056324D01*
X91463166Y-67015401D01*
X91305052Y-67015401D01*
X91152325Y-67056324D01*
X91152318Y-67056327D01*
X91015399Y-67135376D01*
X91015391Y-67135382D01*
X90906104Y-67244670D01*
X90844781Y-67278155D01*
X90775089Y-67273171D01*
X90730742Y-67244670D01*
X89936819Y-66450747D01*
X89903334Y-66389424D01*
X89900500Y-66363066D01*
X89900500Y-65368726D01*
X89920185Y-65301687D01*
X89936819Y-65281045D01*
X91320477Y-63897387D01*
X91320480Y-63897384D01*
X91324393Y-63890606D01*
X91373207Y-63806058D01*
X91400500Y-63704198D01*
X91400500Y-56947273D01*
X91373207Y-56845413D01*
X91320480Y-56754087D01*
X91245913Y-56679520D01*
X89936819Y-55370426D01*
X89903334Y-55309103D01*
X89900500Y-55282745D01*
X89900500Y-51045943D01*
X93474500Y-51045943D01*
X93474500Y-51204057D01*
X93499405Y-51297002D01*
X93515423Y-51356783D01*
X93515426Y-51356790D01*
X93594475Y-51493709D01*
X93594479Y-51493714D01*
X93594480Y-51493716D01*
X93706284Y-51605520D01*
X93706286Y-51605521D01*
X93706290Y-51605524D01*
X93756633Y-51634589D01*
X93843216Y-51684577D01*
X93995943Y-51725500D01*
X93995945Y-51725500D01*
X94154055Y-51725500D01*
X94154057Y-51725500D01*
X94306784Y-51684577D01*
X94443716Y-51605520D01*
X94487417Y-51561819D01*
X94548740Y-51528334D01*
X94575098Y-51525500D01*
X95975500Y-51525500D01*
X96042539Y-51545185D01*
X96088294Y-51597989D01*
X96099500Y-51649500D01*
X96099500Y-51704057D01*
X96127740Y-51809448D01*
X96140423Y-51856783D01*
X96140426Y-51856790D01*
X96219475Y-51993709D01*
X96219479Y-51993714D01*
X96219480Y-51993716D01*
X96331284Y-52105520D01*
X96331286Y-52105521D01*
X96331290Y-52105524D01*
X96441944Y-52169409D01*
X96468216Y-52184577D01*
X96620943Y-52225500D01*
X96620945Y-52225500D01*
X96779055Y-52225500D01*
X96779057Y-52225500D01*
X96931784Y-52184577D01*
X97068716Y-52105520D01*
X97180520Y-51993716D01*
X97259577Y-51856784D01*
X97300500Y-51704057D01*
X97300500Y-51545943D01*
X97259577Y-51393216D01*
X97204031Y-51297006D01*
X97180524Y-51256290D01*
X97180518Y-51256282D01*
X97068717Y-51144481D01*
X97068709Y-51144475D01*
X96931790Y-51065426D01*
X96931786Y-51065424D01*
X96931784Y-51065423D01*
X96779057Y-51024500D01*
X96779056Y-51024500D01*
X96717255Y-51024500D01*
X96650216Y-51004815D01*
X96629574Y-50988181D01*
X96445915Y-50804522D01*
X96445913Y-50804520D01*
X96399683Y-50777829D01*
X96354589Y-50751793D01*
X96303657Y-50738146D01*
X96252727Y-50724500D01*
X96252726Y-50724500D01*
X94575098Y-50724500D01*
X94508059Y-50704815D01*
X94487417Y-50688181D01*
X94443717Y-50644481D01*
X94443709Y-50644475D01*
X94306790Y-50565426D01*
X94306786Y-50565424D01*
X94306784Y-50565423D01*
X94154057Y-50524500D01*
X93995943Y-50524500D01*
X93843216Y-50565423D01*
X93843209Y-50565426D01*
X93706290Y-50644475D01*
X93706282Y-50644481D01*
X93594481Y-50756282D01*
X93594475Y-50756290D01*
X93515426Y-50893209D01*
X93515423Y-50893216D01*
X93474500Y-51045943D01*
X89900500Y-51045943D01*
X89900500Y-47331234D01*
X89920185Y-47264195D01*
X89972989Y-47218440D01*
X90042147Y-47208496D01*
X90105703Y-47237521D01*
X90112181Y-47243553D01*
X90170026Y-47301398D01*
X90170034Y-47301404D01*
X90301047Y-47388944D01*
X90301065Y-47388954D01*
X90429999Y-47442360D01*
X90430000Y-47442360D01*
X90430000Y-46846988D01*
X90439940Y-46864205D01*
X90495795Y-46920060D01*
X90564204Y-46959556D01*
X90640504Y-46980000D01*
X90719496Y-46980000D01*
X90795796Y-46959556D01*
X90864205Y-46920060D01*
X90920060Y-46864205D01*
X90930000Y-46846988D01*
X90930000Y-47442360D01*
X91058934Y-47388954D01*
X91058952Y-47388944D01*
X91189965Y-47301404D01*
X91189973Y-47301398D01*
X91301398Y-47189973D01*
X91301401Y-47189969D01*
X91388947Y-47058948D01*
X91388952Y-47058939D01*
X91449256Y-46913351D01*
X91449258Y-46913343D01*
X91479999Y-46758797D01*
X91480000Y-46758794D01*
X91480000Y-46380000D01*
X90980000Y-46380000D01*
X90980000Y-45880000D01*
X91531362Y-45880000D01*
X91531362Y-45881884D01*
X91577320Y-45885163D01*
X91633261Y-45927024D01*
X91641391Y-45939346D01*
X91649485Y-45953365D01*
X91756635Y-46060515D01*
X91887865Y-46136281D01*
X92034234Y-46175500D01*
X92034236Y-46175500D01*
X92185764Y-46175500D01*
X92185766Y-46175500D01*
X92332135Y-46136281D01*
X92463365Y-46060515D01*
X92570515Y-45953365D01*
X92646281Y-45822135D01*
X92685500Y-45675766D01*
X92685500Y-45524234D01*
X97314500Y-45524234D01*
X97314500Y-45675766D01*
X97334109Y-45748950D01*
X97353719Y-45822136D01*
X97388215Y-45881884D01*
X97429485Y-45953365D01*
X97536635Y-46060515D01*
X97667865Y-46136281D01*
X97814234Y-46175500D01*
X97814236Y-46175500D01*
X97965764Y-46175500D01*
X97965766Y-46175500D01*
X98112135Y-46136281D01*
X98243365Y-46060515D01*
X98350515Y-45953365D01*
X98358604Y-45939353D01*
X98409168Y-45891139D01*
X98477774Y-45877914D01*
X98482985Y-45880000D01*
X99020000Y-45880000D01*
X99020000Y-46380000D01*
X98520000Y-46380000D01*
X98520000Y-46758797D01*
X98550741Y-46913343D01*
X98550743Y-46913351D01*
X98611047Y-47058939D01*
X98611052Y-47058948D01*
X98698598Y-47189969D01*
X98698601Y-47189973D01*
X98810026Y-47301398D01*
X98810034Y-47301404D01*
X98941047Y-47388944D01*
X98941065Y-47388954D01*
X99069999Y-47442360D01*
X99070000Y-47442360D01*
X99070000Y-46846988D01*
X99079940Y-46864205D01*
X99135795Y-46920060D01*
X99204204Y-46959556D01*
X99280504Y-46980000D01*
X99359496Y-46980000D01*
X99435796Y-46959556D01*
X99504205Y-46920060D01*
X99560060Y-46864205D01*
X99570000Y-46846988D01*
X99570000Y-47442360D01*
X99698934Y-47388954D01*
X99698952Y-47388944D01*
X99829965Y-47301404D01*
X99829973Y-47301398D01*
X99941398Y-47189973D01*
X99941401Y-47189969D01*
X100028947Y-47058948D01*
X100028952Y-47058939D01*
X100089256Y-46913351D01*
X100089258Y-46913343D01*
X100119999Y-46758797D01*
X100120000Y-46758794D01*
X100120000Y-46380000D01*
X99620000Y-46380000D01*
X99620000Y-45880000D01*
X100120000Y-45880000D01*
X100120000Y-45501206D01*
X100119999Y-45501202D01*
X100089258Y-45346656D01*
X100089256Y-45346648D01*
X100028952Y-45201060D01*
X100028947Y-45201051D01*
X99941401Y-45070030D01*
X99941398Y-45070026D01*
X99829973Y-44958601D01*
X99829969Y-44958598D01*
X99698948Y-44871052D01*
X99698938Y-44871047D01*
X99570000Y-44817639D01*
X99570000Y-45413011D01*
X99560060Y-45395795D01*
X99504205Y-45339940D01*
X99435796Y-45300444D01*
X99359496Y-45280000D01*
X99280504Y-45280000D01*
X99204204Y-45300444D01*
X99135795Y-45339940D01*
X99079940Y-45395795D01*
X99070000Y-45413011D01*
X99070000Y-44817639D01*
X99069999Y-44817639D01*
X98941061Y-44871047D01*
X98941051Y-44871052D01*
X98810030Y-44958598D01*
X98810026Y-44958601D01*
X98698601Y-45070026D01*
X98698598Y-45070030D01*
X98611052Y-45201051D01*
X98611049Y-45201057D01*
X98587446Y-45258040D01*
X98543604Y-45312443D01*
X98477310Y-45334507D01*
X98409611Y-45317227D01*
X98365498Y-45272587D01*
X98360538Y-45263996D01*
X98350515Y-45246635D01*
X98243365Y-45139485D01*
X98177750Y-45101602D01*
X98112136Y-45063719D01*
X98038950Y-45044109D01*
X97965766Y-45024500D01*
X97814234Y-45024500D01*
X97667863Y-45063719D01*
X97536635Y-45139485D01*
X97536632Y-45139487D01*
X97429487Y-45246632D01*
X97429485Y-45246635D01*
X97353719Y-45377863D01*
X97339509Y-45430897D01*
X97314500Y-45524234D01*
X92685500Y-45524234D01*
X92646281Y-45377865D01*
X92570515Y-45246635D01*
X92463365Y-45139485D01*
X92397750Y-45101602D01*
X92332136Y-45063719D01*
X92258950Y-45044109D01*
X92185766Y-45024500D01*
X92034234Y-45024500D01*
X91887863Y-45063719D01*
X91756635Y-45139485D01*
X91756632Y-45139487D01*
X91649487Y-45246632D01*
X91649481Y-45246641D01*
X91634499Y-45272589D01*
X91583931Y-45320803D01*
X91515324Y-45334024D01*
X91450460Y-45308054D01*
X91412553Y-45258038D01*
X91388954Y-45201064D01*
X91388947Y-45201051D01*
X91301401Y-45070030D01*
X91301398Y-45070026D01*
X91189973Y-44958601D01*
X91189969Y-44958598D01*
X91058948Y-44871052D01*
X91058938Y-44871047D01*
X90930000Y-44817639D01*
X90930000Y-45413011D01*
X90920060Y-45395795D01*
X90864205Y-45339940D01*
X90795796Y-45300444D01*
X90719496Y-45280000D01*
X90640504Y-45280000D01*
X90564204Y-45300444D01*
X90495795Y-45339940D01*
X90439940Y-45395795D01*
X90430000Y-45413011D01*
X90430000Y-44817639D01*
X90429999Y-44817639D01*
X90301061Y-44871047D01*
X90301051Y-44871052D01*
X90170030Y-44958598D01*
X90170026Y-44958601D01*
X90058600Y-45070027D01*
X90058211Y-45070502D01*
X90057944Y-45070683D01*
X90054291Y-45074337D01*
X90053597Y-45073643D01*
X90000464Y-45109834D01*
X89930619Y-45111701D01*
X89870852Y-45075512D01*
X89854974Y-45053833D01*
X89840922Y-45029494D01*
X89820480Y-44994087D01*
X89745913Y-44919520D01*
X87186818Y-42360425D01*
X87172114Y-42333497D01*
X87155522Y-42307679D01*
X87154630Y-42301478D01*
X87153333Y-42299102D01*
X87150499Y-42272744D01*
X87150499Y-41571202D01*
X89880000Y-41571202D01*
X89880000Y-41700000D01*
X90380000Y-41700000D01*
X90380000Y-42200000D01*
X89880000Y-42200000D01*
X89880000Y-42328797D01*
X89910741Y-42483343D01*
X89910743Y-42483351D01*
X89971047Y-42628939D01*
X89971052Y-42628948D01*
X90058598Y-42759969D01*
X90058601Y-42759973D01*
X90170026Y-42871398D01*
X90170034Y-42871404D01*
X90301047Y-42958944D01*
X90301065Y-42958954D01*
X90429999Y-43012360D01*
X90430000Y-43012360D01*
X90430000Y-42416988D01*
X90439940Y-42434205D01*
X90495795Y-42490060D01*
X90564204Y-42529556D01*
X90640504Y-42550000D01*
X90719496Y-42550000D01*
X90795796Y-42529556D01*
X90864205Y-42490060D01*
X90920060Y-42434205D01*
X90930000Y-42416988D01*
X90930000Y-43012360D01*
X91058934Y-42958954D01*
X91058952Y-42958944D01*
X91189965Y-42871404D01*
X91189973Y-42871398D01*
X91301398Y-42759973D01*
X91301401Y-42759969D01*
X91388947Y-42628948D01*
X91388952Y-42628939D01*
X91449256Y-42483351D01*
X91449258Y-42483343D01*
X91479999Y-42328797D01*
X91480000Y-42328794D01*
X91480000Y-42200000D01*
X90980000Y-42200000D01*
X90980000Y-41700000D01*
X91480000Y-41700000D01*
X91480000Y-41571206D01*
X91479999Y-41571202D01*
X98520000Y-41571202D01*
X98520000Y-41700000D01*
X99020000Y-41700000D01*
X99020000Y-42200000D01*
X98520000Y-42200000D01*
X98520000Y-42328797D01*
X98550741Y-42483343D01*
X98550743Y-42483351D01*
X98611047Y-42628939D01*
X98611052Y-42628948D01*
X98698598Y-42759969D01*
X98698601Y-42759973D01*
X98810026Y-42871398D01*
X98810034Y-42871404D01*
X98941047Y-42958944D01*
X98941065Y-42958954D01*
X99069999Y-43012360D01*
X99070000Y-43012360D01*
X99070000Y-42416988D01*
X99079940Y-42434205D01*
X99135795Y-42490060D01*
X99204204Y-42529556D01*
X99280504Y-42550000D01*
X99359496Y-42550000D01*
X99435796Y-42529556D01*
X99504205Y-42490060D01*
X99560060Y-42434205D01*
X99570000Y-42416988D01*
X99570000Y-43012360D01*
X99698934Y-42958954D01*
X99698952Y-42958944D01*
X99829965Y-42871404D01*
X99829973Y-42871398D01*
X99941398Y-42759973D01*
X99941401Y-42759969D01*
X100028947Y-42628948D01*
X100028952Y-42628939D01*
X100089256Y-42483351D01*
X100089258Y-42483343D01*
X100119999Y-42328797D01*
X100120000Y-42328794D01*
X100120000Y-42200000D01*
X99620000Y-42200000D01*
X99620000Y-41700000D01*
X100120000Y-41700000D01*
X100120000Y-41571206D01*
X100119999Y-41571202D01*
X100089258Y-41416656D01*
X100089256Y-41416648D01*
X100028952Y-41271060D01*
X100028947Y-41271051D01*
X99941401Y-41140030D01*
X99941398Y-41140026D01*
X99829973Y-41028601D01*
X99829969Y-41028598D01*
X99698948Y-40941052D01*
X99698938Y-40941047D01*
X99570000Y-40887639D01*
X99570000Y-41483011D01*
X99560060Y-41465795D01*
X99504205Y-41409940D01*
X99435796Y-41370444D01*
X99359496Y-41350000D01*
X99280504Y-41350000D01*
X99204204Y-41370444D01*
X99135795Y-41409940D01*
X99079940Y-41465795D01*
X99070000Y-41483011D01*
X99070000Y-40887639D01*
X99069999Y-40887639D01*
X98941061Y-40941047D01*
X98941051Y-40941052D01*
X98810030Y-41028598D01*
X98810026Y-41028601D01*
X98698601Y-41140026D01*
X98698598Y-41140030D01*
X98611052Y-41271051D01*
X98611047Y-41271060D01*
X98550743Y-41416648D01*
X98550741Y-41416656D01*
X98520000Y-41571202D01*
X91479999Y-41571202D01*
X91449258Y-41416656D01*
X91449256Y-41416648D01*
X91388952Y-41271060D01*
X91388947Y-41271051D01*
X91301401Y-41140030D01*
X91301398Y-41140026D01*
X91189973Y-41028601D01*
X91189969Y-41028598D01*
X91058948Y-40941052D01*
X91058938Y-40941047D01*
X90930000Y-40887639D01*
X90930000Y-41483011D01*
X90920060Y-41465795D01*
X90864205Y-41409940D01*
X90795796Y-41370444D01*
X90719496Y-41350000D01*
X90640504Y-41350000D01*
X90564204Y-41370444D01*
X90495795Y-41409940D01*
X90439940Y-41465795D01*
X90430000Y-41483011D01*
X90430000Y-40887639D01*
X90429999Y-40887639D01*
X90301061Y-40941047D01*
X90301051Y-40941052D01*
X90170030Y-41028598D01*
X90170026Y-41028601D01*
X90058601Y-41140026D01*
X90058598Y-41140030D01*
X89971052Y-41271051D01*
X89971047Y-41271060D01*
X89910743Y-41416648D01*
X89910741Y-41416656D01*
X89880000Y-41571202D01*
X87150499Y-41571202D01*
X87150499Y-40845143D01*
X87150499Y-40845136D01*
X87150497Y-40845117D01*
X87147586Y-40820012D01*
X87147585Y-40820010D01*
X87147585Y-40820009D01*
X87102206Y-40717235D01*
X87097152Y-40712181D01*
X87063667Y-40650858D01*
X87068651Y-40581166D01*
X87110523Y-40525233D01*
X87175987Y-40500816D01*
X87184833Y-40500500D01*
X102815167Y-40500500D01*
X102882206Y-40520185D01*
G37*
%TD.AperFunction*%
%TA.AperFunction,Conductor*%
G36*
X85205703Y-70513203D02*
G01*
X85212181Y-70519235D01*
X85250500Y-70557554D01*
X85250505Y-70557558D01*
X85376342Y-70648983D01*
X85397006Y-70663996D01*
X85502484Y-70717740D01*
X85558360Y-70746211D01*
X85558363Y-70746212D01*
X85634486Y-70770945D01*
X85730591Y-70802171D01*
X85830046Y-70817923D01*
X85892279Y-70827780D01*
X85955414Y-70857709D01*
X85992345Y-70917021D01*
X85991347Y-70986883D01*
X85952737Y-71045116D01*
X85892279Y-71072726D01*
X85730706Y-71098317D01*
X85558555Y-71154251D01*
X85558547Y-71154254D01*
X85397269Y-71236432D01*
X85381466Y-71247912D01*
X85381466Y-71247913D01*
X85870591Y-71737037D01*
X85807007Y-71754075D01*
X85692993Y-71819901D01*
X85599901Y-71912993D01*
X85534075Y-72027007D01*
X85517037Y-72090590D01*
X85036819Y-71610372D01*
X85003334Y-71549049D01*
X85000500Y-71522691D01*
X85000500Y-70606916D01*
X85020185Y-70539877D01*
X85072989Y-70494122D01*
X85142147Y-70484178D01*
X85205703Y-70513203D01*
G37*
%TD.AperFunction*%
%TA.AperFunction,Conductor*%
G36*
X104918834Y-70490734D02*
G01*
X104974767Y-70532606D01*
X104999184Y-70598070D01*
X104999500Y-70606916D01*
X104999500Y-71522690D01*
X104979815Y-71589729D01*
X104963181Y-71610371D01*
X104482962Y-72090589D01*
X104465925Y-72027007D01*
X104400099Y-71912993D01*
X104307007Y-71819901D01*
X104192993Y-71754075D01*
X104129409Y-71737037D01*
X104618533Y-71247913D01*
X104602730Y-71236431D01*
X104441447Y-71154252D01*
X104441444Y-71154251D01*
X104269293Y-71098317D01*
X104107720Y-71072726D01*
X104044585Y-71042797D01*
X104007654Y-70983485D01*
X104008652Y-70913623D01*
X104047262Y-70855390D01*
X104107720Y-70827780D01*
X104122270Y-70825475D01*
X104269409Y-70802171D01*
X104441639Y-70746211D01*
X104602994Y-70663996D01*
X104749501Y-70557553D01*
X104787819Y-70519235D01*
X104849142Y-70485750D01*
X104918834Y-70490734D01*
G37*
%TD.AperFunction*%
%TA.AperFunction,Conductor*%
G36*
X102769333Y-59399571D02*
G01*
X102825267Y-59441442D01*
X102849684Y-59506907D01*
X102850000Y-59515753D01*
X102850000Y-59610506D01*
X102878317Y-59789293D01*
X102934251Y-59961444D01*
X102934252Y-59961447D01*
X103016431Y-60122730D01*
X103027913Y-60138532D01*
X103027913Y-60138533D01*
X103517037Y-59649408D01*
X103534075Y-59712993D01*
X103599901Y-59827007D01*
X103692993Y-59920099D01*
X103807007Y-59985925D01*
X103870590Y-60002962D01*
X103381466Y-60492085D01*
X103381466Y-60492086D01*
X103397267Y-60503566D01*
X103397275Y-60503571D01*
X103558552Y-60585747D01*
X103558555Y-60585748D01*
X103730706Y-60641682D01*
X103892279Y-60667273D01*
X103955413Y-60697202D01*
X103992345Y-60756513D01*
X103991347Y-60826376D01*
X103952738Y-60884609D01*
X103892280Y-60912219D01*
X103730589Y-60937829D01*
X103558363Y-60993787D01*
X103558360Y-60993788D01*
X103397002Y-61076006D01*
X103250505Y-61182441D01*
X103250500Y-61182445D01*
X103122445Y-61310500D01*
X103122441Y-61310505D01*
X103016006Y-61457002D01*
X102933788Y-61618360D01*
X102933787Y-61618363D01*
X102877829Y-61790589D01*
X102849500Y-61969448D01*
X102849500Y-62150551D01*
X102877829Y-62329410D01*
X102933787Y-62501636D01*
X102933788Y-62501639D01*
X103016006Y-62662997D01*
X103122441Y-62809494D01*
X103122445Y-62809499D01*
X103250500Y-62937554D01*
X103250505Y-62937558D01*
X103342586Y-63004458D01*
X103397006Y-63043996D01*
X103502484Y-63097740D01*
X103558360Y-63126211D01*
X103558363Y-63126212D01*
X103644476Y-63154191D01*
X103730591Y-63182171D01*
X103803639Y-63193740D01*
X103890678Y-63207527D01*
X103953813Y-63237456D01*
X103990744Y-63296768D01*
X103989746Y-63366631D01*
X103951136Y-63424863D01*
X103890678Y-63452473D01*
X103730589Y-63477829D01*
X103558363Y-63533787D01*
X103558360Y-63533788D01*
X103397002Y-63616006D01*
X103250505Y-63722441D01*
X103250500Y-63722445D01*
X103122445Y-63850500D01*
X103122441Y-63850505D01*
X103016006Y-63997002D01*
X102933788Y-64158360D01*
X102933787Y-64158363D01*
X102877829Y-64330589D01*
X102849500Y-64509448D01*
X102849500Y-64690551D01*
X102877829Y-64869410D01*
X102933787Y-65041636D01*
X102933788Y-65041639D01*
X103016006Y-65202997D01*
X103122441Y-65349494D01*
X103122445Y-65349499D01*
X103250500Y-65477554D01*
X103250505Y-65477558D01*
X103378287Y-65570396D01*
X103397006Y-65583996D01*
X103482012Y-65627309D01*
X103558360Y-65666211D01*
X103558363Y-65666212D01*
X103644476Y-65694191D01*
X103730591Y-65722171D01*
X103803639Y-65733740D01*
X103890678Y-65747527D01*
X103953813Y-65777456D01*
X103990744Y-65836768D01*
X103989746Y-65906631D01*
X103951136Y-65964863D01*
X103890678Y-65992473D01*
X103730589Y-66017829D01*
X103558363Y-66073787D01*
X103558360Y-66073788D01*
X103397002Y-66156006D01*
X103250505Y-66262441D01*
X103250500Y-66262445D01*
X103122445Y-66390500D01*
X103122441Y-66390505D01*
X103016006Y-66537002D01*
X102933788Y-66698360D01*
X102933787Y-66698363D01*
X102877829Y-66870589D01*
X102849500Y-67049448D01*
X102849500Y-67230551D01*
X102877829Y-67409410D01*
X102924575Y-67553281D01*
X102926570Y-67623122D01*
X102894325Y-67679280D01*
X101754087Y-68819520D01*
X100510426Y-70063181D01*
X100449103Y-70096666D01*
X100422745Y-70099500D01*
X97400100Y-70099500D01*
X97370659Y-70090855D01*
X97340673Y-70084332D01*
X97335657Y-70080577D01*
X97333061Y-70079815D01*
X97312419Y-70063181D01*
X97272511Y-70023273D01*
X97239026Y-69961950D01*
X97244010Y-69892258D01*
X97285882Y-69836325D01*
X97328092Y-69815820D01*
X97454229Y-69782022D01*
X97591161Y-69702965D01*
X97702965Y-69591161D01*
X97782022Y-69454229D01*
X97822945Y-69301502D01*
X97822945Y-69239700D01*
X97842630Y-69172661D01*
X97859264Y-69152019D01*
X98759170Y-68252113D01*
X98778606Y-68241500D01*
X98795340Y-68227000D01*
X98808671Y-68225083D01*
X98820493Y-68218628D01*
X98842579Y-68220207D01*
X98864498Y-68217056D01*
X98876749Y-68222651D01*
X98890185Y-68223612D01*
X98907911Y-68236882D01*
X98928054Y-68246081D01*
X98935336Y-68257412D01*
X98946118Y-68265484D01*
X98953855Y-68286229D01*
X98965828Y-68304859D01*
X98968979Y-68326777D01*
X98970535Y-68330948D01*
X98970851Y-68339794D01*
X98970851Y-68371253D01*
X98951166Y-68438292D01*
X98934532Y-68458934D01*
X98890832Y-68502633D01*
X98890826Y-68502641D01*
X98811777Y-68639560D01*
X98811774Y-68639567D01*
X98770851Y-68792294D01*
X98770851Y-68950408D01*
X98802526Y-69068619D01*
X98811774Y-69103134D01*
X98811777Y-69103141D01*
X98890826Y-69240060D01*
X98890830Y-69240065D01*
X98890831Y-69240067D01*
X99002635Y-69351871D01*
X99002637Y-69351872D01*
X99002641Y-69351875D01*
X99104338Y-69410589D01*
X99139567Y-69430928D01*
X99292294Y-69471851D01*
X99292296Y-69471851D01*
X99450406Y-69471851D01*
X99450408Y-69471851D01*
X99603135Y-69430928D01*
X99740067Y-69351871D01*
X99851871Y-69240067D01*
X99930928Y-69103135D01*
X99971851Y-68950408D01*
X99971851Y-68792294D01*
X99930928Y-68639567D01*
X99913338Y-68609100D01*
X99851875Y-68502641D01*
X99851869Y-68502633D01*
X99808170Y-68458934D01*
X99774685Y-68397611D01*
X99771851Y-68371253D01*
X99771851Y-61675971D01*
X99773019Y-61658991D01*
X99774075Y-61651344D01*
X99800500Y-61552727D01*
X99800500Y-61460195D01*
X99801668Y-61451746D01*
X99812649Y-61427350D01*
X99820185Y-61401687D01*
X99829283Y-61390395D01*
X99830347Y-61388034D01*
X99832112Y-61386885D01*
X99836819Y-61381045D01*
X100781045Y-60436819D01*
X100842368Y-60403334D01*
X100868726Y-60400500D01*
X101552725Y-60400500D01*
X101552727Y-60400500D01*
X101654588Y-60373207D01*
X101745913Y-60320480D01*
X102638319Y-59428071D01*
X102699642Y-59394587D01*
X102769333Y-59399571D01*
G37*
%TD.AperFunction*%
%TA.AperFunction,Conductor*%
G36*
X86539281Y-55545674D02*
G01*
X86902705Y-55909098D01*
X86936190Y-55970421D01*
X86931206Y-56040113D01*
X86905091Y-56074996D01*
X86925354Y-56055305D01*
X86993832Y-56041430D01*
X87058941Y-56066779D01*
X87070901Y-56077294D01*
X87314087Y-56320480D01*
X87405412Y-56373207D01*
X87507273Y-56400500D01*
X87612727Y-56400500D01*
X88651373Y-56400500D01*
X88718412Y-56420185D01*
X88739054Y-56436819D01*
X89763181Y-57460946D01*
X89796666Y-57522269D01*
X89799500Y-57548627D01*
X89799500Y-63017059D01*
X89779815Y-63084098D01*
X89763181Y-63104740D01*
X88245208Y-64622712D01*
X88245204Y-64622718D01*
X88192478Y-64714040D01*
X88192479Y-64714041D01*
X88165186Y-64815901D01*
X88165186Y-69799431D01*
X88158947Y-69820676D01*
X88157368Y-69842765D01*
X88149295Y-69853548D01*
X88145501Y-69866470D01*
X88128767Y-69880969D01*
X88115496Y-69898698D01*
X88102875Y-69903405D01*
X88092697Y-69912225D01*
X88070779Y-69915376D01*
X88050032Y-69923115D01*
X88036871Y-69920252D01*
X88023539Y-69922169D01*
X88003395Y-69912969D01*
X87981759Y-69908263D01*
X87964033Y-69894994D01*
X87959983Y-69893144D01*
X87953505Y-69887112D01*
X87936819Y-69870426D01*
X87903334Y-69809103D01*
X87900500Y-69782745D01*
X87900500Y-63507275D01*
X87900500Y-63507273D01*
X87873207Y-63405413D01*
X87820480Y-63314087D01*
X87745913Y-63239520D01*
X87105674Y-62599281D01*
X87072189Y-62537958D01*
X87075423Y-62473284D01*
X87122171Y-62329409D01*
X87125626Y-62307593D01*
X87150500Y-62150551D01*
X87150500Y-61969448D01*
X87134019Y-61865397D01*
X87122171Y-61790591D01*
X87066211Y-61618361D01*
X87066211Y-61618360D01*
X87032769Y-61552727D01*
X86983996Y-61457006D01*
X86933885Y-61388034D01*
X86877558Y-61310505D01*
X86877554Y-61310500D01*
X86749499Y-61182445D01*
X86749494Y-61182441D01*
X86602997Y-61076006D01*
X86602996Y-61076005D01*
X86602994Y-61076004D01*
X86551300Y-61049664D01*
X86441639Y-60993788D01*
X86441636Y-60993787D01*
X86269410Y-60937828D01*
X86107720Y-60912219D01*
X86044585Y-60882289D01*
X86007654Y-60822978D01*
X86008652Y-60753115D01*
X86047262Y-60694883D01*
X86107721Y-60667273D01*
X86269292Y-60641683D01*
X86441444Y-60585748D01*
X86441452Y-60585745D01*
X86602730Y-60503568D01*
X86618532Y-60492085D01*
X86618533Y-60492085D01*
X86129410Y-60002962D01*
X86192993Y-59985925D01*
X86307007Y-59920099D01*
X86400099Y-59827007D01*
X86465925Y-59712993D01*
X86482962Y-59649410D01*
X86972085Y-60138533D01*
X86972085Y-60138532D01*
X86983568Y-60122730D01*
X87065745Y-59961452D01*
X87065748Y-59961444D01*
X87121682Y-59789293D01*
X87150000Y-59610506D01*
X87150000Y-59429493D01*
X87121682Y-59250706D01*
X87065748Y-59078555D01*
X87065747Y-59078552D01*
X86983571Y-58917275D01*
X86983566Y-58917267D01*
X86972085Y-58901466D01*
X86482962Y-59390589D01*
X86465925Y-59327007D01*
X86400099Y-59212993D01*
X86307007Y-59119901D01*
X86192993Y-59054075D01*
X86129409Y-59037037D01*
X86618533Y-58547913D01*
X86602730Y-58536431D01*
X86441447Y-58454252D01*
X86441444Y-58454251D01*
X86269293Y-58398317D01*
X86107720Y-58372726D01*
X86044585Y-58342797D01*
X86007654Y-58283485D01*
X86008652Y-58213623D01*
X86047262Y-58155390D01*
X86107720Y-58127780D01*
X86122270Y-58125475D01*
X86269409Y-58102171D01*
X86441639Y-58046211D01*
X86602994Y-57963996D01*
X86749501Y-57857553D01*
X86877553Y-57729501D01*
X86983996Y-57582994D01*
X87066211Y-57421639D01*
X87122171Y-57249409D01*
X87136765Y-57157259D01*
X87150500Y-57070551D01*
X87150500Y-56889448D01*
X87134019Y-56785397D01*
X87122171Y-56710591D01*
X87066211Y-56538361D01*
X87066211Y-56538360D01*
X87031114Y-56469480D01*
X86983996Y-56377006D01*
X86942927Y-56320479D01*
X86882902Y-56237860D01*
X86859422Y-56172054D01*
X86875248Y-56104000D01*
X86879756Y-56099618D01*
X86823870Y-56120463D01*
X86755597Y-56105611D01*
X86742139Y-56097097D01*
X86602997Y-55996006D01*
X86602996Y-55996005D01*
X86602994Y-55996004D01*
X86551300Y-55969664D01*
X86441639Y-55913788D01*
X86441636Y-55913787D01*
X86269410Y-55857829D01*
X86109321Y-55832473D01*
X86046186Y-55802544D01*
X86009255Y-55743232D01*
X86010253Y-55673370D01*
X86048863Y-55615137D01*
X86109321Y-55587527D01*
X86269409Y-55562171D01*
X86320182Y-55545674D01*
X86413284Y-55515423D01*
X86483123Y-55513429D01*
X86539281Y-55545674D01*
G37*
%TD.AperFunction*%
%TA.AperFunction,Conductor*%
G36*
X104963181Y-60129628D02*
G01*
X104996666Y-60190951D01*
X104999500Y-60217309D01*
X104999500Y-61133084D01*
X104979815Y-61200123D01*
X104927011Y-61245878D01*
X104857853Y-61255822D01*
X104794297Y-61226797D01*
X104787819Y-61220765D01*
X104749499Y-61182445D01*
X104749494Y-61182441D01*
X104602997Y-61076006D01*
X104602996Y-61076005D01*
X104602994Y-61076004D01*
X104551300Y-61049664D01*
X104441639Y-60993788D01*
X104441636Y-60993787D01*
X104269410Y-60937828D01*
X104107720Y-60912219D01*
X104044585Y-60882289D01*
X104007654Y-60822978D01*
X104008652Y-60753115D01*
X104047262Y-60694883D01*
X104107721Y-60667273D01*
X104269292Y-60641683D01*
X104441444Y-60585748D01*
X104441452Y-60585745D01*
X104602730Y-60503568D01*
X104618532Y-60492085D01*
X104618533Y-60492085D01*
X104129410Y-60002962D01*
X104192993Y-59985925D01*
X104307007Y-59920099D01*
X104400099Y-59827007D01*
X104465925Y-59712993D01*
X104482962Y-59649409D01*
X104963181Y-60129628D01*
G37*
%TD.AperFunction*%
%TA.AperFunction,Conductor*%
G36*
X85534075Y-59712993D02*
G01*
X85599901Y-59827007D01*
X85692993Y-59920099D01*
X85807007Y-59985925D01*
X85870590Y-60002962D01*
X85381466Y-60492085D01*
X85381466Y-60492086D01*
X85397267Y-60503566D01*
X85397275Y-60503571D01*
X85558552Y-60585747D01*
X85558555Y-60585748D01*
X85730706Y-60641682D01*
X85892279Y-60667273D01*
X85955413Y-60697202D01*
X85992345Y-60756513D01*
X85991347Y-60826376D01*
X85952738Y-60884609D01*
X85892280Y-60912219D01*
X85730589Y-60937829D01*
X85558363Y-60993787D01*
X85558360Y-60993788D01*
X85397002Y-61076006D01*
X85250505Y-61182441D01*
X85250500Y-61182445D01*
X85212181Y-61220765D01*
X85150858Y-61254250D01*
X85081166Y-61249266D01*
X85025233Y-61207394D01*
X85000816Y-61141930D01*
X85000500Y-61133084D01*
X85000500Y-60217309D01*
X85020185Y-60150270D01*
X85036819Y-60129628D01*
X85517037Y-59649409D01*
X85534075Y-59712993D01*
G37*
%TD.AperFunction*%
%TA.AperFunction,Conductor*%
G36*
X85205703Y-57813203D02*
G01*
X85212181Y-57819235D01*
X85250500Y-57857554D01*
X85250505Y-57857558D01*
X85378287Y-57950396D01*
X85397006Y-57963996D01*
X85478507Y-58005523D01*
X85558360Y-58046211D01*
X85558363Y-58046212D01*
X85640777Y-58072989D01*
X85730591Y-58102171D01*
X85850038Y-58121089D01*
X85892279Y-58127780D01*
X85955414Y-58157709D01*
X85992345Y-58217021D01*
X85991347Y-58286883D01*
X85952737Y-58345116D01*
X85892279Y-58372726D01*
X85730706Y-58398317D01*
X85558555Y-58454251D01*
X85558547Y-58454254D01*
X85397269Y-58536432D01*
X85381466Y-58547912D01*
X85381466Y-58547913D01*
X85870591Y-59037037D01*
X85807007Y-59054075D01*
X85692993Y-59119901D01*
X85599901Y-59212993D01*
X85534075Y-59327007D01*
X85517037Y-59390590D01*
X85036819Y-58910372D01*
X85003334Y-58849049D01*
X85000500Y-58822691D01*
X85000500Y-57906916D01*
X85020185Y-57839877D01*
X85072989Y-57794122D01*
X85142147Y-57784178D01*
X85205703Y-57813203D01*
G37*
%TD.AperFunction*%
%TA.AperFunction,Conductor*%
G36*
X103038558Y-57683427D02*
G01*
X103042147Y-57682912D01*
X103070869Y-57696029D01*
X103100277Y-57707498D01*
X103103696Y-57711020D01*
X103105703Y-57711937D01*
X103118788Y-57726203D01*
X103119275Y-57725788D01*
X103122445Y-57729499D01*
X103250500Y-57857554D01*
X103250505Y-57857558D01*
X103378287Y-57950396D01*
X103397006Y-57963996D01*
X103478507Y-58005523D01*
X103558360Y-58046211D01*
X103558363Y-58046212D01*
X103640777Y-58072989D01*
X103730591Y-58102171D01*
X103850038Y-58121089D01*
X103892279Y-58127780D01*
X103955414Y-58157709D01*
X103992345Y-58217021D01*
X103991347Y-58286883D01*
X103952737Y-58345116D01*
X103892279Y-58372726D01*
X103730706Y-58398317D01*
X103558555Y-58454251D01*
X103558547Y-58454254D01*
X103397269Y-58536432D01*
X103381466Y-58547912D01*
X103381466Y-58547913D01*
X103870591Y-59037037D01*
X103807007Y-59054075D01*
X103692993Y-59119901D01*
X103599901Y-59212993D01*
X103534075Y-59327007D01*
X103517037Y-59390590D01*
X103025604Y-58899157D01*
X102965852Y-58886605D01*
X102916095Y-58837553D01*
X102900500Y-58777351D01*
X102900500Y-57805650D01*
X102909394Y-57775360D01*
X102916563Y-57744613D01*
X102919163Y-57742088D01*
X102920185Y-57738611D01*
X102944035Y-57717944D01*
X102966696Y-57695947D01*
X102970250Y-57695228D01*
X102972989Y-57692856D01*
X103004232Y-57688363D01*
X103035182Y-57682111D01*
X103038558Y-57683427D01*
G37*
%TD.AperFunction*%
%TA.AperFunction,Conductor*%
G36*
X104918834Y-57790734D02*
G01*
X104974767Y-57832606D01*
X104999184Y-57898070D01*
X104999500Y-57906916D01*
X104999500Y-58822690D01*
X104979815Y-58889729D01*
X104963181Y-58910371D01*
X104482962Y-59390589D01*
X104465925Y-59327007D01*
X104400099Y-59212993D01*
X104307007Y-59119901D01*
X104192993Y-59054075D01*
X104129409Y-59037037D01*
X104618533Y-58547913D01*
X104602730Y-58536431D01*
X104441447Y-58454252D01*
X104441444Y-58454251D01*
X104269293Y-58398317D01*
X104107720Y-58372726D01*
X104044585Y-58342797D01*
X104007654Y-58283485D01*
X104008652Y-58213623D01*
X104047262Y-58155390D01*
X104107720Y-58127780D01*
X104122270Y-58125475D01*
X104269409Y-58102171D01*
X104441639Y-58046211D01*
X104602994Y-57963996D01*
X104749501Y-57857553D01*
X104787819Y-57819235D01*
X104849142Y-57785750D01*
X104918834Y-57790734D01*
G37*
%TD.AperFunction*%
%TA.AperFunction,Conductor*%
G36*
X103586712Y-45355422D02*
G01*
X103730591Y-45402171D01*
X103856214Y-45422067D01*
X103892279Y-45427780D01*
X103955414Y-45457709D01*
X103992345Y-45517021D01*
X103991347Y-45586883D01*
X103952737Y-45645116D01*
X103892279Y-45672726D01*
X103730706Y-45698317D01*
X103558555Y-45754251D01*
X103558547Y-45754254D01*
X103397269Y-45836432D01*
X103381466Y-45847912D01*
X103381466Y-45847913D01*
X103870591Y-46337037D01*
X103807007Y-46354075D01*
X103692993Y-46419901D01*
X103599901Y-46512993D01*
X103534075Y-46627007D01*
X103517037Y-46690590D01*
X103027912Y-46201466D01*
X103016432Y-46217269D01*
X102934254Y-46378547D01*
X102934251Y-46378555D01*
X102878317Y-46550706D01*
X102850000Y-46729493D01*
X102850000Y-46910506D01*
X102878317Y-47089293D01*
X102934251Y-47261444D01*
X102934252Y-47261447D01*
X103016431Y-47422730D01*
X103027913Y-47438532D01*
X103027913Y-47438533D01*
X103517037Y-46949408D01*
X103534075Y-47012993D01*
X103599901Y-47127007D01*
X103692993Y-47220099D01*
X103807007Y-47285925D01*
X103870590Y-47302962D01*
X103381466Y-47792085D01*
X103381466Y-47792086D01*
X103397267Y-47803566D01*
X103397275Y-47803571D01*
X103558552Y-47885747D01*
X103558555Y-47885748D01*
X103730706Y-47941682D01*
X103892279Y-47967273D01*
X103955413Y-47997202D01*
X103992345Y-48056513D01*
X103991347Y-48126376D01*
X103952738Y-48184609D01*
X103892280Y-48212219D01*
X103730589Y-48237829D01*
X103558363Y-48293787D01*
X103558360Y-48293788D01*
X103397002Y-48376006D01*
X103250505Y-48482441D01*
X103250500Y-48482445D01*
X103122445Y-48610500D01*
X103122441Y-48610505D01*
X103016006Y-48757002D01*
X102933788Y-48918360D01*
X102933787Y-48918363D01*
X102877829Y-49090589D01*
X102849500Y-49269448D01*
X102849500Y-49450551D01*
X102877829Y-49629410D01*
X102933787Y-49801636D01*
X102933788Y-49801639D01*
X103016006Y-49962997D01*
X103122441Y-50109494D01*
X103122445Y-50109499D01*
X103250500Y-50237554D01*
X103250505Y-50237558D01*
X103378287Y-50330396D01*
X103397006Y-50343996D01*
X103502484Y-50397740D01*
X103558360Y-50426211D01*
X103558363Y-50426212D01*
X103644476Y-50454191D01*
X103730591Y-50482171D01*
X103803639Y-50493740D01*
X103890678Y-50507527D01*
X103953813Y-50537456D01*
X103990744Y-50596768D01*
X103989746Y-50666631D01*
X103951136Y-50724863D01*
X103890678Y-50752473D01*
X103730589Y-50777829D01*
X103558363Y-50833787D01*
X103558360Y-50833788D01*
X103397002Y-50916006D01*
X103250505Y-51022441D01*
X103250500Y-51022445D01*
X103122445Y-51150500D01*
X103122441Y-51150505D01*
X103016006Y-51297002D01*
X102933788Y-51458360D01*
X102933787Y-51458363D01*
X102877829Y-51630589D01*
X102849500Y-51809448D01*
X102849500Y-51990551D01*
X102877829Y-52169412D01*
X102924575Y-52313283D01*
X102926570Y-52383124D01*
X102894325Y-52439281D01*
X102712181Y-52621425D01*
X102650858Y-52654910D01*
X102581166Y-52649926D01*
X102525233Y-52608054D01*
X102500816Y-52542590D01*
X102500500Y-52533744D01*
X102500500Y-46397253D01*
X102520185Y-46330214D01*
X102536814Y-46309576D01*
X103460719Y-45385671D01*
X103522040Y-45352188D01*
X103586712Y-45355422D01*
G37*
%TD.AperFunction*%
%TA.AperFunction,Conductor*%
G36*
X86599783Y-42910184D02*
G01*
X86620425Y-42926818D01*
X86902705Y-43209098D01*
X86936190Y-43270421D01*
X86931206Y-43340113D01*
X86905091Y-43374996D01*
X86925354Y-43355305D01*
X86993832Y-43341430D01*
X87058941Y-43366779D01*
X87070901Y-43377294D01*
X89063181Y-45369574D01*
X89096666Y-45430897D01*
X89099500Y-45457255D01*
X89099500Y-51634589D01*
X89079815Y-51701628D01*
X89027011Y-51747383D01*
X88957853Y-51757327D01*
X88894297Y-51728302D01*
X88868113Y-51696589D01*
X88820482Y-51614090D01*
X88820477Y-51614084D01*
X87105674Y-49899281D01*
X87072189Y-49837958D01*
X87075423Y-49773284D01*
X87122171Y-49629409D01*
X87150500Y-49450551D01*
X87150500Y-49269448D01*
X87134019Y-49165397D01*
X87122171Y-49090591D01*
X87066211Y-48918361D01*
X87066211Y-48918360D01*
X87037740Y-48862484D01*
X86983996Y-48757006D01*
X86970396Y-48738287D01*
X86877558Y-48610505D01*
X86877554Y-48610500D01*
X86749499Y-48482445D01*
X86749494Y-48482441D01*
X86602997Y-48376006D01*
X86602996Y-48376005D01*
X86602994Y-48376004D01*
X86551300Y-48349664D01*
X86441639Y-48293788D01*
X86441636Y-48293787D01*
X86269410Y-48237828D01*
X86107720Y-48212219D01*
X86044585Y-48182289D01*
X86007654Y-48122978D01*
X86008652Y-48053115D01*
X86047262Y-47994883D01*
X86107721Y-47967273D01*
X86269292Y-47941683D01*
X86441444Y-47885748D01*
X86441452Y-47885745D01*
X86602730Y-47803568D01*
X86618532Y-47792085D01*
X86618533Y-47792085D01*
X86129410Y-47302962D01*
X86192993Y-47285925D01*
X86307007Y-47220099D01*
X86400099Y-47127007D01*
X86465925Y-47012993D01*
X86482962Y-46949410D01*
X86972085Y-47438533D01*
X86972085Y-47438532D01*
X86983568Y-47422730D01*
X87065745Y-47261452D01*
X87065748Y-47261444D01*
X87121682Y-47089293D01*
X87150000Y-46910506D01*
X87150000Y-46729493D01*
X87121682Y-46550706D01*
X87065748Y-46378555D01*
X87065747Y-46378552D01*
X86983571Y-46217275D01*
X86983566Y-46217267D01*
X86972085Y-46201466D01*
X86482962Y-46690589D01*
X86465925Y-46627007D01*
X86400099Y-46512993D01*
X86307007Y-46419901D01*
X86192993Y-46354075D01*
X86129409Y-46337037D01*
X86618533Y-45847913D01*
X86602730Y-45836431D01*
X86441447Y-45754252D01*
X86441444Y-45754251D01*
X86269293Y-45698317D01*
X86107720Y-45672726D01*
X86044585Y-45642797D01*
X86007654Y-45583485D01*
X86008652Y-45513623D01*
X86047262Y-45455390D01*
X86107720Y-45427780D01*
X86122270Y-45425475D01*
X86269409Y-45402171D01*
X86441639Y-45346211D01*
X86602994Y-45263996D01*
X86749501Y-45157553D01*
X86877553Y-45029501D01*
X86983996Y-44882994D01*
X87066211Y-44721639D01*
X87122171Y-44549409D01*
X87136765Y-44457259D01*
X87150500Y-44370551D01*
X87150500Y-44189448D01*
X87134019Y-44085397D01*
X87122171Y-44010591D01*
X87066211Y-43838361D01*
X87066211Y-43838360D01*
X87037740Y-43782484D01*
X86983996Y-43677006D01*
X86974894Y-43664479D01*
X86882902Y-43537860D01*
X86859422Y-43472054D01*
X86875248Y-43404000D01*
X86879756Y-43399618D01*
X86823870Y-43420463D01*
X86755597Y-43405611D01*
X86742139Y-43397097D01*
X86602997Y-43296006D01*
X86602996Y-43296005D01*
X86602994Y-43296004D01*
X86551300Y-43269664D01*
X86441639Y-43213788D01*
X86441636Y-43213787D01*
X86269410Y-43157829D01*
X86137728Y-43136972D01*
X86074593Y-43107042D01*
X86037662Y-43047731D01*
X86038660Y-42977868D01*
X86077270Y-42919636D01*
X86141234Y-42891522D01*
X86157121Y-42890499D01*
X86532744Y-42890499D01*
X86599783Y-42910184D01*
G37*
%TD.AperFunction*%
%TA.AperFunction,Conductor*%
G36*
X104963181Y-47429628D02*
G01*
X104996666Y-47490951D01*
X104999500Y-47517309D01*
X104999500Y-48433084D01*
X104979815Y-48500123D01*
X104927011Y-48545878D01*
X104857853Y-48555822D01*
X104794297Y-48526797D01*
X104787819Y-48520765D01*
X104749499Y-48482445D01*
X104749494Y-48482441D01*
X104602997Y-48376006D01*
X104602996Y-48376005D01*
X104602994Y-48376004D01*
X104551300Y-48349664D01*
X104441639Y-48293788D01*
X104441636Y-48293787D01*
X104269410Y-48237828D01*
X104107720Y-48212219D01*
X104044585Y-48182289D01*
X104007654Y-48122978D01*
X104008652Y-48053115D01*
X104047262Y-47994883D01*
X104107721Y-47967273D01*
X104269292Y-47941683D01*
X104441444Y-47885748D01*
X104441452Y-47885745D01*
X104602730Y-47803568D01*
X104618532Y-47792085D01*
X104618533Y-47792085D01*
X104129410Y-47302962D01*
X104192993Y-47285925D01*
X104307007Y-47220099D01*
X104400099Y-47127007D01*
X104465925Y-47012993D01*
X104482962Y-46949409D01*
X104963181Y-47429628D01*
G37*
%TD.AperFunction*%
%TA.AperFunction,Conductor*%
G36*
X85534075Y-47012993D02*
G01*
X85599901Y-47127007D01*
X85692993Y-47220099D01*
X85807007Y-47285925D01*
X85870590Y-47302962D01*
X85381466Y-47792085D01*
X85381466Y-47792086D01*
X85397267Y-47803566D01*
X85397275Y-47803571D01*
X85558552Y-47885747D01*
X85558555Y-47885748D01*
X85730706Y-47941682D01*
X85892279Y-47967273D01*
X85955413Y-47997202D01*
X85992345Y-48056513D01*
X85991347Y-48126376D01*
X85952738Y-48184609D01*
X85892280Y-48212219D01*
X85730589Y-48237829D01*
X85558363Y-48293787D01*
X85558360Y-48293788D01*
X85397002Y-48376006D01*
X85250505Y-48482441D01*
X85250500Y-48482445D01*
X85212181Y-48520765D01*
X85150858Y-48554250D01*
X85081166Y-48549266D01*
X85025233Y-48507394D01*
X85000816Y-48441930D01*
X85000500Y-48433084D01*
X85000500Y-47517309D01*
X85020185Y-47450270D01*
X85036819Y-47429628D01*
X85517037Y-46949409D01*
X85534075Y-47012993D01*
G37*
%TD.AperFunction*%
%TA.AperFunction,Conductor*%
G36*
X85205703Y-45113203D02*
G01*
X85212181Y-45119235D01*
X85250500Y-45157554D01*
X85250505Y-45157558D01*
X85373119Y-45246641D01*
X85397006Y-45263996D01*
X85468539Y-45300444D01*
X85558360Y-45346211D01*
X85558363Y-45346212D01*
X85630266Y-45369574D01*
X85730591Y-45402171D01*
X85850038Y-45421089D01*
X85892279Y-45427780D01*
X85955414Y-45457709D01*
X85992345Y-45517021D01*
X85991347Y-45586883D01*
X85952737Y-45645116D01*
X85892279Y-45672726D01*
X85730706Y-45698317D01*
X85558555Y-45754251D01*
X85558547Y-45754254D01*
X85397269Y-45836432D01*
X85381466Y-45847912D01*
X85381466Y-45847913D01*
X85870591Y-46337037D01*
X85807007Y-46354075D01*
X85692993Y-46419901D01*
X85599901Y-46512993D01*
X85534075Y-46627007D01*
X85517037Y-46690590D01*
X85036819Y-46210372D01*
X85003334Y-46149049D01*
X85000500Y-46122691D01*
X85000500Y-45206916D01*
X85020185Y-45139877D01*
X85072989Y-45094122D01*
X85142147Y-45084178D01*
X85205703Y-45113203D01*
G37*
%TD.AperFunction*%
%TA.AperFunction,Conductor*%
G36*
X104918834Y-45090734D02*
G01*
X104974767Y-45132606D01*
X104999184Y-45198070D01*
X104999500Y-45206916D01*
X104999500Y-46122690D01*
X104979815Y-46189729D01*
X104963181Y-46210371D01*
X104482962Y-46690589D01*
X104465925Y-46627007D01*
X104400099Y-46512993D01*
X104307007Y-46419901D01*
X104192993Y-46354075D01*
X104129409Y-46337037D01*
X104618533Y-45847913D01*
X104602730Y-45836431D01*
X104441447Y-45754252D01*
X104441444Y-45754251D01*
X104269293Y-45698317D01*
X104107720Y-45672726D01*
X104044585Y-45642797D01*
X104007654Y-45583485D01*
X104008652Y-45513623D01*
X104047262Y-45455390D01*
X104107720Y-45427780D01*
X104122270Y-45425475D01*
X104269409Y-45402171D01*
X104441639Y-45346211D01*
X104602994Y-45263996D01*
X104749501Y-45157553D01*
X104787819Y-45119235D01*
X104849142Y-45085750D01*
X104918834Y-45090734D01*
G37*
%TD.AperFunction*%
%TD*%
M02*
