%TF.GenerationSoftware,KiCad,Pcbnew,10.0.1*%
%TF.CreationDate,2026-07-19T00:05:55+03:00*%
%TF.ProjectId,devyboardy,64657679-626f-4617-9264-792e6b696361,rev?*%
%TF.SameCoordinates,Original*%
%TF.FileFunction,Copper,L1,Top*%
%TF.FilePolarity,Positive*%
%FSLAX46Y46*%
G04 Gerber Fmt 4.6, Leading zero omitted, Abs format (unit mm)*
G04 Created by KiCad (PCBNEW 10.0.1) date 2026-07-19 00:05:55*
%MOMM*%
%LPD*%
G01*
G04 APERTURE LIST*
G04 Aperture macros list*
%AMRoundRect*
0 Rectangle with rounded corners*
0 $1 Rounding radius*
0 $2 $3 $4 $5 $6 $7 $8 $9 X,Y pos of 4 corners*
0 Add a 4 corners polygon primitive as box body*
4,1,4,$2,$3,$4,$5,$6,$7,$8,$9,$2,$3,0*
0 Add four circle primitives for the rounded corners*
1,1,$1+$1,$2,$3*
1,1,$1+$1,$4,$5*
1,1,$1+$1,$6,$7*
1,1,$1+$1,$8,$9*
0 Add four rect primitives between the rounded corners*
20,1,$1+$1,$2,$3,$4,$5,0*
20,1,$1+$1,$4,$5,$6,$7,0*
20,1,$1+$1,$6,$7,$8,$9,0*
20,1,$1+$1,$8,$9,$2,$3,0*%
G04 Aperture macros list end*
%TA.AperFunction,HeatsinkPad*%
%ADD10R,0.200000X1.600000*%
%TD*%
%TA.AperFunction,SMDPad,CuDef*%
%ADD11RoundRect,0.062500X-0.387500X-0.062500X0.387500X-0.062500X0.387500X0.062500X-0.387500X0.062500X0*%
%TD*%
%TA.AperFunction,SMDPad,CuDef*%
%ADD12RoundRect,0.140000X0.170000X-0.140000X0.170000X0.140000X-0.170000X0.140000X-0.170000X-0.140000X0*%
%TD*%
%TA.AperFunction,SMDPad,CuDef*%
%ADD13RoundRect,0.135000X-0.135000X-0.185000X0.135000X-0.185000X0.135000X0.185000X-0.135000X0.185000X0*%
%TD*%
%TA.AperFunction,ComponentPad*%
%ADD14R,1.700000X1.700000*%
%TD*%
%TA.AperFunction,ComponentPad*%
%ADD15C,1.700000*%
%TD*%
%TA.AperFunction,SMDPad,CuDef*%
%ADD16RoundRect,0.135000X0.185000X-0.135000X0.185000X0.135000X-0.185000X0.135000X-0.185000X-0.135000X0*%
%TD*%
%TA.AperFunction,SMDPad,CuDef*%
%ADD17RoundRect,0.140000X-0.170000X0.140000X-0.170000X-0.140000X0.170000X-0.140000X0.170000X0.140000X0*%
%TD*%
%TA.AperFunction,SMDPad,CuDef*%
%ADD18RoundRect,0.050000X-0.387500X-0.050000X0.387500X-0.050000X0.387500X0.050000X-0.387500X0.050000X0*%
%TD*%
%TA.AperFunction,SMDPad,CuDef*%
%ADD19RoundRect,0.050000X-0.050000X-0.387500X0.050000X-0.387500X0.050000X0.387500X-0.050000X0.387500X0*%
%TD*%
%TA.AperFunction,HeatsinkPad*%
%ADD20R,3.200000X3.200000*%
%TD*%
%TA.AperFunction,SMDPad,CuDef*%
%ADD21RoundRect,0.140000X-0.140000X-0.170000X0.140000X-0.170000X0.140000X0.170000X-0.140000X0.170000X0*%
%TD*%
%TA.AperFunction,SMDPad,CuDef*%
%ADD22RoundRect,0.200000X-0.200000X-0.800000X0.200000X-0.800000X0.200000X0.800000X-0.200000X0.800000X0*%
%TD*%
%TA.AperFunction,SMDPad,CuDef*%
%ADD23RoundRect,0.135000X-0.185000X0.135000X-0.185000X-0.135000X0.185000X-0.135000X0.185000X0.135000X0*%
%TD*%
%TA.AperFunction,SMDPad,CuDef*%
%ADD24RoundRect,0.225000X0.225000X0.250000X-0.225000X0.250000X-0.225000X-0.250000X0.225000X-0.250000X0*%
%TD*%
%TA.AperFunction,SMDPad,CuDef*%
%ADD25RoundRect,0.140000X0.140000X0.170000X-0.140000X0.170000X-0.140000X-0.170000X0.140000X-0.170000X0*%
%TD*%
%TA.AperFunction,SMDPad,CuDef*%
%ADD26RoundRect,0.218750X-0.218750X-0.256250X0.218750X-0.256250X0.218750X0.256250X-0.218750X0.256250X0*%
%TD*%
%TA.AperFunction,SMDPad,CuDef*%
%ADD27RoundRect,0.150000X0.150000X-0.587500X0.150000X0.587500X-0.150000X0.587500X-0.150000X-0.587500X0*%
%TD*%
%TA.AperFunction,SMDPad,CuDef*%
%ADD28RoundRect,0.250000X-0.450000X-0.350000X0.450000X-0.350000X0.450000X0.350000X-0.450000X0.350000X0*%
%TD*%
%TA.AperFunction,SMDPad,CuDef*%
%ADD29RoundRect,0.150000X0.150000X0.575000X-0.150000X0.575000X-0.150000X-0.575000X0.150000X-0.575000X0*%
%TD*%
%TA.AperFunction,SMDPad,CuDef*%
%ADD30RoundRect,0.075000X0.075000X0.650000X-0.075000X0.650000X-0.075000X-0.650000X0.075000X-0.650000X0*%
%TD*%
%TA.AperFunction,ComponentPad*%
%ADD31O,1.000000X2.100000*%
%TD*%
%TA.AperFunction,ComponentPad*%
%ADD32O,1.000000X1.600000*%
%TD*%
%TA.AperFunction,SMDPad,CuDef*%
%ADD33RoundRect,0.075000X-0.350000X-0.075000X0.350000X-0.075000X0.350000X0.075000X-0.350000X0.075000X0*%
%TD*%
%TA.AperFunction,SMDPad,CuDef*%
%ADD34RoundRect,0.075000X0.075000X-0.350000X0.075000X0.350000X-0.075000X0.350000X-0.075000X-0.350000X0*%
%TD*%
%TA.AperFunction,ViaPad*%
%ADD35C,0.600000*%
%TD*%
%TA.AperFunction,Conductor*%
%ADD36C,0.200000*%
%TD*%
G04 APERTURE END LIST*
D10*
%TO.P,U3,9*%
%TO.N,N/C*%
X92575000Y-62250000D03*
D11*
%TO.P,U3,8,VCC_8*%
%TO.N,+3V3*%
X94000000Y-61500000D03*
%TO.P,U3,7,~{HOLD}/~{RESET}/IO_{3}_7*%
%TO.N,QSPI_SD3*%
X94000000Y-62000000D03*
%TO.P,U3,6,CLK_6*%
%TO.N,QSPI_SCLK*%
X94000000Y-62500000D03*
%TO.P,U3,5,DI/IO_{0}_5*%
%TO.N,QSPI_SD0*%
X94000000Y-63000000D03*
%TO.P,U3,4,GND_4*%
%TO.N,GND*%
X91150000Y-63000000D03*
%TO.P,U3,3,~{WP}/IO_{2}_3*%
%TO.N,QSPI_SD2*%
X91150000Y-62500000D03*
%TO.P,U3,2,DO/IO_{1}_2*%
%TO.N,QSPI_SD1*%
X91150000Y-62000000D03*
%TO.P,U3,1,~{CS}_1*%
%TO.N,QSPI_SS*%
X91150000Y-61500000D03*
%TD*%
D12*
%TO.P,C7,2*%
%TO.N,GND*%
X96750000Y-60500000D03*
%TO.P,C7,1*%
%TO.N,+3V3*%
X96750000Y-61460000D03*
%TD*%
%TO.P,C8,2*%
%TO.N,GND*%
X97750000Y-60520000D03*
%TO.P,C8,1*%
%TO.N,+3V3*%
X97750000Y-61480000D03*
%TD*%
D13*
%TO.P,R9,2*%
%TO.N,Net-(U2-SDA)*%
X98145000Y-52500000D03*
%TO.P,R9,1*%
%TO.N,+3V3*%
X97125000Y-52500000D03*
%TD*%
%TO.P,R10,2*%
%TO.N,Net-(U2-SCL)*%
X101020000Y-52500000D03*
%TO.P,R10,1*%
%TO.N,+3V3*%
X100000000Y-52500000D03*
%TD*%
D14*
%TO.P,J4,1,Pin_1_1*%
%TO.N,SWCLK*%
X91960000Y-90000000D03*
D15*
%TO.P,J4,2,Pin_2_2*%
%TO.N,GND*%
X94500000Y-90000000D03*
%TO.P,J4,3,Pin_3_3*%
%TO.N,SWD*%
X97040000Y-90000000D03*
%TD*%
D16*
%TO.P,R6,1*%
%TO.N,Net-(R6-Pad1)*%
X96500000Y-87020000D03*
%TO.P,R6,2*%
%TO.N,QSPI_SS*%
X96500000Y-86000000D03*
%TD*%
D17*
%TO.P,C11,1*%
%TO.N,+1V1*%
X97000000Y-77000000D03*
%TO.P,C11,2*%
%TO.N,GND*%
X97000000Y-77960000D03*
%TD*%
D18*
%TO.P,U1,1,IOVDD_1*%
%TO.N,+3V3*%
X91362500Y-68900000D03*
%TO.P,U1,2,GPIO0_2*%
%TO.N,GPIO0*%
X91362500Y-69300000D03*
%TO.P,U1,3,GPIO1_3*%
%TO.N,GPIO1*%
X91362500Y-69700000D03*
%TO.P,U1,4,GPIO2_4*%
%TO.N,GPIO2*%
X91362500Y-70100000D03*
%TO.P,U1,5,GPIO3_5*%
%TO.N,GPIO3*%
X91362500Y-70500000D03*
%TO.P,U1,6,GPIO4_6*%
%TO.N,GPIO4*%
X91362500Y-70900000D03*
%TO.P,U1,7,GPIO5_7*%
%TO.N,GPIO5*%
X91362500Y-71300000D03*
%TO.P,U1,8,GPIO6_8*%
%TO.N,GPIO6*%
X91362500Y-71700000D03*
%TO.P,U1,9,GPIO7_9*%
%TO.N,GPIO7*%
X91362500Y-72100000D03*
%TO.P,U1,10,IOVDD_10*%
%TO.N,+3V3*%
X91362500Y-72500000D03*
%TO.P,U1,11,GPIO8_11*%
%TO.N,GPIO8*%
X91362500Y-72900000D03*
%TO.P,U1,12,GPIO9_12*%
%TO.N,GPIO9*%
X91362500Y-73300000D03*
%TO.P,U1,13,GPIO10_13*%
%TO.N,GPIO10*%
X91362500Y-73700000D03*
%TO.P,U1,14,GPIO11_14*%
%TO.N,GPIO11*%
X91362500Y-74100000D03*
D19*
%TO.P,U1,15,GPIO12_15*%
%TO.N,GPIO12*%
X92200000Y-74937500D03*
%TO.P,U1,16,GPIO13_16*%
%TO.N,GPIO13*%
X92600000Y-74937500D03*
%TO.P,U1,17,GPIO14_17*%
%TO.N,GPIO14*%
X93000000Y-74937500D03*
%TO.P,U1,18,GPIO15_18*%
%TO.N,GPIO15*%
X93400000Y-74937500D03*
%TO.P,U1,19,TESTEN_19*%
%TO.N,GND*%
X93800000Y-74937500D03*
%TO.P,U1,20,XIN_20*%
%TO.N,XIN*%
X94200000Y-74937500D03*
%TO.P,U1,21,XOUT_21*%
%TO.N,XOUT*%
X94600000Y-74937500D03*
%TO.P,U1,22,IOVDD_22*%
%TO.N,+3V3*%
X95000000Y-74937500D03*
%TO.P,U1,23,DVDD_23*%
%TO.N,+1V1*%
X95400000Y-74937500D03*
%TO.P,U1,24,SWCLK_24*%
%TO.N,SWCLK*%
X95800000Y-74937500D03*
%TO.P,U1,25,SWDIO_25*%
%TO.N,SWD*%
X96200000Y-74937500D03*
%TO.P,U1,26,RUN_26*%
%TO.N,RUN*%
X96600000Y-74937500D03*
%TO.P,U1,27,GPIO16_27*%
%TO.N,GPIO16*%
X97000000Y-74937500D03*
%TO.P,U1,28,GPIO17_28*%
%TO.N,GPIO17*%
X97400000Y-74937500D03*
D18*
%TO.P,U1,29,GPIO18_29*%
%TO.N,GPIO18*%
X98237500Y-74100000D03*
%TO.P,U1,30,GPIO19_30*%
%TO.N,GPIO19*%
X98237500Y-73700000D03*
%TO.P,U1,31,GPIO20_31*%
%TO.N,GPIO20*%
X98237500Y-73300000D03*
%TO.P,U1,32,GPIO21_32*%
%TO.N,GPIO21*%
X98237500Y-72900000D03*
%TO.P,U1,33,IOVDD_33*%
%TO.N,+3V3*%
X98237500Y-72500000D03*
%TO.P,U1,34,GPIO22_34*%
%TO.N,GPIO22*%
X98237500Y-72100000D03*
%TO.P,U1,35,GPIO23_35*%
%TO.N,GPIO23*%
X98237500Y-71700000D03*
%TO.P,U1,36,GPIO24_36*%
%TO.N,GPIO24*%
X98237500Y-71300000D03*
%TO.P,U1,37,GPIO25_37*%
%TO.N,unconnected-(U1-GPIO25-Pad37)*%
X98237500Y-70900000D03*
%TO.P,U1,38,GPIO26/ADC0_38*%
%TO.N,GPIO26_ADC0*%
X98237500Y-70500000D03*
%TO.P,U1,39,GPIO27/ADC1_39*%
%TO.N,GPIO27_ADC1*%
X98237500Y-70100000D03*
%TO.P,U1,40,GPIO28/ADC2_40*%
%TO.N,GPIO28_ADC2*%
X98237500Y-69700000D03*
%TO.P,U1,41,GPIO29/ADC3_41*%
%TO.N,GPIO29_ADC3*%
X98237500Y-69300000D03*
%TO.P,U1,42,IOVDD_42*%
%TO.N,+3V3*%
X98237500Y-68900000D03*
D19*
%TO.P,U1,43,ADC_AVDD_43*%
X97400000Y-68062500D03*
%TO.P,U1,44,VREG_VIN_44*%
X97000000Y-68062500D03*
%TO.P,U1,45,VREG_VOUT_45*%
%TO.N,+1V1*%
X96600000Y-68062500D03*
%TO.P,U1,46,USB_DM_46*%
%TO.N,Net-(U1-USB_DM)*%
X96200000Y-68062500D03*
%TO.P,U1,47,USB_DP_47*%
%TO.N,Net-(U1-USB_DP)*%
X95800000Y-68062500D03*
%TO.P,U1,48,USB_VDD_48*%
%TO.N,+3V3*%
X95400000Y-68062500D03*
%TO.P,U1,49,IOVDD_49*%
X95000000Y-68062500D03*
%TO.P,U1,50,DVDD_50*%
%TO.N,+1V1*%
X94600000Y-68062500D03*
%TO.P,U1,51,QSPI_SD3_51*%
%TO.N,QSPI_SD3*%
X94200000Y-68062500D03*
%TO.P,U1,52,QSPI_SCLK_52*%
%TO.N,QSPI_SCLK*%
X93800000Y-68062500D03*
%TO.P,U1,53,QSPI_SD0_53*%
%TO.N,QSPI_SD0*%
X93400000Y-68062500D03*
%TO.P,U1,54,QSPI_SD2_54*%
%TO.N,QSPI_SD2*%
X93000000Y-68062500D03*
%TO.P,U1,55,QSPI_SD1_55*%
%TO.N,QSPI_SD1*%
X92600000Y-68062500D03*
%TO.P,U1,56,~{QSPI_SS}_56*%
%TO.N,QSPI_SS*%
X92200000Y-68062500D03*
D20*
%TO.P,U1,57,GND_57*%
%TO.N,GND*%
X94800000Y-71500000D03*
%TD*%
D21*
%TO.P,C6,1*%
%TO.N,+3V3*%
X99040000Y-68000000D03*
%TO.P,C6,2*%
%TO.N,GND*%
X100000000Y-68000000D03*
%TD*%
D22*
%TO.P,SW1,1,1_1*%
%TO.N,GND*%
X91000000Y-85500000D03*
%TO.P,SW1,2,2_2*%
%TO.N,Net-(R6-Pad1)*%
X95200000Y-85500000D03*
%TD*%
D23*
%TO.P,R7,1*%
%TO.N,+3V3*%
X96500000Y-84000000D03*
%TO.P,R7,2*%
%TO.N,QSPI_SS*%
X96500000Y-85020000D03*
%TD*%
D24*
%TO.P,C13,1*%
%TO.N,VBUS*%
X92000000Y-49000000D03*
%TO.P,C13,2*%
%TO.N,GND*%
X90450000Y-49000000D03*
%TD*%
D25*
%TO.P,C9,1*%
%TO.N,+3V3*%
X89732126Y-71983769D03*
%TO.P,C9,2*%
%TO.N,GND*%
X88772126Y-71983769D03*
%TD*%
D21*
%TO.P,C10,1*%
%TO.N,+1V1*%
X98040000Y-65500000D03*
%TO.P,C10,2*%
%TO.N,GND*%
X99000000Y-65500000D03*
%TD*%
D26*
%TO.P,D1,1,K_1*%
%TO.N,Net-(D1-K)*%
X98425000Y-49500000D03*
%TO.P,D1,2,A_2*%
%TO.N,GND*%
X100000000Y-49500000D03*
%TD*%
D23*
%TO.P,R1,1*%
%TO.N,Net-(J1-CC1)*%
X96500000Y-49000000D03*
%TO.P,R1,2*%
%TO.N,GND*%
X96500000Y-50020000D03*
%TD*%
D21*
%TO.P,C18,1*%
%TO.N,+3V3*%
X98365000Y-59350000D03*
%TO.P,C18,2*%
%TO.N,GND*%
X99325000Y-59350000D03*
%TD*%
D13*
%TO.P,R5,1*%
%TO.N,Net-(C16-Pad2)*%
X93980000Y-78062500D03*
%TO.P,R5,2*%
%TO.N,XOUT*%
X95000000Y-78062500D03*
%TD*%
D27*
%TO.P,U4,1,GND_1*%
%TO.N,GND*%
X91050000Y-52937500D03*
%TO.P,U4,2,VO_2*%
%TO.N,+3V3*%
X92950000Y-52937500D03*
%TO.P,U4,3,VI_3*%
%TO.N,VBUS*%
X92000000Y-51062500D03*
%TD*%
D28*
%TO.P,Y1,1,1_1*%
%TO.N,Net-(C16-Pad2)*%
X92300000Y-81262500D03*
%TO.P,Y1,2,G_2*%
%TO.N,GND*%
X94500000Y-81262500D03*
%TO.P,Y1,3,3_3*%
%TO.N,XIN*%
X94500000Y-79562500D03*
%TO.P,Y1,4,G_4*%
%TO.N,GND*%
X92300000Y-79562500D03*
%TD*%
D17*
%TO.P,C16,1*%
%TO.N,GND*%
X90500000Y-80582500D03*
%TO.P,C16,2*%
%TO.N,Net-(C16-Pad2)*%
X90500000Y-81542500D03*
%TD*%
%TO.P,C2,1*%
%TO.N,+3V3*%
X100500000Y-78540000D03*
%TO.P,C2,2*%
%TO.N,GND*%
X100500000Y-79500000D03*
%TD*%
%TO.P,C3,1*%
%TO.N,+3V3*%
X96000000Y-77000000D03*
%TO.P,C3,2*%
%TO.N,GND*%
X96000000Y-77960000D03*
%TD*%
D14*
%TO.P,J3,1,Pin_1_1*%
%TO.N,VBUS*%
X104000000Y-41740000D03*
D15*
%TO.P,J3,2,Pin_2_2*%
%TO.N,GPIO29_ADC3*%
X104000000Y-44280000D03*
%TO.P,J3,3,Pin_3_3*%
%TO.N,GND*%
X104000000Y-46820000D03*
%TO.P,J3,4,Pin_4_4*%
%TO.N,GPIO28_ADC2*%
X104000000Y-49360000D03*
%TO.P,J3,5,Pin_5_5*%
%TO.N,+3V3*%
X104000000Y-51900000D03*
%TO.P,J3,6,Pin_6_6*%
%TO.N,GPIO27_ADC1*%
X104000000Y-54440000D03*
%TO.P,J3,7,Pin_7_7*%
%TO.N,GPIO26_ADC0*%
X104000000Y-56980000D03*
%TO.P,J3,8,Pin_8_8*%
%TO.N,GND*%
X104000000Y-59520000D03*
%TO.P,J3,9,Pin_9_9*%
%TO.N,GPIO24*%
X104000000Y-62060000D03*
%TO.P,J3,10,Pin_10_10*%
%TO.N,GPIO23*%
X104000000Y-64600000D03*
%TO.P,J3,11,Pin_11_11*%
%TO.N,RUN*%
X104000000Y-67140000D03*
%TO.P,J3,12,Pin_12_12*%
%TO.N,GPIO22*%
X104000000Y-69680000D03*
%TO.P,J3,13,Pin_13_13*%
%TO.N,GND*%
X104000000Y-72220000D03*
%TO.P,J3,14,Pin_14_14*%
%TO.N,GPIO21*%
X104000000Y-74760000D03*
%TO.P,J3,15,Pin_15_15*%
%TO.N,GPIO20*%
X104000000Y-77300000D03*
%TO.P,J3,16,Pin_16_16*%
%TO.N,GPIO19*%
X104000000Y-79840000D03*
%TO.P,J3,17,Pin_17_17*%
%TO.N,GPIO18*%
X104000000Y-82380000D03*
%TO.P,J3,18,Pin_18_18*%
%TO.N,GND*%
X104000000Y-84920000D03*
%TO.P,J3,19,Pin_19_19*%
%TO.N,GPIO17*%
X104000000Y-87460000D03*
%TO.P,J3,20,Pin_20_20*%
%TO.N,GPIO16*%
X104000000Y-90000000D03*
%TD*%
D12*
%TO.P,C4,1*%
%TO.N,+3V3*%
X90500000Y-67980000D03*
%TO.P,C4,2*%
%TO.N,GND*%
X90500000Y-67020000D03*
%TD*%
D16*
%TO.P,R4,1*%
%TO.N,Net-(U1-USB_DP)*%
X95500000Y-66520000D03*
%TO.P,R4,2*%
%TO.N,USB_D+*%
X95500000Y-65500000D03*
%TD*%
D24*
%TO.P,C14,1*%
%TO.N,+3V3*%
X93000000Y-55000000D03*
%TO.P,C14,2*%
%TO.N,GND*%
X91450000Y-55000000D03*
%TD*%
D21*
%TO.P,C5,1*%
%TO.N,+3V3*%
X98540000Y-67000000D03*
%TO.P,C5,2*%
%TO.N,GND*%
X99500000Y-67000000D03*
%TD*%
%TO.P,C17,1*%
%TO.N,GND*%
X93040000Y-60500000D03*
%TO.P,C17,2*%
%TO.N,+3V3*%
X94000000Y-60500000D03*
%TD*%
D12*
%TO.P,C15,1*%
%TO.N,GND*%
X97000000Y-81542500D03*
%TO.P,C15,2*%
%TO.N,XIN*%
X97000000Y-80582500D03*
%TD*%
D16*
%TO.P,R3,1*%
%TO.N,Net-(U1-USB_DM)*%
X96500000Y-66520000D03*
%TO.P,R3,2*%
%TO.N,USB_D-*%
X96500000Y-65500000D03*
%TD*%
D23*
%TO.P,R2,1*%
%TO.N,Net-(J1-CC2)*%
X93500000Y-48990000D03*
%TO.P,R2,2*%
%TO.N,GND*%
X93500000Y-50010000D03*
%TD*%
D29*
%TO.P,J1,A1,GND_A1*%
%TO.N,GND*%
X98250000Y-47045000D03*
%TO.P,J1,A4,VBUS_A4*%
%TO.N,VBUS*%
X97450000Y-47045000D03*
D30*
%TO.P,J1,A5,CC1_A5*%
%TO.N,Net-(J1-CC1)*%
X96250000Y-47045000D03*
%TO.P,J1,A6,D+_A6*%
%TO.N,USB_D+*%
X95250000Y-47045000D03*
%TO.P,J1,A7,D-_A7*%
%TO.N,USB_D-*%
X94750000Y-47045000D03*
%TO.P,J1,A8*%
%TO.N,N/C*%
X93750000Y-47045000D03*
D29*
%TO.P,J1,A9,VBUS_A9*%
%TO.N,VBUS*%
X92550000Y-47045000D03*
%TO.P,J1,A12,GND_A12*%
%TO.N,GND*%
X91750000Y-47045000D03*
%TO.P,J1,B1,GND_B1*%
X91750000Y-47045000D03*
%TO.P,J1,B4,VBUS_B4*%
%TO.N,VBUS*%
X92550000Y-47045000D03*
D30*
%TO.P,J1,B5,CC2_B5*%
%TO.N,Net-(J1-CC2)*%
X93250000Y-47045000D03*
%TO.P,J1,B6,D+_B6*%
%TO.N,USB_D+*%
X94250000Y-47045000D03*
%TO.P,J1,B7,D-_B7*%
%TO.N,USB_D-*%
X95750000Y-47045000D03*
%TO.P,J1,B8*%
%TO.N,N/C*%
X96750000Y-47045000D03*
D29*
%TO.P,J1,B9,VBUS_B9*%
%TO.N,VBUS*%
X97450000Y-47045000D03*
%TO.P,J1,B12,GND_B12*%
%TO.N,GND*%
X98250000Y-47045000D03*
D31*
%TO.P,J1,SH,SHIELD_SH*%
X99320000Y-46130000D03*
D32*
X99320000Y-41950000D03*
D31*
X90680000Y-46130000D03*
D32*
X90680000Y-41950000D03*
%TD*%
D14*
%TO.P,J2,1,Pin_1_1*%
%TO.N,GPIO0*%
X86000000Y-41740000D03*
D15*
%TO.P,J2,2,Pin_2_2*%
%TO.N,GPIO1*%
X86000000Y-44280000D03*
%TO.P,J2,3,Pin_3_3*%
%TO.N,GND*%
X86000000Y-46820000D03*
%TO.P,J2,4,Pin_4_4*%
%TO.N,GPIO2*%
X86000000Y-49360000D03*
%TO.P,J2,5,Pin_5_5*%
%TO.N,GPIO3*%
X86000000Y-51900000D03*
%TO.P,J2,6,Pin_6_6*%
%TO.N,GPIO4*%
X86000000Y-54440000D03*
%TO.P,J2,7,Pin_7_7*%
%TO.N,GPIO5*%
X86000000Y-56980000D03*
%TO.P,J2,8,Pin_8_8*%
%TO.N,GND*%
X86000000Y-59520000D03*
%TO.P,J2,9,Pin_9_9*%
%TO.N,GPIO6*%
X86000000Y-62060000D03*
%TO.P,J2,10,Pin_10_10*%
%TO.N,GPIO7*%
X86000000Y-64600000D03*
%TO.P,J2,11,Pin_11_11*%
%TO.N,GPIO8*%
X86000000Y-67140000D03*
%TO.P,J2,12,Pin_12_12*%
%TO.N,GPIO9*%
X86000000Y-69680000D03*
%TO.P,J2,13,Pin_13_13*%
%TO.N,GND*%
X86000000Y-72220000D03*
%TO.P,J2,14,Pin_14_14*%
%TO.N,GPIO10*%
X86000000Y-74760000D03*
%TO.P,J2,15,Pin_15_15*%
%TO.N,GPIO11*%
X86000000Y-77300000D03*
%TO.P,J2,16,Pin_16_16*%
%TO.N,GPIO12*%
X86000000Y-79840000D03*
%TO.P,J2,17,Pin_17_17*%
%TO.N,GPIO13*%
X86000000Y-82380000D03*
%TO.P,J2,18,Pin_18_18*%
%TO.N,GND*%
X86000000Y-84920000D03*
%TO.P,J2,19,Pin_19_19*%
%TO.N,GPIO14*%
X86000000Y-87460000D03*
%TO.P,J2,20,Pin_20_20*%
%TO.N,GPIO15*%
X86000000Y-90000000D03*
%TD*%
D12*
%TO.P,C12,1*%
%TO.N,+1V1*%
X95500000Y-61460000D03*
%TO.P,C12,2*%
%TO.N,GND*%
X95500000Y-60500000D03*
%TD*%
D13*
%TO.P,R8,1*%
%TO.N,Net-(D1-K)*%
X98490000Y-51000000D03*
%TO.P,R8,2*%
%TO.N,VBUS*%
X99510000Y-51000000D03*
%TD*%
D17*
%TO.P,C1,1*%
%TO.N,+3V3*%
X99500000Y-78520000D03*
%TO.P,C1,2*%
%TO.N,GND*%
X99500000Y-79480000D03*
%TD*%
D33*
%TO.P,U2,1,CLKIN_1*%
%TO.N,unconnected-(U2-CLKIN-Pad1)*%
X96525000Y-54700000D03*
%TO.P,U2,2,NC_2*%
%TO.N,unconnected-(U2-NC-Pad2)*%
X96525000Y-55200000D03*
%TO.P,U2,3,NC_3*%
%TO.N,unconnected-(U2-NC-Pad3)*%
X96525000Y-55700000D03*
%TO.P,U2,4,NC_4*%
%TO.N,unconnected-(U2-NC-Pad4)*%
X96525000Y-56200000D03*
%TO.P,U2,5,NC_5*%
%TO.N,unconnected-(U2-NC-Pad5)*%
X96525000Y-56700000D03*
%TO.P,U2,6,AUX_DA_6*%
%TO.N,unconnected-(U2-AUX_DA-Pad6)*%
X96525000Y-57200000D03*
D34*
%TO.P,U2,7,AUX_CL_7*%
%TO.N,unconnected-(U2-AUX_CL-Pad7)*%
X97225000Y-57900000D03*
%TO.P,U2,8,VLOGIC_8*%
%TO.N,+3V3*%
X97725000Y-57900000D03*
%TO.P,U2,9,AD0_9*%
%TO.N,GND*%
X98225000Y-57900000D03*
%TO.P,U2,10,REGOUT_10*%
%TO.N,unconnected-(U2-REGOUT-Pad10)*%
X98725000Y-57900000D03*
%TO.P,U2,11,FSYNC_11*%
%TO.N,unconnected-(U2-FSYNC-Pad11)*%
X99225000Y-57900000D03*
%TO.P,U2,12,INT_12*%
%TO.N,unconnected-(U2-INT-Pad12)*%
X99725000Y-57900000D03*
D33*
%TO.P,U2,13,VDD_13*%
%TO.N,+3V3*%
X100425000Y-57200000D03*
%TO.P,U2,14,NC_14*%
%TO.N,unconnected-(U2-NC-Pad14)*%
X100425000Y-56700000D03*
%TO.P,U2,15,NC_15*%
%TO.N,unconnected-(U2-NC-Pad15)*%
X100425000Y-56200000D03*
%TO.P,U2,16,NC_16*%
%TO.N,unconnected-(U2-NC-Pad16)*%
X100425000Y-55700000D03*
%TO.P,U2,17,NC_17*%
%TO.N,unconnected-(U2-NC-Pad17)*%
X100425000Y-55200000D03*
%TO.P,U2,18,GND_18*%
%TO.N,GND*%
X100425000Y-54700000D03*
D34*
%TO.P,U2,19,RESV_19*%
%TO.N,unconnected-(U2-RESV-Pad19)*%
X99725000Y-54000000D03*
%TO.P,U2,20,CPOUT_20*%
%TO.N,unconnected-(U2-CPOUT-Pad20)*%
X99225000Y-54000000D03*
%TO.P,U2,21,RESV_21*%
%TO.N,unconnected-(U2-RESV-Pad21)*%
X98725000Y-54000000D03*
%TO.P,U2,22,RESV_22*%
%TO.N,unconnected-(U2-RESV-Pad22)*%
X98225000Y-54000000D03*
%TO.P,U2,23,SCL_23*%
%TO.N,Net-(U2-SCL)*%
X97725000Y-54000000D03*
%TO.P,U2,24,SDA_24*%
%TO.N,Net-(U2-SDA)*%
X97225000Y-54000000D03*
%TD*%
D35*
%TO.N,+3V3*%
X94075000Y-51125000D03*
X96700000Y-51625000D03*
X101500000Y-57400000D03*
X96569608Y-58075000D03*
%TO.N,GND*%
X95000000Y-60000000D03*
X91500000Y-56400000D03*
X93225000Y-56150000D03*
X100750000Y-50950000D03*
X97550000Y-50900000D03*
%TO.N,USB_D-*%
X94911147Y-56987618D03*
X98559988Y-60677271D03*
%TO.N,USB_D+*%
X94025000Y-56950000D03*
X97794304Y-62400000D03*
%TO.N,GND*%
X96475000Y-59675000D03*
X94250000Y-58175000D03*
%TO.N,SWCLK*%
X95000000Y-73600002D03*
%TO.N,GND*%
X91174265Y-64325735D03*
X101500000Y-75500000D03*
X101500000Y-88500000D03*
X90000000Y-79500000D03*
X92000000Y-53500000D03*
X89000000Y-86000000D03*
X89000000Y-57000000D03*
X95900000Y-69400000D03*
X92900000Y-51050000D03*
X103000000Y-60500000D03*
X96274265Y-81925735D03*
X88000000Y-60000000D03*
X88770789Y-71500000D03*
X87000000Y-48000000D03*
X90500000Y-66000000D03*
X94199997Y-73500000D03*
X92300000Y-73748533D03*
X94000000Y-54000000D03*
X96500000Y-79500000D03*
X88000000Y-84000000D03*
X100000000Y-77000000D03*
X102000000Y-84000000D03*
X100000000Y-61500000D03*
X99971351Y-66000000D03*
X96500000Y-54000000D03*
X93060000Y-58000000D03*
X88000000Y-45000000D03*
%TO.N,SWD*%
X96203366Y-75752886D03*
%TO.N,QSPI_SS*%
X98000000Y-85000000D03*
X91384109Y-67615901D03*
%TO.N,+1V1*%
X97000000Y-63000000D03*
X97207484Y-65996019D03*
X98371351Y-64500000D03*
X97665792Y-76985679D03*
%TO.N,+3V3*%
X99371351Y-68871351D03*
X100359314Y-74207843D03*
X101794265Y-71705735D03*
X92536969Y-72984433D03*
X92800000Y-66314428D03*
X94043357Y-68989563D03*
X97302918Y-71191130D03*
X100194265Y-82805735D03*
X97700000Y-87500000D03*
X96500000Y-83000000D03*
X99394485Y-76105515D03*
%TO.N,GPIO0*%
X92713567Y-69500000D03*
%TO.N,GPIO2*%
X92179020Y-70095198D03*
%TO.N,GPIO4*%
X92179105Y-70904911D03*
%TO.N,GPIO6*%
X92190383Y-71719819D03*
%TO.N,XIN*%
X93500000Y-82500000D03*
X94400000Y-76814213D03*
%TO.N,RUN*%
X96900002Y-70500000D03*
%TO.N,GPIO20*%
X97307475Y-73958945D03*
%TO.N,GPIO21*%
X97308840Y-72648534D03*
%TO.N,GPIO29_ADC3*%
X97222445Y-69222445D03*
%TD*%
%TO.N,+3V3*%
D36*
X97275000Y-58710000D02*
X97725000Y-58710000D01*
X97275000Y-58710000D02*
X95226134Y-58710000D01*
X95226134Y-58710000D02*
X94936134Y-59000000D01*
X97125000Y-52500000D02*
X97125000Y-52050000D01*
X97125000Y-52050000D02*
X96700000Y-51625000D01*
X92950000Y-52201471D02*
X92950000Y-52937500D01*
X94075000Y-51125000D02*
X94026471Y-51125000D01*
%TO.N,VBUS*%
X99510000Y-51000000D02*
X99779999Y-51000000D01*
X99779999Y-51000000D02*
X101000000Y-49779999D01*
%TO.N,+3V3*%
X98005000Y-51620000D02*
X99120000Y-51620000D01*
X99120000Y-51620000D02*
X100000000Y-52500000D01*
%TO.N,Net-(U2-SCL)*%
X101020000Y-52500000D02*
X100245000Y-53275000D01*
X97725000Y-53542590D02*
X97725000Y-54000000D01*
X100245000Y-53275000D02*
X97992590Y-53275000D01*
X97992590Y-53275000D02*
X97725000Y-53542590D01*
%TO.N,GND*%
X97750000Y-60520000D02*
X98310000Y-59960000D01*
X98310000Y-59960000D02*
X98715000Y-59960000D01*
X98715000Y-59960000D02*
X99325000Y-59350000D01*
%TO.N,USB_D-*%
X98559988Y-60677271D02*
X98559988Y-63440012D01*
X98559988Y-63440012D02*
X96500000Y-65500000D01*
%TO.N,GND*%
X96750000Y-60500000D02*
X97730000Y-60500000D01*
X97730000Y-60500000D02*
X97750000Y-60520000D01*
%TO.N,+3V3*%
X96569608Y-58075000D02*
X96569608Y-58202018D01*
X96569608Y-58202018D02*
X97077590Y-58710000D01*
X97077590Y-58710000D02*
X97275000Y-58710000D01*
X101300000Y-57200000D02*
X101500000Y-57400000D01*
X100425000Y-57200000D02*
X101300000Y-57200000D01*
%TO.N,GND*%
X98225000Y-57900000D02*
X98225000Y-58525000D01*
X98225000Y-58525000D02*
X98440000Y-58740000D01*
X98440000Y-58740000D02*
X98715000Y-58740000D01*
X98715000Y-58740000D02*
X99325000Y-59350000D01*
%TO.N,+3V3*%
X97725000Y-57900000D02*
X97725000Y-58710000D01*
X97725000Y-58710000D02*
X98365000Y-59350000D01*
%TO.N,GND*%
X99560000Y-61060000D02*
X99560000Y-59585000D01*
X99560000Y-59585000D02*
X99325000Y-59350000D01*
%TO.N,USB_D+*%
X95000000Y-53774523D02*
X95000000Y-54564884D01*
X94025000Y-55539884D02*
X94025000Y-56950000D01*
X95000000Y-54564884D02*
X94025000Y-55539884D01*
%TO.N,USB_D-*%
X94911147Y-56987618D02*
X94911147Y-55219423D01*
X94911147Y-55219423D02*
X95750000Y-54380570D01*
%TO.N,GND*%
X99560000Y-61060000D02*
X100000000Y-61500000D01*
%TO.N,Net-(U2-SDA)*%
X98145000Y-52500000D02*
X97225000Y-53420000D01*
X97225000Y-53420000D02*
X97225000Y-54000000D01*
%TO.N,+3V3*%
X97125000Y-52500000D02*
X98005000Y-51620000D01*
%TO.N,USB_D+*%
X95500000Y-65500000D02*
X97794304Y-63205696D01*
X97794304Y-63205696D02*
X97794304Y-62400000D01*
%TO.N,SWCLK*%
X95399998Y-74000000D02*
X95500000Y-74000000D01*
X95000000Y-73600002D02*
X95399998Y-74000000D01*
X95800000Y-74300000D02*
X95800000Y-74937500D01*
X95500000Y-74000000D02*
X95800000Y-74300000D01*
%TO.N,GND*%
X100000000Y-68000000D02*
X100000000Y-67500000D01*
X88500000Y-71770789D02*
X88500000Y-72000000D01*
X91750000Y-47045000D02*
X91750000Y-47700000D01*
X99500000Y-66000000D02*
X99000000Y-65500000D01*
X88770789Y-71500000D02*
X88500000Y-71770789D01*
X94500000Y-81262500D02*
X96720000Y-81262500D01*
X98250000Y-47045000D02*
X100000000Y-48795000D01*
X91520000Y-79562500D02*
X90500000Y-80582500D01*
X92300000Y-79562500D02*
X91520000Y-79562500D01*
X96720000Y-81262500D02*
X97000000Y-81542500D01*
X91174265Y-64325735D02*
X91174265Y-63024265D01*
X91174265Y-63024265D02*
X91150000Y-63000000D01*
X99500000Y-67000000D02*
X99500000Y-66000000D01*
X100000000Y-48795000D02*
X100000000Y-49500000D01*
X100000000Y-67500000D02*
X99500000Y-67000000D01*
X93800000Y-77303576D02*
X92300000Y-78803576D01*
X92300000Y-78803576D02*
X92300000Y-79562500D01*
X91750000Y-47700000D02*
X90450000Y-49000000D01*
X90500000Y-67020000D02*
X90500000Y-66000000D01*
X93800000Y-74937500D02*
X93800000Y-77303576D01*
%TO.N,SWD*%
X96200000Y-75700000D02*
X96252886Y-75752886D01*
X96252886Y-75752886D02*
X96203366Y-75752886D01*
X96200000Y-74937500D02*
X96200000Y-75700000D01*
%TO.N,Net-(R6-Pad1)*%
X95200000Y-85500000D02*
X95200000Y-85720000D01*
X95200000Y-85720000D02*
X96500000Y-87020000D01*
%TO.N,QSPI_SS*%
X91502837Y-66997163D02*
X91100000Y-66594325D01*
X92200000Y-68062500D02*
X92200000Y-67694326D01*
X90619928Y-61500000D02*
X91150000Y-61500000D01*
X92200000Y-67694326D02*
X91502837Y-66997163D01*
X97980000Y-85020000D02*
X98000000Y-85000000D01*
X96500000Y-85020000D02*
X96500000Y-86000000D01*
X91100000Y-65665686D02*
X90000000Y-64565685D01*
X91384109Y-67115891D02*
X91502837Y-66997163D01*
X91384109Y-67615901D02*
X91384109Y-67115891D01*
X90000000Y-62119928D02*
X90619928Y-61500000D01*
X91100000Y-66594325D02*
X91100000Y-65665686D01*
X90000000Y-64565685D02*
X90000000Y-62119928D01*
X96500000Y-85020000D02*
X97980000Y-85020000D01*
%TO.N,+1V1*%
X95550000Y-61510000D02*
X95550000Y-63715685D01*
X97479462Y-66479462D02*
X98040000Y-65918924D01*
X95500000Y-61500000D02*
X97000000Y-63000000D01*
X95550000Y-63715685D02*
X94600000Y-64665686D01*
X98371351Y-65168649D02*
X98040000Y-65500000D01*
X96000000Y-76420000D02*
X95400000Y-75820000D01*
X97665792Y-76985679D02*
X97014321Y-76985679D01*
X95500000Y-61460000D02*
X95550000Y-61510000D01*
X97000000Y-77000000D02*
X96420000Y-76420000D01*
X97479462Y-66479462D02*
X97207484Y-66207484D01*
X98040000Y-65918924D02*
X98040000Y-65500000D01*
X96420000Y-76420000D02*
X96000000Y-76420000D01*
X96600000Y-67358924D02*
X97479462Y-66479462D01*
X98371351Y-64500000D02*
X98371351Y-65168649D01*
X95500000Y-61460000D02*
X95500000Y-61500000D01*
X95400000Y-75820000D02*
X95400000Y-74937500D01*
X96600000Y-68062500D02*
X96600000Y-67358924D01*
X97207484Y-66207484D02*
X97207484Y-65996019D01*
X97014321Y-76985679D02*
X97000000Y-77000000D01*
X94600000Y-64665686D02*
X94600000Y-68062500D01*
%TO.N,+3V3*%
X100480000Y-78520000D02*
X100500000Y-78540000D01*
X100359314Y-73140686D02*
X100359314Y-74207843D01*
X95500000Y-83000000D02*
X96500000Y-83000000D01*
X92503634Y-73103640D02*
X92500000Y-73103640D01*
X93390000Y-61110000D02*
X94000000Y-60500000D01*
X96500000Y-69400000D02*
X97000000Y-69900000D01*
X99000000Y-68871351D02*
X98266149Y-68871351D01*
X97400000Y-68196360D02*
X97400000Y-68062500D01*
X95400000Y-68596360D02*
X95603640Y-68800000D01*
X92460000Y-60856134D02*
X92713866Y-61110000D01*
X94936134Y-59000000D02*
X92460000Y-59000000D01*
X96796360Y-68800000D02*
X97400000Y-68196360D01*
X98062500Y-67000000D02*
X97000000Y-68062500D01*
X95000000Y-76000000D02*
X95000000Y-74403640D01*
X95400000Y-68062500D02*
X95400000Y-68596360D01*
X97400000Y-68062500D02*
X98977500Y-68062500D01*
X94500000Y-86512648D02*
X94500000Y-84000000D01*
X96500000Y-84000000D02*
X96500000Y-83000000D01*
X99394485Y-78414485D02*
X99394485Y-76105515D01*
X97148531Y-69900000D02*
X97500000Y-70251469D01*
X94043357Y-68989563D02*
X93489563Y-68989563D01*
X90248357Y-72500000D02*
X89732126Y-71983769D01*
X96500000Y-68800000D02*
X96500000Y-69400000D01*
X98266149Y-68871351D02*
X98237500Y-68900000D01*
X96500000Y-68800000D02*
X96796360Y-68800000D01*
X92500000Y-73103640D02*
X91896360Y-72500000D01*
X96650000Y-61560000D02*
X96750000Y-61460000D01*
X96110000Y-60820000D02*
X96110000Y-60173866D01*
X93000000Y-66114428D02*
X92800000Y-66314428D01*
X94232920Y-68800000D02*
X95300000Y-68800000D01*
X93000000Y-61110000D02*
X93000000Y-66114428D01*
X98890000Y-81501470D02*
X100194265Y-82805735D01*
X92950000Y-54950000D02*
X93000000Y-55000000D01*
X99000000Y-68871351D02*
X99040000Y-68831351D01*
X91896360Y-72500000D02*
X91362500Y-72500000D01*
X97500000Y-71000000D02*
X97494048Y-71000000D01*
X95000000Y-68500000D02*
X95300000Y-68800000D01*
X98540000Y-67000000D02*
X98062500Y-67000000D01*
X95577352Y-87590000D02*
X94500000Y-86512648D01*
X95603640Y-68800000D02*
X96500000Y-68800000D01*
X99500000Y-78520000D02*
X99394485Y-78414485D01*
X96770000Y-61480000D02*
X96750000Y-61460000D01*
X96750000Y-61460000D02*
X96110000Y-60820000D01*
X94500000Y-84000000D02*
X95500000Y-83000000D01*
X100359314Y-74087954D02*
X98771360Y-72500000D01*
X99040000Y-68831351D02*
X99040000Y-68000000D01*
X97000000Y-69900000D02*
X97148531Y-69900000D01*
X92460000Y-55540000D02*
X92460000Y-59000000D01*
X98890000Y-79130000D02*
X98890000Y-81501470D01*
X99371351Y-68871351D02*
X99000000Y-68871351D01*
X98977500Y-68062500D02*
X99040000Y-68000000D01*
X93000000Y-61110000D02*
X93390000Y-61110000D01*
X96796360Y-68800000D02*
X97000000Y-68596360D01*
X94796360Y-74200000D02*
X93752536Y-74200000D01*
X92713866Y-61110000D02*
X93000000Y-61110000D01*
X97730000Y-61460000D02*
X97750000Y-61480000D01*
X97494048Y-71000000D02*
X97302918Y-71191130D01*
X97700000Y-87500000D02*
X97610000Y-87590000D01*
X91362500Y-72500000D02*
X90248357Y-72500000D01*
X92536969Y-72984433D02*
X92536969Y-73070305D01*
X95000000Y-76000000D02*
X95000000Y-74937500D01*
X101794265Y-71705735D02*
X100359314Y-73140686D01*
X95000000Y-74403640D02*
X94796360Y-74200000D01*
X96750000Y-61460000D02*
X97730000Y-61460000D01*
X99500000Y-78520000D02*
X100480000Y-78520000D01*
X92536969Y-72984433D02*
X92536969Y-73136975D01*
X93752536Y-74200000D02*
X92536969Y-72984433D01*
X99500000Y-78520000D02*
X98890000Y-79130000D01*
X97000000Y-68596360D02*
X97000000Y-68062500D01*
X93000000Y-55000000D02*
X92460000Y-55540000D01*
X91362500Y-68900000D02*
X91362500Y-68842500D01*
X94000000Y-60500000D02*
X94000000Y-61500000D01*
X93400000Y-68900000D02*
X91362500Y-68900000D01*
X91362500Y-68842500D02*
X90500000Y-67980000D01*
X97500000Y-70251469D02*
X97500000Y-71000000D01*
X100359314Y-74207843D02*
X100359314Y-74087954D01*
X94043357Y-68989563D02*
X94232920Y-68800000D01*
X95300000Y-68800000D02*
X96796360Y-68800000D01*
X98771360Y-72500000D02*
X98237500Y-72500000D01*
X96000000Y-77000000D02*
X95000000Y-76000000D01*
X95000000Y-74403640D02*
X95000000Y-74937500D01*
X96110000Y-60173866D02*
X94936134Y-59000000D01*
X95000000Y-68062500D02*
X95000000Y-68500000D01*
X92460000Y-59000000D02*
X92460000Y-60856134D01*
X92950000Y-52937500D02*
X92950000Y-54950000D01*
X92536969Y-73070305D02*
X92503634Y-73103640D01*
X93489563Y-68989563D02*
X93400000Y-68900000D01*
X97610000Y-87590000D02*
X95577352Y-87590000D01*
%TO.N,GPIO0*%
X92368225Y-69495198D02*
X92173027Y-69300000D01*
X92527629Y-69595278D02*
X92427549Y-69495198D01*
X92618289Y-69595278D02*
X92527629Y-69595278D01*
X92427549Y-69495198D02*
X92368225Y-69495198D01*
X92713567Y-69500000D02*
X92618289Y-69595278D01*
X92173027Y-69300000D02*
X91362500Y-69300000D01*
%TO.N,GPIO1*%
X89600000Y-66502942D02*
X88048529Y-64951471D01*
X89800000Y-60831372D02*
X89800000Y-58800000D01*
X88048529Y-62582843D02*
X89800000Y-60831372D01*
X88000000Y-46280000D02*
X86000000Y-44280000D01*
X88048529Y-64951471D02*
X88048529Y-62582843D01*
X89600000Y-68471360D02*
X89600000Y-66502942D01*
X88000000Y-57000000D02*
X88000000Y-46280000D01*
X90828640Y-69700000D02*
X89600000Y-68471360D01*
X91362500Y-69700000D02*
X90828640Y-69700000D01*
X89800000Y-58800000D02*
X88000000Y-57000000D01*
%TO.N,GPIO2*%
X92174218Y-70100000D02*
X91362500Y-70100000D01*
X92179020Y-70095198D02*
X92174218Y-70100000D01*
%TO.N,GPIO3*%
X87632843Y-65101472D02*
X87632843Y-62432843D01*
X89400000Y-60665686D02*
X89400000Y-59400000D01*
X91362500Y-70500000D02*
X90828640Y-70500000D01*
X89400000Y-59400000D02*
X87500000Y-57500000D01*
X89200000Y-66668628D02*
X87632843Y-65101472D01*
X87500000Y-53400000D02*
X86000000Y-51900000D01*
X90828640Y-70500000D02*
X89200000Y-68871360D01*
X89200000Y-68871360D02*
X89200000Y-66668628D01*
X87500000Y-57500000D02*
X87500000Y-53400000D01*
X87632843Y-62432843D02*
X89400000Y-60665686D01*
%TO.N,GPIO4*%
X92174194Y-70900000D02*
X91362500Y-70900000D01*
X92179105Y-70904911D02*
X92174194Y-70900000D01*
%TO.N,GPIO5*%
X88800000Y-69271360D02*
X90828640Y-71300000D01*
X89000000Y-60500000D02*
X87232843Y-62267157D01*
X89000000Y-59980000D02*
X89000000Y-60500000D01*
X87232843Y-65267157D02*
X88800000Y-66834314D01*
X87232843Y-62267157D02*
X87232843Y-65267157D01*
X86000000Y-56980000D02*
X89000000Y-59980000D01*
X88800000Y-66834314D02*
X88800000Y-69271360D01*
X90828640Y-71300000D02*
X91362500Y-71300000D01*
%TO.N,GPIO6*%
X92190383Y-71719819D02*
X92170564Y-71700000D01*
X92170564Y-71700000D02*
X91362500Y-71700000D01*
%TO.N,GPIO7*%
X91362500Y-72100000D02*
X90828640Y-72100000D01*
X90828640Y-72100000D02*
X90364320Y-71635680D01*
X88400000Y-67000000D02*
X86000000Y-64600000D01*
X90364320Y-71635680D02*
X88400000Y-69671360D01*
X88400000Y-69671360D02*
X88400000Y-67000000D01*
%TO.N,GPIO8*%
X88000000Y-72396134D02*
X88000000Y-69140000D01*
X88000000Y-69140000D02*
X86000000Y-67140000D01*
X91362500Y-72900000D02*
X88463866Y-72900000D01*
X88463866Y-72900000D02*
X87980000Y-72416134D01*
%TO.N,GPIO9*%
X87150000Y-70830000D02*
X87150000Y-72151820D01*
X86000000Y-69680000D02*
X87150000Y-70830000D01*
X87150000Y-72151820D02*
X88298180Y-73300000D01*
X88298180Y-73300000D02*
X91362500Y-73300000D01*
%TO.N,GPIO10*%
X91362500Y-73700000D02*
X87060000Y-73700000D01*
X87060000Y-73700000D02*
X86000000Y-74760000D01*
%TO.N,GPIO11*%
X88800000Y-74500000D02*
X86000000Y-77300000D01*
X90962500Y-74500000D02*
X88800000Y-74500000D01*
X91362500Y-74100000D02*
X90962500Y-74500000D01*
%TO.N,GPIO12*%
X86000000Y-79840000D02*
X90902500Y-74937500D01*
X90902500Y-74937500D02*
X92200000Y-74937500D01*
%TO.N,GPIO13*%
X91000000Y-76000000D02*
X92071360Y-76000000D01*
X86000000Y-82380000D02*
X88000000Y-80380000D01*
X92600000Y-75471360D02*
X92600000Y-74937500D01*
X88000000Y-80380000D02*
X88000000Y-79000000D01*
X92071360Y-76000000D02*
X92600000Y-75471360D01*
X88000000Y-79000000D02*
X91000000Y-76000000D01*
%TO.N,GPIO14*%
X89000000Y-84460000D02*
X89000000Y-79000000D01*
X89000000Y-79000000D02*
X91500000Y-76500000D01*
X92137045Y-76500000D02*
X93000000Y-75637045D01*
X86000000Y-87460000D02*
X89000000Y-84460000D01*
X91500000Y-76500000D02*
X92137045Y-76500000D01*
X93000000Y-75637045D02*
X93000000Y-74937500D01*
%TO.N,GPIO15*%
X87762843Y-88237157D02*
X87762843Y-86262843D01*
X92302731Y-76900000D02*
X93400000Y-75802730D01*
X86000000Y-90000000D02*
X87762843Y-88237157D01*
X93400000Y-75802730D02*
X93400000Y-74937500D01*
X87762843Y-86262843D02*
X89400000Y-84625685D01*
X89400000Y-79165686D02*
X91665686Y-76900000D01*
X91665686Y-76900000D02*
X92302731Y-76900000D01*
X89400000Y-84625685D02*
X89400000Y-79165686D01*
%TO.N,XIN*%
X94500000Y-79562500D02*
X94937500Y-79562500D01*
X94200000Y-76614213D02*
X94400000Y-76814213D01*
X94937500Y-79562500D02*
X95957500Y-80582500D01*
X95957500Y-80582500D02*
X97000000Y-80582500D01*
X94200000Y-74937500D02*
X94200000Y-76614213D01*
X93500000Y-80628186D02*
X94500000Y-79628186D01*
X93500000Y-82500000D02*
X93500000Y-80628186D01*
X94500000Y-79628186D02*
X94500000Y-79562500D01*
X94500000Y-79562500D02*
X94980000Y-79562500D01*
%TO.N,XOUT*%
X95000000Y-76565686D02*
X94600000Y-76165686D01*
X94600000Y-76165686D02*
X94600000Y-74937500D01*
X95000000Y-78062500D02*
X95000000Y-76565686D01*
%TO.N,RUN*%
X96700000Y-73400000D02*
X96700000Y-70700002D01*
X96600000Y-73500000D02*
X96700000Y-73400000D01*
X96600000Y-74937500D02*
X96600000Y-73500000D01*
X96700000Y-70700002D02*
X96900002Y-70500000D01*
%TO.N,GPIO16*%
X97000000Y-75471360D02*
X98500000Y-76971360D01*
X98500000Y-76971360D02*
X98500000Y-77000000D01*
X104000000Y-90000000D02*
X97870000Y-83870000D01*
X97000000Y-74937500D02*
X97000000Y-75471360D01*
X98500000Y-77000000D02*
X97870000Y-77630000D01*
X97870000Y-77630000D02*
X97870000Y-83870000D01*
%TO.N,GPIO17*%
X98270000Y-78230000D02*
X98270000Y-81730000D01*
X104000000Y-87460000D02*
X98270000Y-81730000D01*
X98994485Y-77505515D02*
X98270000Y-78230000D01*
X98994485Y-76554044D02*
X98994485Y-77505515D01*
X97400000Y-74937500D02*
X98010000Y-75547500D01*
X98010000Y-75569559D02*
X98994485Y-76554044D01*
X98010000Y-75547500D02*
X98010000Y-75569559D01*
%TO.N,GPIO18*%
X102000000Y-80380000D02*
X102000000Y-77862500D01*
X102000000Y-77862500D02*
X98237500Y-74100000D01*
X104000000Y-82380000D02*
X102000000Y-80380000D01*
%TO.N,GPIO19*%
X98237500Y-73700000D02*
X98771360Y-73700000D01*
X104000000Y-78928640D02*
X104000000Y-79840000D01*
X98771360Y-73700000D02*
X104000000Y-78928640D01*
%TO.N,GPIO20*%
X97307475Y-73958945D02*
X97342821Y-73923599D01*
X97342821Y-73923599D02*
X97342821Y-73433544D01*
X97342821Y-73433544D02*
X97476365Y-73300000D01*
X97476365Y-73300000D02*
X98000000Y-73300000D01*
%TO.N,GPIO21*%
X97308840Y-72648534D02*
X97323833Y-72633541D01*
X98237500Y-72900000D02*
X98500000Y-72900000D01*
X97437181Y-72633541D02*
X97703640Y-72900000D01*
X97323833Y-72633541D02*
X97437181Y-72633541D01*
X97703640Y-72900000D02*
X98237500Y-72900000D01*
%TO.N,GPIO22*%
X98237500Y-72100000D02*
X100162743Y-72100000D01*
X100162743Y-72100000D02*
X102582742Y-69680000D01*
X102582742Y-69680000D02*
X104000000Y-69680000D01*
%TO.N,GPIO23*%
X98237500Y-71700000D02*
X99997057Y-71700000D01*
X102500000Y-66100000D02*
X102500000Y-69197057D01*
X99997057Y-71700000D02*
X102500000Y-69197057D01*
X104000000Y-64600000D02*
X102500000Y-66100000D01*
%TO.N,GPIO24*%
X104000000Y-62060000D02*
X101967157Y-64092843D01*
X101967157Y-64092843D02*
X101967157Y-69164214D01*
X98237500Y-71300000D02*
X99831371Y-71300000D01*
X99831371Y-71300000D02*
X101967157Y-69164214D01*
%TO.N,GPIO26_ADC0*%
X101500000Y-68000000D02*
X101500000Y-69065685D01*
X100065685Y-70500000D02*
X98237500Y-70500000D01*
X101500000Y-69065685D02*
X100065685Y-70500000D01*
X104000000Y-56980000D02*
X101500000Y-59480000D01*
X101500000Y-59480000D02*
X101500000Y-68000000D01*
%TO.N,GPIO27_ADC1*%
X101000000Y-59414314D02*
X101000000Y-68765686D01*
X102707157Y-55732843D02*
X102707157Y-57707157D01*
X104000000Y-54440000D02*
X102707157Y-55732843D01*
X102707157Y-57707157D02*
X101000000Y-59414314D01*
X101000000Y-68765686D02*
X99665685Y-70100000D01*
X99665685Y-70100000D02*
X98237500Y-70100000D01*
%TO.N,GPIO28_ADC2*%
X98237500Y-69700000D02*
X99500000Y-69700000D01*
X100600000Y-59248628D02*
X102307157Y-57541471D01*
X100600000Y-68600000D02*
X100600000Y-59248628D01*
X102307157Y-57541471D02*
X102307157Y-51052843D01*
X99500000Y-69700000D02*
X100600000Y-68600000D01*
X102307157Y-51052843D02*
X104000000Y-49360000D01*
%TO.N,GPIO29_ADC3*%
X97300000Y-69300000D02*
X98237500Y-69300000D01*
X97222445Y-69222445D02*
X97300000Y-69300000D01*
%TO.N,Net-(U1-USB_DM)*%
X96200000Y-66820000D02*
X96200000Y-67034919D01*
X96500000Y-66520000D02*
X96200000Y-66820000D01*
X96200000Y-67167374D02*
X96200000Y-68062500D01*
X96200000Y-67034919D02*
X96200000Y-67167374D01*
%TO.N,Net-(U1-USB_DP)*%
X95800000Y-66820000D02*
X95800000Y-68062500D01*
X95500000Y-66520000D02*
X95800000Y-66820000D01*
%TO.N,QSPI_SD3*%
X94530072Y-62000000D02*
X94000000Y-62000000D01*
X94200000Y-64500000D02*
X95150000Y-63550000D01*
X94200000Y-68062500D02*
X94200000Y-64500000D01*
X95150000Y-63550000D02*
X95150000Y-62953548D01*
X95150000Y-62619928D02*
X94530072Y-62000000D01*
X95150000Y-62953548D02*
X95150000Y-62619928D01*
%TO.N,QSPI_SCLK*%
X94750000Y-62785614D02*
X94464386Y-62500000D01*
X94750000Y-63214386D02*
X94750000Y-62785614D01*
X94464386Y-62500000D02*
X94000000Y-62500000D01*
X93800000Y-68062500D02*
X93800000Y-64164386D01*
X93800000Y-64164386D02*
X94750000Y-63214386D01*
%TO.N,QSPI_SD0*%
X93400000Y-63600000D02*
X94000000Y-63000000D01*
X93400000Y-68062500D02*
X93400000Y-63600000D01*
%TO.N,QSPI_SD2*%
X91614386Y-62500000D02*
X92000000Y-62885614D01*
X92000000Y-62885614D02*
X92000000Y-66362955D01*
X91150000Y-62500000D02*
X91614386Y-62500000D01*
X93000000Y-67362955D02*
X93000000Y-68062500D01*
X92000000Y-66362955D02*
X93000000Y-67362955D01*
%TO.N,QSPI_SD1*%
X90400000Y-64400000D02*
X90400000Y-62285614D01*
X92600000Y-67528640D02*
X91500000Y-66428640D01*
X91500000Y-65500000D02*
X90400000Y-64400000D01*
X90685614Y-62000000D02*
X91150000Y-62000000D01*
X90400000Y-62285614D02*
X90685614Y-62000000D01*
X91500000Y-66428640D02*
X91500000Y-65500000D01*
X92600000Y-67528640D02*
X92600000Y-68062500D01*
%TO.N,VBUS*%
X97215000Y-45320406D02*
X93549595Y-45320406D01*
X92550000Y-48450000D02*
X92550000Y-47045000D01*
X92000000Y-49000000D02*
X92550000Y-48450000D01*
X92550000Y-46320001D02*
X92550000Y-47045000D01*
X97610406Y-44925000D02*
X97215000Y-45320406D01*
X92000000Y-49000000D02*
X92000000Y-51062500D01*
X101000000Y-42500000D02*
X98575000Y-44925000D01*
X101000000Y-49779999D02*
X101000000Y-42500000D01*
X104000000Y-41740000D02*
X101760000Y-41740000D01*
X97215000Y-46810000D02*
X97450000Y-47045000D01*
X98575000Y-44925000D02*
X97610406Y-44925000D01*
X101760000Y-41740000D02*
X101000000Y-42500000D01*
X97215000Y-45320406D02*
X97215000Y-46810000D01*
X93549595Y-45320406D02*
X92550000Y-46320001D01*
%TO.N,Net-(D1-K)*%
X98490000Y-51000000D02*
X98490000Y-49565000D01*
X98490000Y-49565000D02*
X98425000Y-49500000D01*
%TO.N,Net-(J1-CC1)*%
X96500000Y-48500000D02*
X96500000Y-49000000D01*
X96250000Y-47045000D02*
X96250000Y-48250000D01*
X96250000Y-48250000D02*
X96500000Y-48500000D01*
%TO.N,Net-(C16-Pad2)*%
X90500000Y-81542500D02*
X92020000Y-81542500D01*
X93500000Y-78542500D02*
X93980000Y-78062500D01*
X92020000Y-81542500D02*
X92300000Y-81262500D01*
X92300000Y-81262500D02*
X93500000Y-80062500D01*
X93500000Y-80062500D02*
X93500000Y-78542500D01*
%TO.N,USB_D+*%
X95000000Y-48052410D02*
X94982410Y-48070000D01*
X95000000Y-52283523D02*
X95000000Y-52214556D01*
X94170000Y-52895523D02*
X94170000Y-52793523D01*
X95250000Y-47045000D02*
X95250000Y-47802410D01*
X95000000Y-52214556D02*
X95000000Y-51768675D01*
X94374000Y-52589523D02*
X94796000Y-52589523D01*
X95330000Y-53444523D02*
X95330000Y-53264523D01*
X94250000Y-47802410D02*
X94250000Y-47045000D01*
X94982410Y-48070000D02*
X94517590Y-48070000D01*
X95000000Y-51768675D02*
X95000000Y-51304323D01*
X95000000Y-48052410D02*
X95000000Y-51283838D01*
X95000000Y-51283838D02*
X95000000Y-51304323D01*
X95250000Y-47802410D02*
X95000000Y-48052410D01*
X95000000Y-53099523D02*
X94796000Y-53099523D01*
X95165000Y-53099523D02*
X95000000Y-53099523D01*
X94517590Y-48070000D02*
X94250000Y-47802410D01*
X95000000Y-52385523D02*
X95000000Y-52283523D01*
X94796000Y-53099523D02*
X94374000Y-53099523D01*
X94170000Y-52793523D02*
G75*
G02*
X94374000Y-52589500I204000J23D01*
G01*
X95330000Y-53264523D02*
G75*
G03*
X95165000Y-53099500I-165000J23D01*
G01*
X95165000Y-53609523D02*
G75*
G03*
X95330023Y-53444523I0J165023D01*
G01*
X94374000Y-53099523D02*
G75*
G02*
X94169977Y-52895523I0J204023D01*
G01*
X94796000Y-52589523D02*
G75*
G03*
X95000023Y-52385523I0J204023D01*
G01*
X95000000Y-53774523D02*
G75*
G02*
X95165000Y-53609500I165000J23D01*
G01*
%TO.N,USB_D-*%
X95750000Y-51768675D02*
X95750000Y-51000000D01*
X95482410Y-46020000D02*
X95750000Y-46287590D01*
X95017590Y-46020000D02*
X95482410Y-46020000D01*
X95750000Y-52214556D02*
X95750000Y-51768675D01*
X95750000Y-54176252D02*
X95750000Y-52214556D01*
X94750000Y-46287590D02*
X95017590Y-46020000D01*
X95750000Y-54176252D02*
X95750000Y-54380570D01*
X94750000Y-47045000D02*
X94750000Y-46287590D01*
X95750000Y-46287590D02*
X95750000Y-47045000D01*
X95750000Y-51000000D02*
X95750000Y-47045000D01*
%TO.N,Net-(J1-CC2)*%
X93250000Y-48740000D02*
X93500000Y-48990000D01*
X93250000Y-47045000D02*
X93250000Y-48740000D01*
%TO.N,GND*%
X94890000Y-59890000D02*
X95000000Y-60000000D01*
X93040000Y-60500000D02*
X93650000Y-59890000D01*
X93650000Y-59890000D02*
X94890000Y-59890000D01*
X95000000Y-60000000D02*
X95500000Y-60500000D01*
X103020000Y-60500000D02*
X104000000Y-59520000D01*
X103000000Y-60500000D02*
X103020000Y-60500000D01*
%TO.N,+3V3*%
X94026471Y-51125000D02*
X92950000Y-52201471D01*
%TD*%
%TA.AperFunction,Conductor*%
%TO.N,GND*%
G36*
X95705203Y-80897042D02*
G01*
X95711543Y-80902945D01*
X95711582Y-80902975D01*
X95711587Y-80902980D01*
X95802912Y-80955707D01*
X95904773Y-80983000D01*
X96347117Y-80983000D01*
X96414156Y-81002685D01*
X96459911Y-81055489D01*
X96469855Y-81124647D01*
X96446887Y-81180633D01*
X96436597Y-81194575D01*
X96402332Y-81292500D01*
X96876000Y-81292500D01*
X96943039Y-81312185D01*
X96988794Y-81364989D01*
X97000000Y-81416500D01*
X97000000Y-81542500D01*
X97126000Y-81542500D01*
X97193039Y-81562185D01*
X97238794Y-81614989D01*
X97250000Y-81666500D01*
X97250000Y-82119967D01*
X97252726Y-82119712D01*
X97304543Y-82101580D01*
X97374322Y-82098017D01*
X97434950Y-82132745D01*
X97467178Y-82194738D01*
X97469500Y-82218621D01*
X97469500Y-83817273D01*
X97469500Y-83922727D01*
X97483146Y-83973657D01*
X97496793Y-84024589D01*
X97515999Y-84057853D01*
X97549520Y-84115913D01*
X97549522Y-84115915D01*
X97721030Y-84287423D01*
X97754515Y-84348746D01*
X97749531Y-84418438D01*
X97709892Y-84472660D01*
X97702963Y-84478096D01*
X97631284Y-84519480D01*
X97562308Y-84588455D01*
X97556445Y-84593056D01*
X97530638Y-84603354D01*
X97506260Y-84616666D01*
X97493968Y-84617987D01*
X97491552Y-84618952D01*
X97489214Y-84618498D01*
X97479902Y-84619500D01*
X97114317Y-84619500D01*
X97047278Y-84599815D01*
X97001523Y-84547011D01*
X96991579Y-84477853D01*
X97014547Y-84421866D01*
X97017355Y-84418061D01*
X97074381Y-84340794D01*
X97106484Y-84249049D01*
X97117741Y-84216881D01*
X97117741Y-84216879D01*
X97118723Y-84206403D01*
X97120500Y-84187457D01*
X97120499Y-83812544D01*
X97117741Y-83783121D01*
X97074381Y-83659206D01*
X96996423Y-83553577D01*
X96996419Y-83553574D01*
X96989849Y-83547003D01*
X96990854Y-83545997D01*
X96954594Y-83498239D01*
X96949137Y-83428583D01*
X96977177Y-83376391D01*
X96975574Y-83375161D01*
X96980514Y-83368721D01*
X96980520Y-83368716D01*
X97059577Y-83231784D01*
X97100500Y-83079057D01*
X97100500Y-82920943D01*
X97059577Y-82768216D01*
X97038543Y-82731783D01*
X96980524Y-82631290D01*
X96980518Y-82631282D01*
X96868717Y-82519481D01*
X96868709Y-82519475D01*
X96731790Y-82440426D01*
X96731786Y-82440424D01*
X96731784Y-82440423D01*
X96579057Y-82399500D01*
X96420943Y-82399500D01*
X96268216Y-82440423D01*
X96268209Y-82440426D01*
X96131290Y-82519475D01*
X96131282Y-82519481D01*
X96087583Y-82563181D01*
X96026260Y-82596666D01*
X95999902Y-82599500D01*
X95552731Y-82599500D01*
X95552727Y-82599499D01*
X95447273Y-82599499D01*
X95348697Y-82625913D01*
X95345413Y-82626793D01*
X95343863Y-82627687D01*
X95343862Y-82627688D01*
X95254084Y-82679522D01*
X94179522Y-83754084D01*
X94179518Y-83754090D01*
X94126792Y-83845412D01*
X94126793Y-83845413D01*
X94099500Y-83947273D01*
X94099500Y-86459921D01*
X94099500Y-86565375D01*
X94108811Y-86600123D01*
X94126793Y-86667237D01*
X94151771Y-86710499D01*
X94179520Y-86758561D01*
X95331439Y-87910480D01*
X95422764Y-87963207D01*
X95524625Y-87990500D01*
X97315345Y-87990500D01*
X97377344Y-88007112D01*
X97468216Y-88059577D01*
X97620943Y-88100500D01*
X97620945Y-88100500D01*
X97779055Y-88100500D01*
X97779057Y-88100500D01*
X97931784Y-88059577D01*
X98068716Y-87980520D01*
X98180520Y-87868716D01*
X98259577Y-87731784D01*
X98300500Y-87579057D01*
X98300500Y-87420943D01*
X98259577Y-87268216D01*
X98214761Y-87190591D01*
X98180524Y-87131290D01*
X98180518Y-87131282D01*
X98068717Y-87019481D01*
X98068709Y-87019475D01*
X97931790Y-86940426D01*
X97931786Y-86940424D01*
X97931784Y-86940423D01*
X97779057Y-86899500D01*
X97620943Y-86899500D01*
X97468216Y-86940423D01*
X97468209Y-86940426D01*
X97331290Y-87019475D01*
X97324839Y-87024426D01*
X97323848Y-87023135D01*
X97270845Y-87052071D01*
X97201153Y-87047079D01*
X97145224Y-87005202D01*
X97120814Y-86939735D01*
X97120499Y-86930902D01*
X97120499Y-86832545D01*
X97117741Y-86803125D01*
X97117741Y-86803121D01*
X97074381Y-86679206D01*
X97003844Y-86583632D01*
X96979874Y-86518005D01*
X96995189Y-86449835D01*
X97003845Y-86436366D01*
X97020775Y-86413427D01*
X97074381Y-86340794D01*
X97115607Y-86222978D01*
X97117741Y-86216881D01*
X97117741Y-86216879D01*
X97120500Y-86187457D01*
X97120499Y-85812544D01*
X97117741Y-85783121D01*
X97074381Y-85659206D01*
X97044067Y-85618132D01*
X97020097Y-85552505D01*
X97035412Y-85484335D01*
X97085152Y-85435266D01*
X97143838Y-85420500D01*
X97519902Y-85420500D01*
X97586941Y-85440185D01*
X97607583Y-85456819D01*
X97631284Y-85480520D01*
X97631286Y-85480521D01*
X97631290Y-85480524D01*
X97768209Y-85559573D01*
X97768216Y-85559577D01*
X97920943Y-85600500D01*
X97920945Y-85600500D01*
X98079055Y-85600500D01*
X98079057Y-85600500D01*
X98231784Y-85559577D01*
X98368716Y-85480520D01*
X98480520Y-85368716D01*
X98517508Y-85304649D01*
X98568074Y-85256435D01*
X98636681Y-85243211D01*
X98701546Y-85269179D01*
X98712576Y-85278969D01*
X102894325Y-89460718D01*
X102927810Y-89522041D01*
X102924575Y-89586716D01*
X102877829Y-89730587D01*
X102849500Y-89909448D01*
X102849500Y-90090551D01*
X102877829Y-90269410D01*
X102933787Y-90441636D01*
X102933788Y-90441639D01*
X102989664Y-90551300D01*
X103015869Y-90602730D01*
X103016006Y-90602997D01*
X103122441Y-90749494D01*
X103122445Y-90749499D01*
X103160765Y-90787819D01*
X103194250Y-90849142D01*
X103189266Y-90918834D01*
X103147394Y-90974767D01*
X103081930Y-90999184D01*
X103073084Y-90999500D01*
X97966916Y-90999500D01*
X97899877Y-90979815D01*
X97854122Y-90927011D01*
X97844178Y-90857853D01*
X97873203Y-90794297D01*
X97879235Y-90787819D01*
X97917553Y-90749501D01*
X98023996Y-90602994D01*
X98106211Y-90441639D01*
X98162171Y-90269409D01*
X98176765Y-90177259D01*
X98190500Y-90090551D01*
X98190500Y-89909448D01*
X98162189Y-89730706D01*
X98162171Y-89730591D01*
X98106273Y-89558552D01*
X98106212Y-89558363D01*
X98106211Y-89558360D01*
X98056459Y-89460718D01*
X98023996Y-89397006D01*
X98010396Y-89378287D01*
X97917558Y-89250505D01*
X97917554Y-89250500D01*
X97789499Y-89122445D01*
X97789494Y-89122441D01*
X97642997Y-89016006D01*
X97642996Y-89016005D01*
X97642994Y-89016004D01*
X97566906Y-88977235D01*
X97481639Y-88933788D01*
X97481636Y-88933787D01*
X97309410Y-88877829D01*
X97130551Y-88849500D01*
X97130546Y-88849500D01*
X96949454Y-88849500D01*
X96949449Y-88849500D01*
X96770589Y-88877829D01*
X96598363Y-88933787D01*
X96598360Y-88933788D01*
X96437002Y-89016006D01*
X96290505Y-89122441D01*
X96290500Y-89122445D01*
X96162445Y-89250500D01*
X96162441Y-89250505D01*
X96056006Y-89397002D01*
X95973788Y-89558360D01*
X95973787Y-89558363D01*
X95917829Y-89730589D01*
X95892219Y-89892280D01*
X95862289Y-89955414D01*
X95802978Y-89992345D01*
X95733115Y-89991347D01*
X95674883Y-89952737D01*
X95647273Y-89892279D01*
X95621682Y-89730706D01*
X95565748Y-89558555D01*
X95565747Y-89558552D01*
X95483571Y-89397275D01*
X95483566Y-89397267D01*
X95472085Y-89381466D01*
X94982962Y-89870589D01*
X94965925Y-89807007D01*
X94900099Y-89692993D01*
X94807007Y-89599901D01*
X94692993Y-89534075D01*
X94629409Y-89517037D01*
X95118533Y-89027913D01*
X95102730Y-89016431D01*
X94941447Y-88934252D01*
X94941444Y-88934251D01*
X94769293Y-88878317D01*
X94590506Y-88850000D01*
X94409494Y-88850000D01*
X94230706Y-88878317D01*
X94058555Y-88934251D01*
X94058547Y-88934254D01*
X93897269Y-89016432D01*
X93881466Y-89027912D01*
X93881466Y-89027913D01*
X94370591Y-89517037D01*
X94307007Y-89534075D01*
X94192993Y-89599901D01*
X94099901Y-89692993D01*
X94034075Y-89807007D01*
X94017037Y-89870590D01*
X93527912Y-89381466D01*
X93516432Y-89397269D01*
X93434254Y-89558547D01*
X93434251Y-89558555D01*
X93378317Y-89730706D01*
X93356972Y-89865471D01*
X93327043Y-89928606D01*
X93267731Y-89965537D01*
X93197868Y-89964539D01*
X93139636Y-89925929D01*
X93111522Y-89861965D01*
X93110499Y-89846073D01*
X93110499Y-89105143D01*
X93110499Y-89105136D01*
X93107585Y-89080009D01*
X93062206Y-88977235D01*
X92982765Y-88897794D01*
X92982763Y-88897793D01*
X92879992Y-88852415D01*
X92854865Y-88849500D01*
X91065143Y-88849500D01*
X91065117Y-88849502D01*
X91040012Y-88852413D01*
X91040008Y-88852415D01*
X90937235Y-88897793D01*
X90857794Y-88977234D01*
X90812415Y-89080006D01*
X90812415Y-89080008D01*
X90809502Y-89105122D01*
X90809500Y-89105135D01*
X90809500Y-89999999D01*
X90809501Y-90875500D01*
X90789816Y-90942539D01*
X90737013Y-90988294D01*
X90685501Y-90999500D01*
X86926916Y-90999500D01*
X86859877Y-90979815D01*
X86814122Y-90927011D01*
X86804178Y-90857853D01*
X86833203Y-90794297D01*
X86839235Y-90787819D01*
X86877553Y-90749501D01*
X86983996Y-90602994D01*
X87066211Y-90441639D01*
X87122171Y-90269409D01*
X87136765Y-90177259D01*
X87150500Y-90090551D01*
X87150500Y-89909448D01*
X87122189Y-89730706D01*
X87122171Y-89730591D01*
X87075424Y-89586716D01*
X87073429Y-89516875D01*
X87105672Y-89460719D01*
X88083323Y-88483070D01*
X88136049Y-88391745D01*
X88136050Y-88391744D01*
X88163343Y-88289884D01*
X88163343Y-86480097D01*
X88183028Y-86413058D01*
X88199662Y-86392416D01*
X88244234Y-86347844D01*
X90300000Y-86347844D01*
X90306401Y-86407372D01*
X90306403Y-86407379D01*
X90356645Y-86542086D01*
X90356649Y-86542093D01*
X90442809Y-86657187D01*
X90442812Y-86657190D01*
X90557906Y-86743350D01*
X90557913Y-86743354D01*
X90692624Y-86793598D01*
X90750000Y-86799765D01*
X91250000Y-86799765D01*
X91307375Y-86793598D01*
X91442086Y-86743354D01*
X91442093Y-86743350D01*
X91557187Y-86657190D01*
X91557190Y-86657187D01*
X91643350Y-86542093D01*
X91643354Y-86542086D01*
X91693596Y-86407379D01*
X91693598Y-86407372D01*
X91699999Y-86347844D01*
X91700000Y-86347827D01*
X91700000Y-85750000D01*
X91250000Y-85750000D01*
X91250000Y-86799765D01*
X90750000Y-86799765D01*
X90750000Y-85750000D01*
X90300000Y-85750000D01*
X90300000Y-86347844D01*
X88244234Y-86347844D01*
X88981121Y-85610957D01*
X89348867Y-85243211D01*
X89720480Y-84871598D01*
X89773207Y-84780273D01*
X89800500Y-84678412D01*
X89800500Y-84652155D01*
X90300000Y-84652155D01*
X90300000Y-85250000D01*
X90750000Y-85250000D01*
X91250000Y-85250000D01*
X91700000Y-85250000D01*
X91700000Y-84652172D01*
X91699999Y-84652155D01*
X91693598Y-84592627D01*
X91693596Y-84592620D01*
X91643354Y-84457913D01*
X91643350Y-84457906D01*
X91557190Y-84342812D01*
X91557187Y-84342809D01*
X91442093Y-84256649D01*
X91442086Y-84256645D01*
X91307380Y-84206403D01*
X91307373Y-84206401D01*
X91250000Y-84200232D01*
X91250000Y-85250000D01*
X90750000Y-85250000D01*
X90750000Y-84200233D01*
X90749999Y-84200232D01*
X90692626Y-84206401D01*
X90692619Y-84206403D01*
X90557913Y-84256645D01*
X90557906Y-84256649D01*
X90442812Y-84342809D01*
X90442809Y-84342812D01*
X90356649Y-84457906D01*
X90356645Y-84457913D01*
X90306403Y-84592620D01*
X90306401Y-84592627D01*
X90300000Y-84652155D01*
X89800500Y-84652155D01*
X89800500Y-84572958D01*
X89800500Y-82082360D01*
X89820185Y-82015321D01*
X89872989Y-81969566D01*
X89942147Y-81959622D01*
X90005703Y-81988647D01*
X90012181Y-81994679D01*
X90014999Y-81997497D01*
X90015000Y-81997497D01*
X90015001Y-81997499D01*
X90121843Y-82076352D01*
X90139013Y-82082360D01*
X90247173Y-82120208D01*
X90247177Y-82120208D01*
X90247181Y-82120210D01*
X90262057Y-82121605D01*
X90276930Y-82123000D01*
X90276934Y-82123000D01*
X90723070Y-82123000D01*
X90736289Y-82121760D01*
X90752819Y-82120210D01*
X90752823Y-82120208D01*
X90752826Y-82120208D01*
X90819546Y-82096861D01*
X90878157Y-82076352D01*
X90984999Y-81997499D01*
X90988050Y-81993364D01*
X91043698Y-81951115D01*
X91087819Y-81943000D01*
X91348152Y-81943000D01*
X91415191Y-81962685D01*
X91446956Y-81992074D01*
X91457079Y-82005423D01*
X91577656Y-82096860D01*
X91577657Y-82096860D01*
X91577658Y-82096861D01*
X91718436Y-82152377D01*
X91806898Y-82163000D01*
X91806903Y-82163000D01*
X92793105Y-82163000D01*
X92796796Y-82162779D01*
X92796858Y-82163826D01*
X92861324Y-82174613D01*
X92913061Y-82221571D01*
X92931198Y-82289045D01*
X92927006Y-82318285D01*
X92899500Y-82420941D01*
X92899500Y-82420943D01*
X92899500Y-82579057D01*
X92939056Y-82726680D01*
X92940423Y-82731783D01*
X92940426Y-82731790D01*
X93019475Y-82868709D01*
X93019479Y-82868714D01*
X93019480Y-82868716D01*
X93131284Y-82980520D01*
X93131286Y-82980521D01*
X93131290Y-82980524D01*
X93230008Y-83037518D01*
X93268216Y-83059577D01*
X93420943Y-83100500D01*
X93420945Y-83100500D01*
X93579055Y-83100500D01*
X93579057Y-83100500D01*
X93731784Y-83059577D01*
X93868716Y-82980520D01*
X93980520Y-82868716D01*
X94059577Y-82731784D01*
X94100500Y-82579057D01*
X94100500Y-82420943D01*
X94073075Y-82318591D01*
X94074738Y-82248744D01*
X94113900Y-82190881D01*
X94178129Y-82163377D01*
X94192850Y-82162500D01*
X94250000Y-82162500D01*
X94750000Y-82162500D01*
X94993054Y-82162500D01*
X95081443Y-82151886D01*
X95222095Y-82096420D01*
X95342564Y-82005064D01*
X95433920Y-81884595D01*
X95470238Y-81792500D01*
X96402332Y-81792500D01*
X96436596Y-81890422D01*
X96515358Y-81997141D01*
X96622080Y-82075905D01*
X96747271Y-82119712D01*
X96747269Y-82119712D01*
X96750000Y-82119967D01*
X96750000Y-81792500D01*
X96402332Y-81792500D01*
X95470238Y-81792500D01*
X95489386Y-81743943D01*
X95500000Y-81655553D01*
X95500000Y-81512500D01*
X94750000Y-81512500D01*
X94750000Y-82162500D01*
X94250000Y-82162500D01*
X94250000Y-81386500D01*
X94269685Y-81319461D01*
X94322489Y-81273706D01*
X94374000Y-81262500D01*
X94500000Y-81262500D01*
X94500000Y-81136500D01*
X94519685Y-81069461D01*
X94572489Y-81023706D01*
X94624000Y-81012500D01*
X95500000Y-81012500D01*
X95500000Y-80990755D01*
X95519685Y-80923716D01*
X95572489Y-80877961D01*
X95641647Y-80868017D01*
X95705203Y-80897042D01*
G37*
%TD.AperFunction*%
%TA.AperFunction,Conductor*%
G36*
X93315702Y-90060214D02*
G01*
X93353476Y-90118992D01*
X93356972Y-90134529D01*
X93378317Y-90269293D01*
X93434251Y-90441444D01*
X93434252Y-90441447D01*
X93516431Y-90602730D01*
X93527913Y-90618532D01*
X93527913Y-90618533D01*
X94017037Y-90129409D01*
X94034075Y-90192993D01*
X94099901Y-90307007D01*
X94192993Y-90400099D01*
X94307007Y-90465925D01*
X94370590Y-90482962D01*
X93890371Y-90963181D01*
X93829048Y-90996666D01*
X93802690Y-90999500D01*
X93234500Y-90999500D01*
X93167461Y-90979815D01*
X93121706Y-90927011D01*
X93110500Y-90875500D01*
X93110500Y-90572565D01*
X93110499Y-90153925D01*
X93130183Y-90086888D01*
X93182987Y-90041133D01*
X93252146Y-90031189D01*
X93315702Y-90060214D01*
G37*
%TD.AperFunction*%
%TA.AperFunction,Conductor*%
G36*
X95806376Y-90008652D02*
G01*
X95864609Y-90047261D01*
X95892219Y-90107720D01*
X95917828Y-90269410D01*
X95973787Y-90441636D01*
X95973788Y-90441639D01*
X96029664Y-90551300D01*
X96055869Y-90602730D01*
X96056006Y-90602997D01*
X96162441Y-90749494D01*
X96162445Y-90749499D01*
X96200765Y-90787819D01*
X96234250Y-90849142D01*
X96229266Y-90918834D01*
X96187394Y-90974767D01*
X96121930Y-90999184D01*
X96113084Y-90999500D01*
X95197310Y-90999500D01*
X95130271Y-90979815D01*
X95109629Y-90963181D01*
X94629410Y-90482962D01*
X94692993Y-90465925D01*
X94807007Y-90400099D01*
X94900099Y-90307007D01*
X94965925Y-90192993D01*
X94982962Y-90129410D01*
X95472085Y-90618533D01*
X95472085Y-90618532D01*
X95483568Y-90602730D01*
X95565745Y-90441452D01*
X95565748Y-90441444D01*
X95621683Y-90269292D01*
X95647273Y-90107721D01*
X95677202Y-90044586D01*
X95736513Y-90007654D01*
X95806376Y-90008652D01*
G37*
%TD.AperFunction*%
%TA.AperFunction,Conductor*%
G36*
X104963181Y-85529628D02*
G01*
X104996666Y-85590951D01*
X104999500Y-85617309D01*
X104999500Y-86533084D01*
X104979815Y-86600123D01*
X104927011Y-86645878D01*
X104857853Y-86655822D01*
X104794297Y-86626797D01*
X104787819Y-86620765D01*
X104749499Y-86582445D01*
X104749494Y-86582441D01*
X104602997Y-86476006D01*
X104602996Y-86476005D01*
X104602994Y-86476004D01*
X104551300Y-86449664D01*
X104441639Y-86393788D01*
X104441636Y-86393787D01*
X104269410Y-86337828D01*
X104107720Y-86312219D01*
X104044585Y-86282289D01*
X104007654Y-86222978D01*
X104008652Y-86153115D01*
X104047262Y-86094883D01*
X104107721Y-86067273D01*
X104269292Y-86041683D01*
X104441444Y-85985748D01*
X104441452Y-85985745D01*
X104602730Y-85903568D01*
X104618532Y-85892085D01*
X104618533Y-85892085D01*
X104129410Y-85402962D01*
X104192993Y-85385925D01*
X104307007Y-85320099D01*
X104400099Y-85227007D01*
X104465925Y-85112993D01*
X104482962Y-85049409D01*
X104963181Y-85529628D01*
G37*
%TD.AperFunction*%
%TA.AperFunction,Conductor*%
G36*
X85534075Y-85112993D02*
G01*
X85599901Y-85227007D01*
X85692993Y-85320099D01*
X85807007Y-85385925D01*
X85870590Y-85402962D01*
X85381466Y-85892085D01*
X85381466Y-85892086D01*
X85397267Y-85903566D01*
X85397275Y-85903571D01*
X85558552Y-85985747D01*
X85558555Y-85985748D01*
X85730706Y-86041682D01*
X85892279Y-86067273D01*
X85955413Y-86097202D01*
X85992345Y-86156513D01*
X85991347Y-86226376D01*
X85952738Y-86284609D01*
X85892280Y-86312219D01*
X85730589Y-86337829D01*
X85558363Y-86393787D01*
X85558360Y-86393788D01*
X85397002Y-86476006D01*
X85250505Y-86582441D01*
X85250500Y-86582445D01*
X85212181Y-86620765D01*
X85150858Y-86654250D01*
X85081166Y-86649266D01*
X85025233Y-86607394D01*
X85000816Y-86541930D01*
X85000500Y-86533084D01*
X85000500Y-85617309D01*
X85020185Y-85550270D01*
X85036819Y-85529628D01*
X85517037Y-85049409D01*
X85534075Y-85112993D01*
G37*
%TD.AperFunction*%
%TA.AperFunction,Conductor*%
G36*
X88552152Y-80507941D02*
G01*
X88592680Y-80564855D01*
X88599500Y-80605411D01*
X88599500Y-84242744D01*
X88579815Y-84309783D01*
X88563181Y-84330425D01*
X86539280Y-86354325D01*
X86477957Y-86387810D01*
X86413281Y-86384575D01*
X86269410Y-86337828D01*
X86107720Y-86312219D01*
X86044585Y-86282289D01*
X86007654Y-86222978D01*
X86008652Y-86153115D01*
X86047262Y-86094883D01*
X86107721Y-86067273D01*
X86269292Y-86041683D01*
X86441444Y-85985748D01*
X86441452Y-85985745D01*
X86602730Y-85903568D01*
X86618532Y-85892085D01*
X86618533Y-85892085D01*
X86129410Y-85402962D01*
X86192993Y-85385925D01*
X86307007Y-85320099D01*
X86400099Y-85227007D01*
X86465925Y-85112993D01*
X86482962Y-85049409D01*
X86972085Y-85538532D01*
X86983568Y-85522730D01*
X87065745Y-85361452D01*
X87065748Y-85361444D01*
X87121682Y-85189293D01*
X87150000Y-85010506D01*
X87150000Y-84829493D01*
X87121682Y-84650706D01*
X87065748Y-84478555D01*
X87065747Y-84478552D01*
X86983571Y-84317275D01*
X86983566Y-84317267D01*
X86972085Y-84301466D01*
X86482962Y-84790589D01*
X86465925Y-84727007D01*
X86400099Y-84612993D01*
X86307007Y-84519901D01*
X86192993Y-84454075D01*
X86129409Y-84437037D01*
X86618533Y-83947913D01*
X86602730Y-83936431D01*
X86441447Y-83854252D01*
X86441444Y-83854251D01*
X86269293Y-83798317D01*
X86107720Y-83772726D01*
X86044585Y-83742797D01*
X86007654Y-83683485D01*
X86008652Y-83613623D01*
X86047262Y-83555390D01*
X86107720Y-83527780D01*
X86122270Y-83525475D01*
X86269409Y-83502171D01*
X86441639Y-83446211D01*
X86602994Y-83363996D01*
X86749501Y-83257553D01*
X86877553Y-83129501D01*
X86983996Y-82982994D01*
X87066211Y-82821639D01*
X87122171Y-82649409D01*
X87141208Y-82529215D01*
X87150500Y-82470551D01*
X87150500Y-82289448D01*
X87131409Y-82168916D01*
X87122171Y-82110591D01*
X87075424Y-81966716D01*
X87073429Y-81896875D01*
X87105672Y-81840719D01*
X88320480Y-80625913D01*
X88368113Y-80543411D01*
X88418680Y-80495195D01*
X88487287Y-80481973D01*
X88552152Y-80507941D01*
G37*
%TD.AperFunction*%
%TA.AperFunction,Conductor*%
G36*
X100003506Y-76448244D02*
G01*
X100047853Y-76476745D01*
X101563181Y-77992073D01*
X101596666Y-78053396D01*
X101599500Y-78079754D01*
X101599500Y-80327273D01*
X101599500Y-80432727D01*
X101612695Y-80481973D01*
X101626793Y-80534589D01*
X101631887Y-80543411D01*
X101679520Y-80625913D01*
X101679522Y-80625915D01*
X102894325Y-81840718D01*
X102927810Y-81902041D01*
X102924575Y-81966716D01*
X102877829Y-82110587D01*
X102849500Y-82289448D01*
X102849500Y-82470551D01*
X102877829Y-82649410D01*
X102933787Y-82821636D01*
X102933788Y-82821639D01*
X102965967Y-82884792D01*
X103014745Y-82980524D01*
X103016006Y-82982997D01*
X103122441Y-83129494D01*
X103122445Y-83129499D01*
X103250500Y-83257554D01*
X103250505Y-83257558D01*
X103347581Y-83328087D01*
X103397006Y-83363996D01*
X103478507Y-83405523D01*
X103558360Y-83446211D01*
X103558363Y-83446212D01*
X103640777Y-83472989D01*
X103730591Y-83502171D01*
X103850038Y-83521089D01*
X103892279Y-83527780D01*
X103955414Y-83557709D01*
X103992345Y-83617021D01*
X103991347Y-83686883D01*
X103952737Y-83745116D01*
X103892279Y-83772726D01*
X103730706Y-83798317D01*
X103558555Y-83854251D01*
X103558547Y-83854254D01*
X103397269Y-83936432D01*
X103381466Y-83947912D01*
X103381466Y-83947913D01*
X103870591Y-84437037D01*
X103807007Y-84454075D01*
X103692993Y-84519901D01*
X103599901Y-84612993D01*
X103534075Y-84727007D01*
X103517037Y-84790590D01*
X103027912Y-84301466D01*
X103016432Y-84317269D01*
X102934254Y-84478547D01*
X102934251Y-84478555D01*
X102878317Y-84650706D01*
X102850000Y-84829493D01*
X102850000Y-85010506D01*
X102878317Y-85189293D01*
X102934251Y-85361444D01*
X102934252Y-85361447D01*
X103016431Y-85522730D01*
X103027913Y-85538532D01*
X103027913Y-85538533D01*
X103517037Y-85049409D01*
X103534075Y-85112993D01*
X103599901Y-85227007D01*
X103692993Y-85320099D01*
X103807007Y-85385925D01*
X103870590Y-85402962D01*
X103381466Y-85892085D01*
X103381466Y-85892086D01*
X103397267Y-85903566D01*
X103397275Y-85903571D01*
X103558552Y-85985747D01*
X103558555Y-85985748D01*
X103730706Y-86041682D01*
X103892279Y-86067273D01*
X103955413Y-86097202D01*
X103992345Y-86156513D01*
X103991347Y-86226376D01*
X103952738Y-86284609D01*
X103892280Y-86312219D01*
X103730586Y-86337829D01*
X103586715Y-86384575D01*
X103516874Y-86386570D01*
X103460717Y-86354325D01*
X102018694Y-84912302D01*
X101977992Y-84871600D01*
X100565495Y-83459102D01*
X100532010Y-83397779D01*
X100536994Y-83328087D01*
X100565491Y-83283744D01*
X100674785Y-83174451D01*
X100753842Y-83037519D01*
X100794765Y-82884792D01*
X100794765Y-82726678D01*
X100753842Y-82573951D01*
X100722394Y-82519481D01*
X100674789Y-82437025D01*
X100674783Y-82437017D01*
X100562982Y-82325216D01*
X100562974Y-82325210D01*
X100426055Y-82246161D01*
X100426051Y-82246159D01*
X100426049Y-82246158D01*
X100273322Y-82205235D01*
X100273321Y-82205235D01*
X100211520Y-82205235D01*
X100144481Y-82185550D01*
X100123839Y-82168916D01*
X99326819Y-81371896D01*
X99293334Y-81310573D01*
X99290500Y-81284215D01*
X99290500Y-80057467D01*
X99750000Y-80057467D01*
X99752729Y-80057212D01*
X99877920Y-80013405D01*
X99912815Y-79987651D01*
X99978443Y-79963679D01*
X100046614Y-79978993D01*
X100060084Y-79987650D01*
X100122080Y-80033405D01*
X100247271Y-80077212D01*
X100247269Y-80077212D01*
X100250000Y-80077467D01*
X100750000Y-80077467D01*
X100752729Y-80077212D01*
X100877919Y-80033405D01*
X100984641Y-79954641D01*
X101063403Y-79847922D01*
X101097668Y-79750000D01*
X100750000Y-79750000D01*
X100750000Y-80077467D01*
X100250000Y-80077467D01*
X100250000Y-79750000D01*
X99831362Y-79750000D01*
X99764323Y-79730315D01*
X99763932Y-79730000D01*
X99750000Y-79730000D01*
X99750000Y-80057467D01*
X99290500Y-80057467D01*
X99290500Y-79604000D01*
X99310185Y-79536961D01*
X99362989Y-79491206D01*
X99414500Y-79480000D01*
X99500000Y-79480000D01*
X99500000Y-79354000D01*
X99519685Y-79286961D01*
X99572489Y-79241206D01*
X99624000Y-79230000D01*
X100168638Y-79230000D01*
X100235677Y-79249685D01*
X100236068Y-79250000D01*
X101097668Y-79250000D01*
X101063403Y-79152077D01*
X101020581Y-79094056D01*
X100996609Y-79028427D01*
X101011924Y-78960257D01*
X101020572Y-78946798D01*
X101063852Y-78888157D01*
X101103835Y-78773893D01*
X101107708Y-78762826D01*
X101107708Y-78762823D01*
X101107710Y-78762819D01*
X101109260Y-78746289D01*
X101110500Y-78733070D01*
X101110500Y-78346929D01*
X101108854Y-78329379D01*
X101107710Y-78317181D01*
X101107708Y-78317177D01*
X101107708Y-78317173D01*
X101067652Y-78202702D01*
X101063852Y-78191843D01*
X100984999Y-78085001D01*
X100878157Y-78006148D01*
X100878155Y-78006147D01*
X100752826Y-77962291D01*
X100752814Y-77962289D01*
X100723070Y-77959500D01*
X100723066Y-77959500D01*
X100276934Y-77959500D01*
X100276930Y-77959500D01*
X100247185Y-77962289D01*
X100247173Y-77962291D01*
X100121844Y-78006147D01*
X100087182Y-78031729D01*
X100065878Y-78039509D01*
X100046608Y-78051470D01*
X100033688Y-78051266D01*
X100021553Y-78055699D01*
X99999426Y-78050727D01*
X99976747Y-78050371D01*
X99959912Y-78041850D01*
X99953383Y-78040383D01*
X99944877Y-78035206D01*
X99942358Y-78033531D01*
X99878157Y-77986148D01*
X99863304Y-77980950D01*
X99850313Y-77972310D01*
X99837475Y-77957014D01*
X99821251Y-77945377D01*
X99815474Y-77930803D01*
X99805394Y-77918793D01*
X99802863Y-77898984D01*
X99795507Y-77880424D01*
X99794985Y-77869062D01*
X99794985Y-76605613D01*
X99814670Y-76538574D01*
X99831304Y-76517932D01*
X99872491Y-76476745D01*
X99933814Y-76443260D01*
X100003506Y-76448244D01*
G37*
%TD.AperFunction*%
%TA.AperFunction,Conductor*%
G36*
X85205703Y-83213203D02*
G01*
X85212181Y-83219235D01*
X85250500Y-83257554D01*
X85250505Y-83257558D01*
X85347581Y-83328087D01*
X85397006Y-83363996D01*
X85478507Y-83405523D01*
X85558360Y-83446211D01*
X85558363Y-83446212D01*
X85640777Y-83472989D01*
X85730591Y-83502171D01*
X85850038Y-83521089D01*
X85892279Y-83527780D01*
X85955414Y-83557709D01*
X85992345Y-83617021D01*
X85991347Y-83686883D01*
X85952737Y-83745116D01*
X85892279Y-83772726D01*
X85730706Y-83798317D01*
X85558555Y-83854251D01*
X85558547Y-83854254D01*
X85397269Y-83936432D01*
X85381466Y-83947912D01*
X85381466Y-83947913D01*
X85870591Y-84437037D01*
X85807007Y-84454075D01*
X85692993Y-84519901D01*
X85599901Y-84612993D01*
X85534075Y-84727007D01*
X85517037Y-84790590D01*
X85036819Y-84310372D01*
X85003334Y-84249049D01*
X85000500Y-84222691D01*
X85000500Y-83306916D01*
X85020185Y-83239877D01*
X85072989Y-83194122D01*
X85142147Y-83184178D01*
X85205703Y-83213203D01*
G37*
%TD.AperFunction*%
%TA.AperFunction,Conductor*%
G36*
X104918834Y-83190734D02*
G01*
X104974767Y-83232606D01*
X104999184Y-83298070D01*
X104999500Y-83306916D01*
X104999500Y-84222690D01*
X104979815Y-84289729D01*
X104963181Y-84310371D01*
X104482962Y-84790589D01*
X104465925Y-84727007D01*
X104400099Y-84612993D01*
X104307007Y-84519901D01*
X104192993Y-84454075D01*
X104129409Y-84437037D01*
X104618533Y-83947913D01*
X104602730Y-83936431D01*
X104441447Y-83854252D01*
X104441444Y-83854251D01*
X104269293Y-83798317D01*
X104107720Y-83772726D01*
X104044585Y-83742797D01*
X104007654Y-83683485D01*
X104008652Y-83613623D01*
X104047262Y-83555390D01*
X104107720Y-83527780D01*
X104122270Y-83525475D01*
X104269409Y-83502171D01*
X104441639Y-83446211D01*
X104602994Y-83363996D01*
X104749501Y-83257553D01*
X104787819Y-83219235D01*
X104849142Y-83185750D01*
X104918834Y-83190734D01*
G37*
%TD.AperFunction*%
%TA.AperFunction,Conductor*%
G36*
X93718834Y-76152803D02*
G01*
X93774767Y-76194675D01*
X93799184Y-76260139D01*
X93799500Y-76268985D01*
X93799500Y-76666939D01*
X93800041Y-76668958D01*
X93800041Y-76671046D01*
X93800561Y-76674996D01*
X93800041Y-76675064D01*
X93800041Y-76727031D01*
X93800561Y-76727100D01*
X93800041Y-76731049D01*
X93800041Y-76733136D01*
X93799500Y-76735156D01*
X93799500Y-76893270D01*
X93836295Y-77030589D01*
X93840423Y-77045996D01*
X93840426Y-77046003D01*
X93919475Y-77182922D01*
X93919481Y-77182930D01*
X93966870Y-77230319D01*
X94000355Y-77291642D01*
X93995371Y-77361334D01*
X93953499Y-77417267D01*
X93888035Y-77441684D01*
X93879190Y-77442000D01*
X93792546Y-77442000D01*
X93763125Y-77444758D01*
X93763115Y-77444760D01*
X93639207Y-77488118D01*
X93533576Y-77566076D01*
X93455618Y-77671707D01*
X93412258Y-77795618D01*
X93412258Y-77795620D01*
X93409500Y-77825038D01*
X93409500Y-78015244D01*
X93389815Y-78082283D01*
X93373181Y-78102925D01*
X93179522Y-78296584D01*
X93179518Y-78296590D01*
X93126869Y-78387779D01*
X93126868Y-78387780D01*
X93126793Y-78387912D01*
X93126793Y-78387913D01*
X93099500Y-78489773D01*
X93099500Y-78585453D01*
X93098328Y-78593918D01*
X93087347Y-78618297D01*
X93079815Y-78643950D01*
X93073219Y-78649664D01*
X93069635Y-78657624D01*
X93047214Y-78672198D01*
X93027011Y-78689705D01*
X93018372Y-78690947D01*
X93011055Y-78695704D01*
X92984318Y-78695843D01*
X92957853Y-78699649D01*
X92944290Y-78696052D01*
X92941186Y-78696069D01*
X92938918Y-78694628D01*
X92930010Y-78692266D01*
X92881443Y-78673113D01*
X92793054Y-78662500D01*
X92550000Y-78662500D01*
X92550000Y-79438500D01*
X92530315Y-79505539D01*
X92477511Y-79551294D01*
X92426000Y-79562500D01*
X92300000Y-79562500D01*
X92300000Y-79688500D01*
X92280315Y-79755539D01*
X92227511Y-79801294D01*
X92176000Y-79812500D01*
X91300000Y-79812500D01*
X91300000Y-79955553D01*
X91310613Y-80043943D01*
X91366079Y-80184595D01*
X91457436Y-80305066D01*
X91468402Y-80313382D01*
X91509925Y-80369574D01*
X91514477Y-80439296D01*
X91480612Y-80500410D01*
X91468403Y-80510989D01*
X91457078Y-80519576D01*
X91365639Y-80640156D01*
X91350229Y-80679235D01*
X91310123Y-80780936D01*
X91310122Y-80780938D01*
X91307207Y-80788332D01*
X91305562Y-80787683D01*
X91275028Y-80839398D01*
X91212615Y-80870806D01*
X91143130Y-80863485D01*
X91104192Y-80832500D01*
X90624000Y-80832500D01*
X90556961Y-80812815D01*
X90511206Y-80760011D01*
X90500000Y-80708500D01*
X90500000Y-80582500D01*
X90374000Y-80582500D01*
X90306961Y-80562815D01*
X90261206Y-80510011D01*
X90250000Y-80458500D01*
X90250000Y-80332500D01*
X90750000Y-80332500D01*
X91097668Y-80332500D01*
X91063403Y-80234577D01*
X90984641Y-80127858D01*
X90877919Y-80049094D01*
X90752727Y-80005287D01*
X90752725Y-80005286D01*
X90750000Y-80005030D01*
X90750000Y-80332500D01*
X90250000Y-80332500D01*
X90250000Y-80005031D01*
X90249999Y-80005030D01*
X90247274Y-80005286D01*
X90247272Y-80005287D01*
X90122080Y-80049094D01*
X90015356Y-80127860D01*
X90012181Y-80131036D01*
X89950858Y-80164521D01*
X89881166Y-80159537D01*
X89825233Y-80117665D01*
X89800816Y-80052201D01*
X89800500Y-80043355D01*
X89800500Y-79382941D01*
X89820185Y-79315902D01*
X89836819Y-79295260D01*
X89962633Y-79169446D01*
X91300000Y-79169446D01*
X91300000Y-79312500D01*
X92050000Y-79312500D01*
X92050000Y-78662500D01*
X91806946Y-78662500D01*
X91718556Y-78673113D01*
X91577904Y-78728579D01*
X91457435Y-78819935D01*
X91366079Y-78940404D01*
X91310613Y-79081056D01*
X91300000Y-79169446D01*
X89962633Y-79169446D01*
X91795260Y-77336819D01*
X91856583Y-77303334D01*
X91882941Y-77300500D01*
X92355456Y-77300500D01*
X92355458Y-77300500D01*
X92457319Y-77273207D01*
X92548644Y-77220480D01*
X93587819Y-76181303D01*
X93649142Y-76147819D01*
X93718834Y-76152803D01*
G37*
%TD.AperFunction*%
%TA.AperFunction,Conductor*%
G36*
X96943039Y-77729685D02*
G01*
X96988794Y-77782489D01*
X97000000Y-77834000D01*
X97000000Y-77960000D01*
X97126000Y-77960000D01*
X97193039Y-77979685D01*
X97238794Y-78032489D01*
X97250000Y-78084000D01*
X97250000Y-78537467D01*
X97252726Y-78537212D01*
X97304543Y-78519080D01*
X97374322Y-78515517D01*
X97434950Y-78550245D01*
X97467178Y-78612238D01*
X97469500Y-78636121D01*
X97469500Y-79905848D01*
X97449815Y-79972887D01*
X97397011Y-80018642D01*
X97327853Y-80028586D01*
X97304545Y-80022889D01*
X97252826Y-80004791D01*
X97252814Y-80004789D01*
X97223070Y-80002000D01*
X97223066Y-80002000D01*
X96776934Y-80002000D01*
X96776930Y-80002000D01*
X96747185Y-80004789D01*
X96747173Y-80004791D01*
X96621844Y-80048647D01*
X96515000Y-80127501D01*
X96511950Y-80131635D01*
X96507970Y-80134656D01*
X96505894Y-80139203D01*
X96480417Y-80155575D01*
X96456302Y-80173885D01*
X96450173Y-80175012D01*
X96447116Y-80176977D01*
X96412181Y-80182000D01*
X96174755Y-80182000D01*
X96107716Y-80162315D01*
X96087074Y-80145681D01*
X95536819Y-79595426D01*
X95503334Y-79534103D01*
X95500500Y-79507745D01*
X95500500Y-79169403D01*
X95500500Y-79169398D01*
X95489877Y-79080936D01*
X95434361Y-78940158D01*
X95434360Y-78940157D01*
X95434360Y-78940156D01*
X95342920Y-78819575D01*
X95338789Y-78815444D01*
X95332523Y-78803968D01*
X95322586Y-78795469D01*
X95316100Y-78773893D01*
X95305304Y-78754121D01*
X95306236Y-78741077D01*
X95302473Y-78728556D01*
X95308680Y-78706902D01*
X95310288Y-78684429D01*
X95318564Y-78672427D01*
X95321728Y-78661392D01*
X95338851Y-78643007D01*
X95344669Y-78634572D01*
X95348611Y-78631111D01*
X95446423Y-78558923D01*
X95475065Y-78520113D01*
X95485101Y-78511305D01*
X95505161Y-78501988D01*
X95522777Y-78488613D01*
X95536230Y-78487558D01*
X95548470Y-78481874D01*
X95570383Y-78484881D01*
X95592433Y-78483153D01*
X95613195Y-78490656D01*
X95613308Y-78490336D01*
X95615360Y-78491054D01*
X95617691Y-78491374D01*
X95618671Y-78492212D01*
X95747271Y-78537212D01*
X95747269Y-78537212D01*
X95750000Y-78537467D01*
X96250000Y-78537467D01*
X96252729Y-78537212D01*
X96377919Y-78493405D01*
X96426366Y-78457650D01*
X96491994Y-78433679D01*
X96560165Y-78448994D01*
X96573634Y-78457650D01*
X96622080Y-78493405D01*
X96747271Y-78537212D01*
X96747269Y-78537212D01*
X96750000Y-78537467D01*
X96750000Y-78210000D01*
X96250000Y-78210000D01*
X96250000Y-78537467D01*
X95750000Y-78537467D01*
X95750000Y-78084000D01*
X95769685Y-78016961D01*
X95822489Y-77971206D01*
X95874000Y-77960000D01*
X96000000Y-77960000D01*
X96000000Y-77834000D01*
X96019685Y-77766961D01*
X96072489Y-77721206D01*
X96124000Y-77710000D01*
X96876000Y-77710000D01*
X96943039Y-77729685D01*
G37*
%TD.AperFunction*%
%TA.AperFunction,Conductor*%
G36*
X102851442Y-70084787D02*
G01*
X102866647Y-70084136D01*
X102884285Y-70094431D01*
X102903879Y-70100185D01*
X102914775Y-70112229D01*
X102926989Y-70119358D01*
X102947325Y-70148205D01*
X103008474Y-70268216D01*
X103016006Y-70282997D01*
X103122441Y-70429494D01*
X103122445Y-70429499D01*
X103250500Y-70557554D01*
X103250505Y-70557558D01*
X103362801Y-70639145D01*
X103397006Y-70663996D01*
X103502484Y-70717740D01*
X103558360Y-70746211D01*
X103558363Y-70746212D01*
X103644476Y-70774191D01*
X103730591Y-70802171D01*
X103850038Y-70821089D01*
X103892279Y-70827780D01*
X103955414Y-70857709D01*
X103992345Y-70917021D01*
X103991347Y-70986883D01*
X103952737Y-71045116D01*
X103892279Y-71072726D01*
X103730706Y-71098317D01*
X103558555Y-71154251D01*
X103558547Y-71154254D01*
X103397269Y-71236432D01*
X103381466Y-71247912D01*
X103381466Y-71247913D01*
X103870591Y-71737037D01*
X103807007Y-71754075D01*
X103692993Y-71819901D01*
X103599901Y-71912993D01*
X103534075Y-72027007D01*
X103517037Y-72090590D01*
X103027913Y-71601466D01*
X103027912Y-71601466D01*
X103016432Y-71617269D01*
X102934254Y-71778547D01*
X102934251Y-71778555D01*
X102878317Y-71950706D01*
X102850000Y-72129493D01*
X102850000Y-72310506D01*
X102878317Y-72489293D01*
X102934251Y-72661444D01*
X102934252Y-72661447D01*
X103016431Y-72822730D01*
X103027913Y-72838532D01*
X103027913Y-72838533D01*
X103517037Y-72349409D01*
X103534075Y-72412993D01*
X103599901Y-72527007D01*
X103692993Y-72620099D01*
X103807007Y-72685925D01*
X103870590Y-72702962D01*
X103381466Y-73192085D01*
X103381466Y-73192086D01*
X103397267Y-73203566D01*
X103397275Y-73203571D01*
X103558552Y-73285747D01*
X103558555Y-73285748D01*
X103730706Y-73341682D01*
X103892279Y-73367273D01*
X103955413Y-73397202D01*
X103992345Y-73456513D01*
X103991347Y-73526376D01*
X103952738Y-73584609D01*
X103892280Y-73612219D01*
X103730589Y-73637829D01*
X103558363Y-73693787D01*
X103558360Y-73693788D01*
X103397002Y-73776006D01*
X103250505Y-73882441D01*
X103250500Y-73882445D01*
X103122445Y-74010500D01*
X103122441Y-74010505D01*
X103016006Y-74157002D01*
X102933788Y-74318360D01*
X102933787Y-74318363D01*
X102877829Y-74490589D01*
X102849500Y-74669448D01*
X102849500Y-74850551D01*
X102877829Y-75029410D01*
X102933787Y-75201636D01*
X102933788Y-75201639D01*
X102984714Y-75301585D01*
X103011522Y-75354198D01*
X103016006Y-75362997D01*
X103122441Y-75509494D01*
X103122445Y-75509499D01*
X103250500Y-75637554D01*
X103250505Y-75637558D01*
X103378287Y-75730396D01*
X103397006Y-75743996D01*
X103502484Y-75797740D01*
X103558360Y-75826211D01*
X103558363Y-75826212D01*
X103644476Y-75854191D01*
X103730591Y-75882171D01*
X103803639Y-75893740D01*
X103890678Y-75907527D01*
X103953813Y-75937456D01*
X103990744Y-75996768D01*
X103989746Y-76066631D01*
X103951136Y-76124863D01*
X103890678Y-76152473D01*
X103730589Y-76177829D01*
X103558363Y-76233787D01*
X103558360Y-76233788D01*
X103397002Y-76316006D01*
X103250505Y-76422441D01*
X103250500Y-76422445D01*
X103122445Y-76550500D01*
X103122441Y-76550505D01*
X103016006Y-76697002D01*
X102933788Y-76858360D01*
X102933787Y-76858363D01*
X102888984Y-76996256D01*
X102849547Y-77053931D01*
X102785188Y-77081130D01*
X102716342Y-77069215D01*
X102683372Y-77045619D01*
X100587494Y-74949741D01*
X100554009Y-74888418D01*
X100558993Y-74818726D01*
X100600865Y-74762793D01*
X100613159Y-74754683D01*
X100728030Y-74688363D01*
X100839834Y-74576559D01*
X100918891Y-74439627D01*
X100959814Y-74286900D01*
X100959814Y-74128786D01*
X100918891Y-73976059D01*
X100901466Y-73945878D01*
X100839838Y-73839133D01*
X100839832Y-73839125D01*
X100796133Y-73795426D01*
X100762648Y-73734103D01*
X100759814Y-73707745D01*
X100759814Y-73357941D01*
X100779499Y-73290902D01*
X100796133Y-73270260D01*
X101723839Y-72342554D01*
X101785162Y-72309069D01*
X101811520Y-72306235D01*
X101873320Y-72306235D01*
X101873322Y-72306235D01*
X102026049Y-72265312D01*
X102162981Y-72186255D01*
X102274785Y-72074451D01*
X102353842Y-71937519D01*
X102394765Y-71784792D01*
X102394765Y-71626678D01*
X102353842Y-71473951D01*
X102347628Y-71463188D01*
X102274789Y-71337025D01*
X102274783Y-71337017D01*
X102162982Y-71225216D01*
X102162974Y-71225210D01*
X102026055Y-71146161D01*
X102026050Y-71146158D01*
X101990740Y-71136697D01*
X101962929Y-71129245D01*
X101903271Y-71092881D01*
X101872742Y-71030034D01*
X101881037Y-70960658D01*
X101907341Y-70921793D01*
X102712316Y-70116819D01*
X102773639Y-70083334D01*
X102799997Y-70080500D01*
X102836840Y-70080500D01*
X102851442Y-70084787D01*
G37*
%TD.AperFunction*%
%TA.AperFunction,Conductor*%
G36*
X92286497Y-73533220D02*
G01*
X92305185Y-73544010D01*
X92457912Y-73584933D01*
X92519714Y-73584933D01*
X92586753Y-73604618D01*
X92607395Y-73621252D01*
X92976693Y-73990550D01*
X92981811Y-73999923D01*
X92990192Y-74006547D01*
X92998265Y-74030057D01*
X93010178Y-74051873D01*
X93009416Y-74062526D01*
X93012885Y-74072628D01*
X93006967Y-74096768D01*
X93005194Y-74121565D01*
X92998792Y-74130115D01*
X92996250Y-74140489D01*
X92978217Y-74157600D01*
X92963322Y-74177498D01*
X92951976Y-74182500D01*
X92945567Y-74188583D01*
X92918788Y-74197135D01*
X92912187Y-74200046D01*
X92909551Y-74200547D01*
X92848607Y-74209427D01*
X92839516Y-74213871D01*
X92823175Y-74216980D01*
X92804284Y-74215130D01*
X92785575Y-74218323D01*
X92760955Y-74211094D01*
X92760592Y-74212270D01*
X92753879Y-74210195D01*
X92753637Y-74210172D01*
X92753530Y-74210088D01*
X92751388Y-74209425D01*
X92683261Y-74199500D01*
X92683260Y-74199500D01*
X92516740Y-74199500D01*
X92516739Y-74199500D01*
X92448611Y-74209425D01*
X92439408Y-74212270D01*
X92438500Y-74209333D01*
X92386192Y-74218394D01*
X92364842Y-74216001D01*
X92351393Y-74209427D01*
X92283260Y-74199500D01*
X92217573Y-74199500D01*
X92210692Y-74198729D01*
X92184598Y-74187783D01*
X92157461Y-74179815D01*
X92152812Y-74174450D01*
X92146261Y-74171702D01*
X92130225Y-74148384D01*
X92111706Y-74127011D01*
X92109937Y-74118880D01*
X92106671Y-74114131D01*
X92106296Y-74102146D01*
X92100500Y-74075500D01*
X92100500Y-74016745D01*
X92100500Y-74016740D01*
X92090573Y-73948607D01*
X92090571Y-73948604D01*
X92090571Y-73948600D01*
X92087730Y-73939404D01*
X92090709Y-73938483D01*
X92081673Y-73885610D01*
X92088910Y-73860960D01*
X92087730Y-73860596D01*
X92090571Y-73851399D01*
X92090571Y-73851396D01*
X92090573Y-73851393D01*
X92100500Y-73783260D01*
X92100500Y-73640609D01*
X92120185Y-73573570D01*
X92172989Y-73527815D01*
X92242147Y-73517871D01*
X92286497Y-73533220D01*
G37*
%TD.AperFunction*%
%TA.AperFunction,Conductor*%
G36*
X95984185Y-69203050D02*
G01*
X95993147Y-69201762D01*
X96017187Y-69212740D01*
X96042539Y-69220185D01*
X96048466Y-69227025D01*
X96056703Y-69230787D01*
X96070992Y-69253021D01*
X96088294Y-69272989D01*
X96090581Y-69283503D01*
X96094477Y-69289565D01*
X96099500Y-69324500D01*
X96099500Y-69347273D01*
X96099500Y-69452727D01*
X96104152Y-69470087D01*
X96126793Y-69554589D01*
X96146923Y-69589454D01*
X96179520Y-69645913D01*
X96179522Y-69645915D01*
X96454505Y-69920898D01*
X96487990Y-69982221D01*
X96483006Y-70051913D01*
X96454506Y-70096259D01*
X96419483Y-70131282D01*
X96419477Y-70131290D01*
X96340428Y-70268209D01*
X96340425Y-70268216D01*
X96299502Y-70420943D01*
X96299502Y-70579056D01*
X96299503Y-70579065D01*
X96300042Y-70581077D01*
X96300042Y-70583159D01*
X96300563Y-70587118D01*
X96300042Y-70587186D01*
X96300042Y-70639145D01*
X96300561Y-70639214D01*
X96300042Y-70643149D01*
X96300043Y-70645245D01*
X96299500Y-70647269D01*
X96299500Y-73186255D01*
X96296887Y-73197793D01*
X96297923Y-73205970D01*
X96289978Y-73228311D01*
X96287409Y-73239662D01*
X96281442Y-73252164D01*
X96279520Y-73254087D01*
X96226793Y-73345412D01*
X96216752Y-73382888D01*
X96213801Y-73393900D01*
X96213800Y-73393903D01*
X96199500Y-73447273D01*
X96199500Y-73833745D01*
X96179815Y-73900784D01*
X96127011Y-73946539D01*
X96057853Y-73956483D01*
X95994297Y-73927458D01*
X95987819Y-73921426D01*
X95745915Y-73679522D01*
X95745913Y-73679520D01*
X95745910Y-73679518D01*
X95745906Y-73679515D01*
X95662499Y-73631359D01*
X95614284Y-73580792D01*
X95601715Y-73528984D01*
X95601561Y-73529005D01*
X95601371Y-73527564D01*
X95600500Y-73523973D01*
X95600500Y-73520947D01*
X95600500Y-73520945D01*
X95559577Y-73368218D01*
X95535661Y-73326794D01*
X95480524Y-73231292D01*
X95480518Y-73231284D01*
X95368717Y-73119483D01*
X95368709Y-73119477D01*
X95231790Y-73040428D01*
X95231786Y-73040426D01*
X95231784Y-73040425D01*
X95079057Y-72999502D01*
X94920943Y-72999502D01*
X94768216Y-73040425D01*
X94768209Y-73040428D01*
X94631290Y-73119477D01*
X94631282Y-73119483D01*
X94519481Y-73231284D01*
X94519475Y-73231292D01*
X94440426Y-73368211D01*
X94440423Y-73368218D01*
X94399500Y-73520945D01*
X94399500Y-73675500D01*
X94379815Y-73742539D01*
X94327011Y-73788294D01*
X94275500Y-73799500D01*
X93969791Y-73799500D01*
X93902752Y-73779815D01*
X93882110Y-73763181D01*
X93173788Y-73054859D01*
X93140303Y-72993536D01*
X93137469Y-72967178D01*
X93137469Y-72905378D01*
X93137469Y-72905376D01*
X93096546Y-72752649D01*
X93091847Y-72744510D01*
X93017493Y-72615723D01*
X93017487Y-72615715D01*
X92905686Y-72503914D01*
X92905678Y-72503908D01*
X92768759Y-72424859D01*
X92768754Y-72424856D01*
X92633788Y-72388692D01*
X92574128Y-72352326D01*
X92543599Y-72289479D01*
X92551894Y-72220104D01*
X92578196Y-72181241D01*
X92670903Y-72088535D01*
X92749960Y-71951603D01*
X92790883Y-71798876D01*
X92790883Y-71640762D01*
X92749960Y-71488035D01*
X92735614Y-71463187D01*
X92678694Y-71364596D01*
X92662221Y-71296696D01*
X92678693Y-71240599D01*
X92738682Y-71136695D01*
X92779605Y-70983968D01*
X92779605Y-70825854D01*
X92738682Y-70673127D01*
X92687275Y-70584087D01*
X92674512Y-70561980D01*
X92658039Y-70494079D01*
X92674511Y-70437983D01*
X92738597Y-70326982D01*
X92779520Y-70174255D01*
X92779520Y-70174249D01*
X92781267Y-70167730D01*
X92817632Y-70108070D01*
X92868946Y-70080049D01*
X92945351Y-70059577D01*
X93082283Y-69980520D01*
X93194087Y-69868716D01*
X93273144Y-69731784D01*
X93314067Y-69579057D01*
X93314067Y-69514063D01*
X93316617Y-69505377D01*
X93315329Y-69496416D01*
X93326307Y-69472375D01*
X93333752Y-69447024D01*
X93340592Y-69441096D01*
X93344354Y-69432860D01*
X93366588Y-69418570D01*
X93386556Y-69401269D01*
X93397070Y-69398981D01*
X93403132Y-69395086D01*
X93438067Y-69390063D01*
X93542290Y-69390063D01*
X93543259Y-69390063D01*
X93610298Y-69409748D01*
X93630940Y-69426382D01*
X93674641Y-69470083D01*
X93674643Y-69470084D01*
X93674647Y-69470087D01*
X93750817Y-69514063D01*
X93811573Y-69549140D01*
X93964300Y-69590063D01*
X93964302Y-69590063D01*
X94122412Y-69590063D01*
X94122414Y-69590063D01*
X94275141Y-69549140D01*
X94412073Y-69470083D01*
X94523877Y-69358279D01*
X94573119Y-69272989D01*
X94579175Y-69262500D01*
X94629742Y-69214285D01*
X94686562Y-69200500D01*
X95247273Y-69200500D01*
X95550913Y-69200500D01*
X95975500Y-69200500D01*
X95984185Y-69203050D01*
G37*
%TD.AperFunction*%
%TA.AperFunction,Conductor*%
G36*
X104963181Y-72829628D02*
G01*
X104996666Y-72890951D01*
X104999500Y-72917309D01*
X104999500Y-73833084D01*
X104979815Y-73900123D01*
X104927011Y-73945878D01*
X104857853Y-73955822D01*
X104794297Y-73926797D01*
X104787819Y-73920765D01*
X104749499Y-73882445D01*
X104749494Y-73882441D01*
X104602997Y-73776006D01*
X104602996Y-73776005D01*
X104602994Y-73776004D01*
X104537316Y-73742539D01*
X104441639Y-73693788D01*
X104441636Y-73693787D01*
X104269410Y-73637828D01*
X104107720Y-73612219D01*
X104044585Y-73582289D01*
X104007654Y-73522978D01*
X104008652Y-73453115D01*
X104047262Y-73394883D01*
X104107721Y-73367273D01*
X104269292Y-73341683D01*
X104441444Y-73285748D01*
X104441452Y-73285745D01*
X104602730Y-73203568D01*
X104618532Y-73192085D01*
X104618533Y-73192085D01*
X104129410Y-72702962D01*
X104192993Y-72685925D01*
X104307007Y-72620099D01*
X104400099Y-72527007D01*
X104465925Y-72412993D01*
X104482962Y-72349409D01*
X104963181Y-72829628D01*
G37*
%TD.AperFunction*%
%TA.AperFunction,Conductor*%
G36*
X85534075Y-72412993D02*
G01*
X85599901Y-72527007D01*
X85692993Y-72620099D01*
X85807007Y-72685925D01*
X85870590Y-72702962D01*
X85381466Y-73192085D01*
X85381466Y-73192086D01*
X85397267Y-73203566D01*
X85397275Y-73203571D01*
X85558552Y-73285747D01*
X85558555Y-73285748D01*
X85730706Y-73341682D01*
X85892279Y-73367273D01*
X85955413Y-73397202D01*
X85992345Y-73456513D01*
X85991347Y-73526376D01*
X85952738Y-73584609D01*
X85892280Y-73612219D01*
X85730589Y-73637829D01*
X85558363Y-73693787D01*
X85558360Y-73693788D01*
X85397002Y-73776006D01*
X85250505Y-73882441D01*
X85250500Y-73882445D01*
X85212181Y-73920765D01*
X85150858Y-73954250D01*
X85081166Y-73949266D01*
X85025233Y-73907394D01*
X85000816Y-73841930D01*
X85000500Y-73833084D01*
X85000500Y-72917309D01*
X85020185Y-72850270D01*
X85036819Y-72829628D01*
X85517037Y-72349409D01*
X85534075Y-72412993D01*
G37*
%TD.AperFunction*%
%TA.AperFunction,Conductor*%
G36*
X86972085Y-72838532D02*
G01*
X86983566Y-72822732D01*
X86997541Y-72795306D01*
X87045515Y-72744510D01*
X87113336Y-72727715D01*
X87179471Y-72750252D01*
X87195707Y-72763920D01*
X87519607Y-73087819D01*
X87553092Y-73149142D01*
X87548108Y-73218833D01*
X87506237Y-73274767D01*
X87440772Y-73299184D01*
X87431926Y-73299500D01*
X87007273Y-73299500D01*
X86905413Y-73326793D01*
X86905410Y-73326794D01*
X86873164Y-73345412D01*
X86860494Y-73352727D01*
X86837290Y-73366123D01*
X86814088Y-73379519D01*
X86814085Y-73379521D01*
X86539281Y-73654325D01*
X86477958Y-73687810D01*
X86413283Y-73684575D01*
X86269411Y-73637829D01*
X86269412Y-73637829D01*
X86107720Y-73612219D01*
X86044585Y-73582289D01*
X86007654Y-73522978D01*
X86008652Y-73453115D01*
X86047262Y-73394883D01*
X86107721Y-73367273D01*
X86269292Y-73341683D01*
X86441444Y-73285748D01*
X86441452Y-73285745D01*
X86602730Y-73203568D01*
X86618532Y-73192085D01*
X86618533Y-73192085D01*
X86129410Y-72702962D01*
X86192993Y-72685925D01*
X86307007Y-72620099D01*
X86400099Y-72527007D01*
X86465925Y-72412993D01*
X86482962Y-72349409D01*
X86972085Y-72838532D01*
G37*
%TD.AperFunction*%
%TA.AperFunction,Conductor*%
G36*
X85205703Y-70513203D02*
G01*
X85212181Y-70519235D01*
X85250500Y-70557554D01*
X85250505Y-70557558D01*
X85362801Y-70639145D01*
X85397006Y-70663996D01*
X85502484Y-70717740D01*
X85558360Y-70746211D01*
X85558363Y-70746212D01*
X85644476Y-70774191D01*
X85730591Y-70802171D01*
X85850038Y-70821089D01*
X85892279Y-70827780D01*
X85955414Y-70857709D01*
X85992345Y-70917021D01*
X85991347Y-70986883D01*
X85952737Y-71045116D01*
X85892279Y-71072726D01*
X85730706Y-71098317D01*
X85558555Y-71154251D01*
X85558547Y-71154254D01*
X85397269Y-71236432D01*
X85381466Y-71247912D01*
X85381466Y-71247913D01*
X85870590Y-71737037D01*
X85807007Y-71754075D01*
X85692993Y-71819901D01*
X85599901Y-71912993D01*
X85534075Y-72027007D01*
X85517037Y-72090590D01*
X85036819Y-71610372D01*
X85003334Y-71549049D01*
X85000500Y-71522691D01*
X85000500Y-70606916D01*
X85020185Y-70539877D01*
X85072989Y-70494122D01*
X85142147Y-70484178D01*
X85205703Y-70513203D01*
G37*
%TD.AperFunction*%
%TA.AperFunction,Conductor*%
G36*
X104918834Y-70490734D02*
G01*
X104974767Y-70532606D01*
X104999184Y-70598070D01*
X104999500Y-70606916D01*
X104999500Y-71522690D01*
X104979815Y-71589729D01*
X104963181Y-71610371D01*
X104482962Y-72090589D01*
X104465925Y-72027007D01*
X104400099Y-71912993D01*
X104307007Y-71819901D01*
X104192993Y-71754075D01*
X104129409Y-71737037D01*
X104618533Y-71247913D01*
X104602730Y-71236431D01*
X104441447Y-71154252D01*
X104441444Y-71154251D01*
X104269293Y-71098317D01*
X104107720Y-71072726D01*
X104044585Y-71042797D01*
X104007654Y-70983485D01*
X104008652Y-70913623D01*
X104047262Y-70855390D01*
X104107720Y-70827780D01*
X104122270Y-70825475D01*
X104269409Y-70802171D01*
X104441639Y-70746211D01*
X104602994Y-70663996D01*
X104749501Y-70557553D01*
X104787819Y-70519235D01*
X104849142Y-70485750D01*
X104918834Y-70490734D01*
G37*
%TD.AperFunction*%
%TA.AperFunction,Conductor*%
G36*
X88605703Y-70443902D02*
G01*
X88612181Y-70449934D01*
X89396115Y-71233868D01*
X89404856Y-71249876D01*
X89417667Y-71262862D01*
X89421253Y-71279905D01*
X89429600Y-71295191D01*
X89428298Y-71313384D01*
X89432055Y-71331234D01*
X89425858Y-71347509D01*
X89424616Y-71364883D01*
X89413683Y-71379487D01*
X89407194Y-71396531D01*
X89383213Y-71420189D01*
X89382744Y-71420816D01*
X89382069Y-71421318D01*
X89325340Y-71463187D01*
X89259711Y-71487159D01*
X89191541Y-71471844D01*
X89178071Y-71463188D01*
X89120046Y-71420363D01*
X89022126Y-71386099D01*
X89022126Y-71859769D01*
X89002441Y-71926808D01*
X88949637Y-71972563D01*
X88898126Y-71983769D01*
X88646126Y-71983769D01*
X88579087Y-71964084D01*
X88533332Y-71911280D01*
X88522126Y-71859769D01*
X88522126Y-71386099D01*
X88505098Y-71374018D01*
X88495675Y-71374499D01*
X88435048Y-71339770D01*
X88402821Y-71277776D01*
X88400500Y-71253896D01*
X88400500Y-70537615D01*
X88420185Y-70470576D01*
X88472989Y-70424821D01*
X88542147Y-70414877D01*
X88605703Y-70443902D01*
G37*
%TD.AperFunction*%
%TA.AperFunction,Conductor*%
G36*
X102882206Y-40520185D02*
G01*
X102927961Y-40572989D01*
X102937905Y-40642147D01*
X102908880Y-40705703D01*
X102902848Y-40712181D01*
X102897794Y-40717234D01*
X102852415Y-40820006D01*
X102852415Y-40820008D01*
X102849500Y-40845131D01*
X102849500Y-41215500D01*
X102829815Y-41282539D01*
X102777011Y-41328294D01*
X102725500Y-41339500D01*
X101707273Y-41339500D01*
X101605413Y-41366793D01*
X101605410Y-41366794D01*
X101514085Y-41419521D01*
X100754087Y-42179520D01*
X100274794Y-42658812D01*
X100213471Y-42692297D01*
X100143779Y-42687313D01*
X100087846Y-42645441D01*
X100063429Y-42579977D01*
X100072553Y-42523677D01*
X100089255Y-42483355D01*
X100089258Y-42483343D01*
X100119999Y-42328797D01*
X100120000Y-42328794D01*
X100120000Y-42200000D01*
X99620000Y-42200000D01*
X99620000Y-41700000D01*
X100120000Y-41700000D01*
X100120000Y-41571206D01*
X100119999Y-41571202D01*
X100089258Y-41416656D01*
X100089256Y-41416648D01*
X100028952Y-41271060D01*
X100028947Y-41271051D01*
X99941401Y-41140030D01*
X99941398Y-41140026D01*
X99829973Y-41028601D01*
X99829969Y-41028598D01*
X99698948Y-40941052D01*
X99698938Y-40941047D01*
X99570000Y-40887639D01*
X99570000Y-41483011D01*
X99560060Y-41465795D01*
X99504205Y-41409940D01*
X99435796Y-41370444D01*
X99359496Y-41350000D01*
X99280504Y-41350000D01*
X99204204Y-41370444D01*
X99135795Y-41409940D01*
X99079940Y-41465795D01*
X99070000Y-41483011D01*
X99070000Y-40887639D01*
X99069999Y-40887639D01*
X98941061Y-40941047D01*
X98941051Y-40941052D01*
X98810030Y-41028598D01*
X98810026Y-41028601D01*
X98698601Y-41140026D01*
X98698598Y-41140030D01*
X98611052Y-41271051D01*
X98611047Y-41271060D01*
X98550743Y-41416648D01*
X98550741Y-41416656D01*
X98520000Y-41571202D01*
X98520000Y-41700000D01*
X99020000Y-41700000D01*
X99020000Y-42200000D01*
X98520000Y-42200000D01*
X98520000Y-42328797D01*
X98550741Y-42483343D01*
X98550743Y-42483351D01*
X98611047Y-42628939D01*
X98611052Y-42628948D01*
X98698598Y-42759969D01*
X98698601Y-42759973D01*
X98810026Y-42871398D01*
X98810034Y-42871404D01*
X98941047Y-42958944D01*
X98941065Y-42958954D01*
X99069999Y-43012360D01*
X99070000Y-43012360D01*
X99070000Y-42416988D01*
X99079940Y-42434205D01*
X99135795Y-42490060D01*
X99204204Y-42529556D01*
X99280504Y-42550000D01*
X99359496Y-42550000D01*
X99435796Y-42529556D01*
X99504205Y-42490060D01*
X99560060Y-42434205D01*
X99570000Y-42416988D01*
X99570000Y-43012359D01*
X99593679Y-43002551D01*
X99663148Y-42995082D01*
X99725627Y-43026357D01*
X99761280Y-43086445D01*
X99758787Y-43156271D01*
X99728813Y-43204793D01*
X98445426Y-44488181D01*
X98384103Y-44521666D01*
X98357745Y-44524500D01*
X97670745Y-44524500D01*
X97670729Y-44524499D01*
X97663133Y-44524499D01*
X97557680Y-44524499D01*
X97464715Y-44549409D01*
X97464714Y-44549408D01*
X97455820Y-44551792D01*
X97455819Y-44551792D01*
X97391624Y-44588855D01*
X97364493Y-44604520D01*
X97296995Y-44672018D01*
X97296994Y-44672017D01*
X97296992Y-44672020D01*
X97085426Y-44883587D01*
X97024103Y-44917072D01*
X96997745Y-44919906D01*
X93496868Y-44919906D01*
X93395005Y-44947199D01*
X93303682Y-44999926D01*
X93303679Y-44999928D01*
X92857206Y-45446401D01*
X92795883Y-45479886D01*
X92726191Y-45474902D01*
X92670258Y-45433030D01*
X92649750Y-45390813D01*
X92646280Y-45377863D01*
X92605975Y-45308054D01*
X92570515Y-45246635D01*
X92463365Y-45139485D01*
X92397750Y-45101602D01*
X92332136Y-45063719D01*
X92258950Y-45044109D01*
X92185766Y-45024500D01*
X92034234Y-45024500D01*
X91887863Y-45063719D01*
X91756635Y-45139485D01*
X91756632Y-45139487D01*
X91649487Y-45246632D01*
X91649481Y-45246641D01*
X91634499Y-45272589D01*
X91583931Y-45320803D01*
X91515324Y-45334024D01*
X91450460Y-45308054D01*
X91412553Y-45258038D01*
X91388954Y-45201064D01*
X91388947Y-45201051D01*
X91301401Y-45070030D01*
X91301398Y-45070026D01*
X91189973Y-44958601D01*
X91189969Y-44958598D01*
X91058948Y-44871052D01*
X91058938Y-44871047D01*
X90930000Y-44817639D01*
X90930000Y-45413011D01*
X90920060Y-45395795D01*
X90864205Y-45339940D01*
X90795796Y-45300444D01*
X90719496Y-45280000D01*
X90640504Y-45280000D01*
X90564204Y-45300444D01*
X90495795Y-45339940D01*
X90439940Y-45395795D01*
X90430000Y-45413011D01*
X90430000Y-44817639D01*
X90429999Y-44817639D01*
X90301061Y-44871047D01*
X90301051Y-44871052D01*
X90170030Y-44958598D01*
X90170026Y-44958601D01*
X90058601Y-45070026D01*
X90058598Y-45070030D01*
X89971052Y-45201051D01*
X89971047Y-45201060D01*
X89910743Y-45346648D01*
X89910741Y-45346656D01*
X89880000Y-45501202D01*
X89880000Y-45880000D01*
X90380000Y-45880000D01*
X90380000Y-46380000D01*
X89880000Y-46380000D01*
X89880000Y-46758797D01*
X89910741Y-46913343D01*
X89910743Y-46913351D01*
X89971047Y-47058939D01*
X89971052Y-47058948D01*
X90058598Y-47189969D01*
X90058601Y-47189973D01*
X90170026Y-47301398D01*
X90170034Y-47301404D01*
X90301047Y-47388944D01*
X90301065Y-47388954D01*
X90429999Y-47442360D01*
X90430000Y-47442360D01*
X90430000Y-46846988D01*
X90439940Y-46864205D01*
X90495795Y-46920060D01*
X90564204Y-46959556D01*
X90640504Y-46980000D01*
X90719496Y-46980000D01*
X90795796Y-46959556D01*
X90864205Y-46920060D01*
X90920060Y-46864205D01*
X90930000Y-46846988D01*
X90930000Y-47442359D01*
X90978547Y-47422251D01*
X91048017Y-47414782D01*
X91110496Y-47446057D01*
X91146148Y-47506146D01*
X91150000Y-47536811D01*
X91150000Y-47674195D01*
X91152851Y-47704606D01*
X91197653Y-47832645D01*
X91278207Y-47941792D01*
X91387354Y-48022346D01*
X91387356Y-48022347D01*
X91497861Y-48061013D01*
X91554638Y-48101734D01*
X91580386Y-48166686D01*
X91566930Y-48235248D01*
X91521684Y-48282380D01*
X91521783Y-48282511D01*
X91520960Y-48283134D01*
X91518544Y-48285652D01*
X91517691Y-48286136D01*
X91515027Y-48287634D01*
X91399920Y-48374922D01*
X91323488Y-48475712D01*
X91267295Y-48517235D01*
X91197574Y-48521786D01*
X91136460Y-48487920D01*
X91125881Y-48475711D01*
X91049721Y-48375278D01*
X90934729Y-48288077D01*
X90800467Y-48235131D01*
X90716102Y-48225000D01*
X90700000Y-48225000D01*
X90700000Y-49775000D01*
X90716102Y-49775000D01*
X90800467Y-49764868D01*
X90800468Y-49764868D01*
X90934729Y-49711922D01*
X91049721Y-49624721D01*
X91125881Y-49524288D01*
X91182073Y-49482765D01*
X91251794Y-49478213D01*
X91312908Y-49512077D01*
X91323488Y-49524287D01*
X91399651Y-49624721D01*
X91399922Y-49625078D01*
X91515025Y-49712364D01*
X91520988Y-49714715D01*
X91537579Y-49727623D01*
X91556703Y-49736357D01*
X91564600Y-49748646D01*
X91576131Y-49757617D01*
X91583110Y-49777448D01*
X91594477Y-49795135D01*
X91598028Y-49819833D01*
X91599327Y-49823524D01*
X91599500Y-49830070D01*
X91599500Y-50037372D01*
X91579815Y-50104411D01*
X91549134Y-50137141D01*
X91527850Y-50152850D01*
X91447207Y-50262117D01*
X91447206Y-50262119D01*
X91402353Y-50390298D01*
X91402353Y-50390300D01*
X91399500Y-50420730D01*
X91399500Y-51704269D01*
X91402353Y-51734699D01*
X91403964Y-51742073D01*
X91401423Y-51742627D01*
X91404343Y-51800023D01*
X91369604Y-51860644D01*
X91351465Y-51870069D01*
X91352245Y-51871168D01*
X91300000Y-51908237D01*
X91300000Y-52687500D01*
X91649999Y-52687500D01*
X91649999Y-52295803D01*
X91647148Y-52265395D01*
X91646298Y-52262966D01*
X91646200Y-52261052D01*
X91645538Y-52258020D01*
X91646039Y-52257910D01*
X91642733Y-52193188D01*
X91677459Y-52132559D01*
X91739451Y-52100328D01*
X91774916Y-52098548D01*
X91795731Y-52100500D01*
X91795734Y-52100500D01*
X92204265Y-52100500D01*
X92204266Y-52100500D01*
X92224532Y-52098599D01*
X92293116Y-52111936D01*
X92343603Y-52160237D01*
X92359962Y-52228164D01*
X92353158Y-52263000D01*
X92352354Y-52265298D01*
X92352353Y-52265300D01*
X92349500Y-52295730D01*
X92349500Y-53579269D01*
X92352353Y-53609699D01*
X92352353Y-53609701D01*
X92391578Y-53721796D01*
X92397207Y-53737882D01*
X92477850Y-53847150D01*
X92499132Y-53862857D01*
X92502155Y-53866838D01*
X92506703Y-53868915D01*
X92523070Y-53894384D01*
X92541384Y-53918503D01*
X92542511Y-53924635D01*
X92544477Y-53927693D01*
X92549500Y-53962628D01*
X92549500Y-54199903D01*
X92529815Y-54266942D01*
X92500426Y-54298707D01*
X92399919Y-54374924D01*
X92323488Y-54475712D01*
X92267295Y-54517235D01*
X92197574Y-54521786D01*
X92136460Y-54487920D01*
X92125881Y-54475711D01*
X92049721Y-54375278D01*
X91934729Y-54288077D01*
X91800467Y-54235131D01*
X91716102Y-54225000D01*
X91700000Y-54225000D01*
X91700000Y-55775000D01*
X91716102Y-55775000D01*
X91800467Y-55764868D01*
X91800475Y-55764866D01*
X91890010Y-55729558D01*
X91959596Y-55723276D01*
X92021533Y-55755613D01*
X92056154Y-55816301D01*
X92059500Y-55844912D01*
X92059500Y-60908860D01*
X92086793Y-61010723D01*
X92095037Y-61025001D01*
X92132384Y-61089688D01*
X92139522Y-61102050D01*
X92190883Y-61153410D01*
X92224369Y-61214733D01*
X92219385Y-61284425D01*
X92216637Y-61291178D01*
X92177416Y-61380004D01*
X92177415Y-61380008D01*
X92174500Y-61405131D01*
X92174500Y-62194359D01*
X92154815Y-62261398D01*
X92102011Y-62307153D01*
X92032853Y-62317097D01*
X91969297Y-62288072D01*
X91962819Y-62282040D01*
X91928880Y-62248101D01*
X91895395Y-62186778D01*
X91893857Y-62142542D01*
X91900500Y-62096949D01*
X91900499Y-61903052D01*
X91890220Y-61832491D01*
X91876516Y-61804460D01*
X91864756Y-61735591D01*
X91876515Y-61695540D01*
X91890220Y-61667509D01*
X91900500Y-61596949D01*
X91900499Y-61403052D01*
X91897141Y-61380004D01*
X91890220Y-61332493D01*
X91890220Y-61332491D01*
X91837012Y-61223653D01*
X91837010Y-61223651D01*
X91837010Y-61223650D01*
X91751348Y-61137988D01*
X91642511Y-61084780D01*
X91624869Y-61082210D01*
X91571949Y-61074500D01*
X91571943Y-61074500D01*
X90728049Y-61074500D01*
X90657492Y-61084779D01*
X90653157Y-61086899D01*
X90598696Y-61099499D01*
X90567201Y-61099499D01*
X90521134Y-61111843D01*
X90465340Y-61126793D01*
X90374012Y-61179522D01*
X89679522Y-61874012D01*
X89679520Y-61874015D01*
X89626793Y-61965338D01*
X89599500Y-62067201D01*
X89599500Y-64618411D01*
X89626793Y-64720274D01*
X89650061Y-64760574D01*
X89679520Y-64811598D01*
X89679522Y-64811600D01*
X90663181Y-65795259D01*
X90696666Y-65856582D01*
X90699500Y-65882940D01*
X90699500Y-66647052D01*
X90726329Y-66747181D01*
X90726794Y-66748914D01*
X90726794Y-66748915D01*
X90733385Y-66760330D01*
X90737535Y-66775818D01*
X90744977Y-66787398D01*
X90750000Y-66822333D01*
X90750000Y-66896000D01*
X90730315Y-66963039D01*
X90677511Y-67008794D01*
X90626000Y-67020000D01*
X90374000Y-67020000D01*
X90306961Y-67000315D01*
X90261206Y-66947511D01*
X90250000Y-66896000D01*
X90250000Y-66442531D01*
X90249999Y-66442530D01*
X90247274Y-66442786D01*
X90247272Y-66442787D01*
X90145975Y-66478233D01*
X90076196Y-66481795D01*
X90015569Y-66447067D01*
X89985246Y-66393285D01*
X89973207Y-66348355D01*
X89920480Y-66257029D01*
X89845913Y-66182462D01*
X88485348Y-64821897D01*
X88451863Y-64760574D01*
X88449029Y-64734216D01*
X88449029Y-62800098D01*
X88468714Y-62733059D01*
X88485348Y-62712417D01*
X89294716Y-61903049D01*
X90120480Y-61077285D01*
X90173207Y-60985960D01*
X90200500Y-60884099D01*
X90200500Y-60778645D01*
X90200500Y-58747273D01*
X90173207Y-58645413D01*
X90120480Y-58554087D01*
X90045913Y-58479520D01*
X88436819Y-56870426D01*
X88403334Y-56809103D01*
X88400500Y-56782745D01*
X88400500Y-55291102D01*
X90700000Y-55291102D01*
X90710131Y-55375467D01*
X90710131Y-55375468D01*
X90763077Y-55509729D01*
X90850278Y-55624721D01*
X90965270Y-55711922D01*
X91099532Y-55764868D01*
X91183898Y-55775000D01*
X91200000Y-55775000D01*
X91200000Y-55250000D01*
X90700000Y-55250000D01*
X90700000Y-55291102D01*
X88400500Y-55291102D01*
X88400500Y-54708897D01*
X90700000Y-54708897D01*
X90700000Y-54750000D01*
X91200000Y-54750000D01*
X91200000Y-54225000D01*
X91183898Y-54225000D01*
X91099532Y-54235131D01*
X91099531Y-54235131D01*
X90965270Y-54288077D01*
X90850278Y-54375278D01*
X90763077Y-54490270D01*
X90710131Y-54624531D01*
X90710131Y-54624532D01*
X90700000Y-54708897D01*
X88400500Y-54708897D01*
X88400500Y-53579196D01*
X90450001Y-53579196D01*
X90452851Y-53609606D01*
X90497653Y-53737645D01*
X90578207Y-53846792D01*
X90687354Y-53927346D01*
X90800000Y-53966761D01*
X90800000Y-53966760D01*
X91300000Y-53966760D01*
X91412645Y-53927346D01*
X91521792Y-53846792D01*
X91602346Y-53737645D01*
X91647149Y-53609604D01*
X91647149Y-53609600D01*
X91650000Y-53579206D01*
X91650000Y-53187500D01*
X91300000Y-53187500D01*
X91300000Y-53966760D01*
X90800000Y-53966760D01*
X90800000Y-53187500D01*
X90450001Y-53187500D01*
X90450001Y-53579196D01*
X88400500Y-53579196D01*
X88400500Y-52295793D01*
X90450000Y-52295793D01*
X90450000Y-52687500D01*
X90800000Y-52687500D01*
X90800000Y-51908237D01*
X90799999Y-51908237D01*
X90687355Y-51947653D01*
X90578207Y-52028207D01*
X90497653Y-52137354D01*
X90452850Y-52265395D01*
X90452850Y-52265399D01*
X90450000Y-52295793D01*
X88400500Y-52295793D01*
X88400500Y-49291102D01*
X89700000Y-49291102D01*
X89710131Y-49375467D01*
X89710131Y-49375468D01*
X89763077Y-49509729D01*
X89850278Y-49624721D01*
X89965270Y-49711922D01*
X90099532Y-49764868D01*
X90183898Y-49775000D01*
X90200000Y-49775000D01*
X90200000Y-49250000D01*
X89700000Y-49250000D01*
X89700000Y-49291102D01*
X88400500Y-49291102D01*
X88400500Y-48708897D01*
X89700000Y-48708897D01*
X89700000Y-48750000D01*
X90200000Y-48750000D01*
X90200000Y-48225000D01*
X90183898Y-48225000D01*
X90099532Y-48235131D01*
X90099531Y-48235131D01*
X89965270Y-48288077D01*
X89850278Y-48375278D01*
X89763077Y-48490270D01*
X89710131Y-48624531D01*
X89710131Y-48624532D01*
X89700000Y-48708897D01*
X88400500Y-48708897D01*
X88400500Y-46227275D01*
X88400499Y-46227271D01*
X88389698Y-46186961D01*
X88375241Y-46133003D01*
X88373207Y-46125412D01*
X88320480Y-46034087D01*
X87105674Y-44819281D01*
X87072189Y-44757958D01*
X87075423Y-44693284D01*
X87122171Y-44549409D01*
X87131869Y-44488181D01*
X87150500Y-44370551D01*
X87150500Y-44189448D01*
X87134019Y-44085397D01*
X87122171Y-44010591D01*
X87066211Y-43838361D01*
X87066211Y-43838360D01*
X87029471Y-43766255D01*
X86983996Y-43677006D01*
X86960807Y-43645089D01*
X86877558Y-43530505D01*
X86877554Y-43530500D01*
X86749499Y-43402445D01*
X86749494Y-43402441D01*
X86602997Y-43296006D01*
X86602996Y-43296005D01*
X86602994Y-43296004D01*
X86551300Y-43269664D01*
X86441639Y-43213788D01*
X86441636Y-43213787D01*
X86269410Y-43157829D01*
X86137728Y-43136972D01*
X86074594Y-43107042D01*
X86037663Y-43047731D01*
X86038661Y-42977868D01*
X86077271Y-42919636D01*
X86141235Y-42891522D01*
X86157120Y-42890499D01*
X86894864Y-42890499D01*
X86894879Y-42890497D01*
X86894882Y-42890497D01*
X86919987Y-42887586D01*
X86919988Y-42887585D01*
X86919991Y-42887585D01*
X87022765Y-42842206D01*
X87102206Y-42762765D01*
X87147585Y-42659991D01*
X87150500Y-42634865D01*
X87150499Y-41571202D01*
X89880000Y-41571202D01*
X89880000Y-41700000D01*
X90380000Y-41700000D01*
X90380000Y-42200000D01*
X89880000Y-42200000D01*
X89880000Y-42328797D01*
X89910741Y-42483343D01*
X89910743Y-42483351D01*
X89971047Y-42628939D01*
X89971052Y-42628948D01*
X90058598Y-42759969D01*
X90058601Y-42759973D01*
X90170026Y-42871398D01*
X90170034Y-42871404D01*
X90301047Y-42958944D01*
X90301065Y-42958954D01*
X90429999Y-43012360D01*
X90430000Y-43012360D01*
X90430000Y-42416988D01*
X90439940Y-42434205D01*
X90495795Y-42490060D01*
X90564204Y-42529556D01*
X90640504Y-42550000D01*
X90719496Y-42550000D01*
X90795796Y-42529556D01*
X90864205Y-42490060D01*
X90920060Y-42434205D01*
X90930000Y-42416988D01*
X90930000Y-43012360D01*
X91058934Y-42958954D01*
X91058952Y-42958944D01*
X91189965Y-42871404D01*
X91189973Y-42871398D01*
X91301398Y-42759973D01*
X91301401Y-42759969D01*
X91388947Y-42628948D01*
X91388952Y-42628939D01*
X91449256Y-42483351D01*
X91449258Y-42483343D01*
X91479999Y-42328797D01*
X91480000Y-42328794D01*
X91480000Y-42200000D01*
X90980000Y-42200000D01*
X90980000Y-41700000D01*
X91480000Y-41700000D01*
X91480000Y-41571206D01*
X91479999Y-41571202D01*
X91449258Y-41416656D01*
X91449256Y-41416648D01*
X91388952Y-41271060D01*
X91388947Y-41271051D01*
X91301401Y-41140030D01*
X91301398Y-41140026D01*
X91189973Y-41028601D01*
X91189969Y-41028598D01*
X91058948Y-40941052D01*
X91058938Y-40941047D01*
X90930000Y-40887639D01*
X90930000Y-41483011D01*
X90920060Y-41465795D01*
X90864205Y-41409940D01*
X90795796Y-41370444D01*
X90719496Y-41350000D01*
X90640504Y-41350000D01*
X90564204Y-41370444D01*
X90495795Y-41409940D01*
X90439940Y-41465795D01*
X90430000Y-41483011D01*
X90430000Y-40887639D01*
X90429999Y-40887639D01*
X90301061Y-40941047D01*
X90301051Y-40941052D01*
X90170030Y-41028598D01*
X90170026Y-41028601D01*
X90058601Y-41140026D01*
X90058598Y-41140030D01*
X89971052Y-41271051D01*
X89971047Y-41271060D01*
X89910743Y-41416648D01*
X89910741Y-41416656D01*
X89880000Y-41571202D01*
X87150499Y-41571202D01*
X87150499Y-40845136D01*
X87150497Y-40845117D01*
X87147586Y-40820012D01*
X87147585Y-40820010D01*
X87147585Y-40820009D01*
X87102206Y-40717235D01*
X87097152Y-40712181D01*
X87063667Y-40650858D01*
X87068651Y-40581166D01*
X87110523Y-40525233D01*
X87175987Y-40500816D01*
X87184833Y-40500500D01*
X102815167Y-40500500D01*
X102882206Y-40520185D01*
G37*
%TD.AperFunction*%
%TA.AperFunction,Conductor*%
G36*
X100926278Y-57653543D02*
G01*
X100979168Y-57699198D01*
X100982366Y-57704434D01*
X101019477Y-57768712D01*
X101019479Y-57768715D01*
X101019480Y-57768716D01*
X101131284Y-57880520D01*
X101162782Y-57898705D01*
X101210995Y-57949268D01*
X101224220Y-58017875D01*
X101198253Y-58082740D01*
X101188462Y-58093772D01*
X100279522Y-59002712D01*
X100279520Y-59002715D01*
X100226793Y-59094039D01*
X100205581Y-59173206D01*
X100199500Y-59195899D01*
X100199500Y-66470299D01*
X100179815Y-66537338D01*
X100127011Y-66583093D01*
X100057853Y-66593037D01*
X99994297Y-66564012D01*
X99975730Y-66543933D01*
X99954641Y-66515358D01*
X99847920Y-66436594D01*
X99750000Y-66402330D01*
X99750000Y-66876000D01*
X99730315Y-66943039D01*
X99677511Y-66988794D01*
X99626000Y-67000000D01*
X99374000Y-67000000D01*
X99306961Y-66980315D01*
X99261206Y-66927511D01*
X99250000Y-66876000D01*
X99250000Y-66402330D01*
X99249999Y-66402330D01*
X99152079Y-66436594D01*
X99094055Y-66479419D01*
X99028427Y-66503390D01*
X98960256Y-66488075D01*
X98946787Y-66479419D01*
X98907217Y-66450215D01*
X98888157Y-66436148D01*
X98888155Y-66436147D01*
X98762826Y-66392291D01*
X98762814Y-66392289D01*
X98733070Y-66389500D01*
X98733066Y-66389500D01*
X98435179Y-66389500D01*
X98368140Y-66369815D01*
X98322385Y-66317011D01*
X98312441Y-66247853D01*
X98332828Y-66195499D01*
X98339341Y-66185975D01*
X98360480Y-66164837D01*
X98394302Y-66106255D01*
X98413207Y-66073511D01*
X98413207Y-66073509D01*
X98417270Y-66066473D01*
X98419354Y-66067676D01*
X98455504Y-66022802D01*
X98521795Y-66000726D01*
X98589497Y-66017993D01*
X98599877Y-66024877D01*
X98652077Y-66063403D01*
X98750000Y-66097668D01*
X98750000Y-66097667D01*
X99250000Y-66097667D01*
X99347922Y-66063403D01*
X99454641Y-65984641D01*
X99533405Y-65877919D01*
X99577212Y-65752727D01*
X99577213Y-65752725D01*
X99577469Y-65750000D01*
X99250000Y-65750000D01*
X99250000Y-66097667D01*
X98750000Y-66097667D01*
X98750000Y-65319250D01*
X98754225Y-65287157D01*
X98764181Y-65250000D01*
X99250000Y-65250000D01*
X99577467Y-65250000D01*
X99577212Y-65247270D01*
X99533405Y-65122080D01*
X99454641Y-65015358D01*
X99347920Y-64936594D01*
X99250000Y-64902330D01*
X99250000Y-65250000D01*
X98764181Y-65250000D01*
X98771851Y-65221376D01*
X98771851Y-65115922D01*
X98771851Y-65000098D01*
X98791536Y-64933059D01*
X98795299Y-64927536D01*
X98801126Y-64919460D01*
X98851871Y-64868716D01*
X98930928Y-64731784D01*
X98971851Y-64579057D01*
X98971851Y-64420943D01*
X98930928Y-64268216D01*
X98916403Y-64243058D01*
X98851875Y-64131290D01*
X98851869Y-64131282D01*
X98734320Y-64013733D01*
X98735947Y-64012105D01*
X98701746Y-63965260D01*
X98697594Y-63895514D01*
X98730754Y-63835638D01*
X98880468Y-63685925D01*
X98933195Y-63594600D01*
X98960488Y-63492739D01*
X98960488Y-63387285D01*
X98960488Y-61177369D01*
X98980173Y-61110330D01*
X98996807Y-61089688D01*
X99011995Y-61074500D01*
X99040508Y-61045987D01*
X99119565Y-60909055D01*
X99160488Y-60756328D01*
X99160488Y-60598214D01*
X99119565Y-60445487D01*
X99090994Y-60396000D01*
X99040512Y-60308561D01*
X99040506Y-60308553D01*
X98928705Y-60196752D01*
X98928697Y-60196746D01*
X98791778Y-60117697D01*
X98791774Y-60117695D01*
X98791772Y-60117694D01*
X98784059Y-60115627D01*
X98780177Y-60114587D01*
X98767077Y-60106601D01*
X98752110Y-60103239D01*
X98737851Y-60088785D01*
X98720518Y-60078219D01*
X98713816Y-60064421D01*
X98703041Y-60053499D01*
X98698860Y-60033631D01*
X98689991Y-60015371D01*
X98691812Y-60000138D01*
X98688654Y-59985126D01*
X98695878Y-59966152D01*
X98698289Y-59945996D01*
X98708426Y-59933195D01*
X98713515Y-59919830D01*
X98738637Y-59895046D01*
X98771789Y-59870578D01*
X98837416Y-59846609D01*
X98905586Y-59861924D01*
X98919056Y-59870581D01*
X98977077Y-59913403D01*
X99075000Y-59947668D01*
X99075000Y-59947667D01*
X99575000Y-59947667D01*
X99672922Y-59913403D01*
X99779641Y-59834641D01*
X99858405Y-59727919D01*
X99902212Y-59602727D01*
X99902213Y-59602725D01*
X99902469Y-59600000D01*
X99575000Y-59600000D01*
X99575000Y-59947667D01*
X99075000Y-59947667D01*
X99075000Y-59474000D01*
X99094685Y-59406961D01*
X99147489Y-59361206D01*
X99199000Y-59350000D01*
X99325000Y-59350000D01*
X99325000Y-59224000D01*
X99344685Y-59156961D01*
X99397489Y-59111206D01*
X99449000Y-59100000D01*
X99902467Y-59100000D01*
X99902212Y-59097270D01*
X99858405Y-58972080D01*
X99779641Y-58865358D01*
X99757842Y-58849270D01*
X99715591Y-58793622D01*
X99710134Y-58723966D01*
X99743201Y-58662416D01*
X99804295Y-58628516D01*
X99831476Y-58625500D01*
X99835630Y-58625500D01*
X99835636Y-58625500D01*
X99908625Y-58614866D01*
X99966118Y-58586759D01*
X100021210Y-58559827D01*
X100109827Y-58471210D01*
X100157972Y-58372726D01*
X100164866Y-58358625D01*
X100175500Y-58285636D01*
X100175500Y-57774500D01*
X100195185Y-57707461D01*
X100247989Y-57661706D01*
X100299500Y-57650500D01*
X100810636Y-57650500D01*
X100857102Y-57643730D01*
X100926278Y-57653543D01*
G37*
%TD.AperFunction*%
%TA.AperFunction,Conductor*%
G36*
X91218039Y-63019685D02*
G01*
X91263794Y-63072489D01*
X91275000Y-63124000D01*
X91275000Y-63424999D01*
X91475500Y-63424999D01*
X91542539Y-63444684D01*
X91588294Y-63497488D01*
X91599500Y-63548999D01*
X91599500Y-64733745D01*
X91579815Y-64800784D01*
X91527011Y-64846539D01*
X91457853Y-64856483D01*
X91394297Y-64827458D01*
X91387819Y-64821426D01*
X90836819Y-64270426D01*
X90803334Y-64209103D01*
X90800500Y-64182745D01*
X90800500Y-63548999D01*
X90820185Y-63481960D01*
X90872989Y-63436205D01*
X90924500Y-63424999D01*
X91025000Y-63424999D01*
X91025000Y-63124000D01*
X91027550Y-63115314D01*
X91026262Y-63106353D01*
X91037240Y-63082312D01*
X91044685Y-63056961D01*
X91051525Y-63051033D01*
X91055287Y-63042797D01*
X91077521Y-63028507D01*
X91097489Y-63011206D01*
X91108003Y-63008918D01*
X91114065Y-63005023D01*
X91149000Y-63000000D01*
X91151000Y-63000000D01*
X91218039Y-63019685D01*
G37*
%TD.AperFunction*%
%TA.AperFunction,Conductor*%
G36*
X103586716Y-58055424D02*
G01*
X103730591Y-58102171D01*
X103850038Y-58121089D01*
X103892279Y-58127780D01*
X103955414Y-58157709D01*
X103992345Y-58217021D01*
X103991347Y-58286883D01*
X103952737Y-58345116D01*
X103892279Y-58372726D01*
X103730706Y-58398317D01*
X103558555Y-58454251D01*
X103558547Y-58454254D01*
X103397269Y-58536432D01*
X103381466Y-58547912D01*
X103381466Y-58547913D01*
X103870591Y-59037037D01*
X103807007Y-59054075D01*
X103692993Y-59119901D01*
X103599901Y-59212993D01*
X103534075Y-59327007D01*
X103517037Y-59390590D01*
X103027913Y-58901466D01*
X103027912Y-58901466D01*
X103016432Y-58917269D01*
X102934254Y-59078547D01*
X102934251Y-59078555D01*
X102878317Y-59250706D01*
X102850000Y-59429493D01*
X102850000Y-59610506D01*
X102878317Y-59789293D01*
X102934251Y-59961444D01*
X102934252Y-59961447D01*
X103016431Y-60122730D01*
X103027913Y-60138532D01*
X103027913Y-60138533D01*
X103517037Y-59649408D01*
X103534075Y-59712993D01*
X103599901Y-59827007D01*
X103692993Y-59920099D01*
X103807007Y-59985925D01*
X103870590Y-60002962D01*
X103381466Y-60492085D01*
X103381466Y-60492086D01*
X103397267Y-60503566D01*
X103397275Y-60503571D01*
X103558552Y-60585747D01*
X103558555Y-60585748D01*
X103730706Y-60641682D01*
X103892279Y-60667273D01*
X103955413Y-60697202D01*
X103992345Y-60756513D01*
X103991347Y-60826376D01*
X103952738Y-60884609D01*
X103892280Y-60912219D01*
X103730589Y-60937829D01*
X103558363Y-60993787D01*
X103558360Y-60993788D01*
X103397002Y-61076006D01*
X103250505Y-61182441D01*
X103250500Y-61182445D01*
X103122445Y-61310500D01*
X103122441Y-61310505D01*
X103016006Y-61457002D01*
X102933788Y-61618360D01*
X102933787Y-61618363D01*
X102877829Y-61790589D01*
X102849500Y-61969448D01*
X102849500Y-62150551D01*
X102877829Y-62329410D01*
X102924575Y-62473281D01*
X102926570Y-62543122D01*
X102894325Y-62599280D01*
X102112181Y-63381425D01*
X102050858Y-63414910D01*
X101981167Y-63409926D01*
X101925233Y-63368054D01*
X101900816Y-63302590D01*
X101900500Y-63293744D01*
X101900500Y-59697254D01*
X101920185Y-59630215D01*
X101936814Y-59609578D01*
X103460719Y-58085672D01*
X103522040Y-58052189D01*
X103586716Y-58055424D01*
G37*
%TD.AperFunction*%
%TA.AperFunction,Conductor*%
G36*
X86539281Y-58085674D02*
G01*
X88563181Y-60109573D01*
X88596666Y-60170896D01*
X88599500Y-60197254D01*
X88599500Y-60282744D01*
X88579815Y-60349783D01*
X88563181Y-60370425D01*
X87270366Y-61663239D01*
X87209043Y-61696724D01*
X87139351Y-61691740D01*
X87083418Y-61649868D01*
X87069183Y-61622401D01*
X87068075Y-61622861D01*
X87066211Y-61618360D01*
X87028376Y-61544107D01*
X86983996Y-61457006D01*
X86946307Y-61405131D01*
X86877558Y-61310505D01*
X86877554Y-61310500D01*
X86749499Y-61182445D01*
X86749494Y-61182441D01*
X86602997Y-61076006D01*
X86602996Y-61076005D01*
X86602994Y-61076004D01*
X86524920Y-61036223D01*
X86441639Y-60993788D01*
X86441636Y-60993787D01*
X86269410Y-60937828D01*
X86107720Y-60912219D01*
X86044585Y-60882289D01*
X86007654Y-60822978D01*
X86008652Y-60753115D01*
X86047262Y-60694883D01*
X86107721Y-60667273D01*
X86269292Y-60641683D01*
X86441444Y-60585748D01*
X86441452Y-60585745D01*
X86602730Y-60503568D01*
X86618532Y-60492085D01*
X86618533Y-60492085D01*
X86129410Y-60002962D01*
X86192993Y-59985925D01*
X86307007Y-59920099D01*
X86400099Y-59827007D01*
X86465925Y-59712993D01*
X86482962Y-59649410D01*
X86972085Y-60138533D01*
X86972085Y-60138532D01*
X86983568Y-60122730D01*
X87065745Y-59961452D01*
X87065748Y-59961444D01*
X87121682Y-59789293D01*
X87150000Y-59610506D01*
X87150000Y-59429493D01*
X87121682Y-59250706D01*
X87065748Y-59078555D01*
X87065747Y-59078552D01*
X86983571Y-58917275D01*
X86983566Y-58917267D01*
X86972085Y-58901466D01*
X86482962Y-59390589D01*
X86465925Y-59327007D01*
X86400099Y-59212993D01*
X86307007Y-59119901D01*
X86192993Y-59054075D01*
X86129409Y-59037037D01*
X86618533Y-58547913D01*
X86602730Y-58536431D01*
X86441447Y-58454252D01*
X86441444Y-58454251D01*
X86269293Y-58398317D01*
X86107720Y-58372726D01*
X86044585Y-58342797D01*
X86007654Y-58283485D01*
X86008652Y-58213623D01*
X86047262Y-58155390D01*
X86107720Y-58127780D01*
X86122270Y-58125475D01*
X86269409Y-58102171D01*
X86413284Y-58055423D01*
X86483123Y-58053429D01*
X86539281Y-58085674D01*
G37*
%TD.AperFunction*%
%TA.AperFunction,Conductor*%
G36*
X94785918Y-59420185D02*
G01*
X94806560Y-59436819D01*
X95143467Y-59773726D01*
X95176952Y-59835049D01*
X95171968Y-59904741D01*
X95130096Y-59960674D01*
X95129420Y-59961177D01*
X95015358Y-60045358D01*
X94936596Y-60152077D01*
X94902332Y-60250000D01*
X95568379Y-60250000D01*
X95597819Y-60258644D01*
X95627806Y-60265168D01*
X95632821Y-60268922D01*
X95635418Y-60269685D01*
X95656060Y-60286319D01*
X95673181Y-60303440D01*
X95706666Y-60364763D01*
X95709500Y-60391121D01*
X95709500Y-60626000D01*
X95689815Y-60693039D01*
X95637011Y-60738794D01*
X95585500Y-60750000D01*
X94902332Y-60750000D01*
X94936596Y-60847922D01*
X94979419Y-60905945D01*
X95003390Y-60971574D01*
X94989955Y-61036223D01*
X94985373Y-61045144D01*
X94936148Y-61111843D01*
X94904117Y-61203379D01*
X94900204Y-61211001D01*
X94881792Y-61230372D01*
X94866216Y-61252089D01*
X94858091Y-61255309D01*
X94852070Y-61261645D01*
X94826105Y-61267987D01*
X94801263Y-61277835D01*
X94792687Y-61276151D01*
X94784196Y-61278226D01*
X94758926Y-61269525D01*
X94732702Y-61264378D01*
X94725294Y-61257945D01*
X94718132Y-61255479D01*
X94708723Y-61243554D01*
X94688978Y-61226407D01*
X94687008Y-61223648D01*
X94601348Y-61137988D01*
X94544477Y-61110185D01*
X94492895Y-61063057D01*
X94474981Y-60995523D01*
X94496423Y-60929024D01*
X94499147Y-60925179D01*
X94533852Y-60878157D01*
X94571698Y-60770000D01*
X94577708Y-60752826D01*
X94577708Y-60752823D01*
X94577710Y-60752819D01*
X94580500Y-60723066D01*
X94580500Y-60276934D01*
X94579820Y-60269685D01*
X94577710Y-60247185D01*
X94577710Y-60247181D01*
X94577708Y-60247177D01*
X94577708Y-60247173D01*
X94533852Y-60121844D01*
X94533852Y-60121843D01*
X94454999Y-60015001D01*
X94348157Y-59936148D01*
X94348155Y-59936147D01*
X94222826Y-59892291D01*
X94222814Y-59892289D01*
X94193070Y-59889500D01*
X94193066Y-59889500D01*
X93806934Y-59889500D01*
X93806930Y-59889500D01*
X93777185Y-59892289D01*
X93777173Y-59892291D01*
X93651844Y-59936147D01*
X93593213Y-59979419D01*
X93527584Y-60003390D01*
X93459413Y-59988074D01*
X93445945Y-59979419D01*
X93387920Y-59936594D01*
X93290000Y-59902330D01*
X93290000Y-60376000D01*
X93287449Y-60384685D01*
X93288738Y-60393647D01*
X93277759Y-60417687D01*
X93270315Y-60443039D01*
X93263474Y-60448966D01*
X93259713Y-60457203D01*
X93237478Y-60471492D01*
X93217511Y-60488794D01*
X93206996Y-60491081D01*
X93200935Y-60494977D01*
X93166000Y-60500000D01*
X92984500Y-60500000D01*
X92917461Y-60480315D01*
X92871706Y-60427511D01*
X92860500Y-60376000D01*
X92860500Y-59524500D01*
X92880185Y-59457461D01*
X92932989Y-59411706D01*
X92984500Y-59400500D01*
X94718879Y-59400500D01*
X94785918Y-59420185D01*
G37*
%TD.AperFunction*%
%TA.AperFunction,Conductor*%
G36*
X104963181Y-60129628D02*
G01*
X104996666Y-60190951D01*
X104999500Y-60217309D01*
X104999500Y-61133084D01*
X104979815Y-61200123D01*
X104927011Y-61245878D01*
X104857853Y-61255822D01*
X104794297Y-61226797D01*
X104787819Y-61220765D01*
X104749499Y-61182445D01*
X104749494Y-61182441D01*
X104602997Y-61076006D01*
X104602996Y-61076005D01*
X104602994Y-61076004D01*
X104524920Y-61036223D01*
X104441639Y-60993788D01*
X104441636Y-60993787D01*
X104269410Y-60937828D01*
X104107720Y-60912219D01*
X104044585Y-60882289D01*
X104007654Y-60822978D01*
X104008652Y-60753115D01*
X104047262Y-60694883D01*
X104107721Y-60667273D01*
X104269292Y-60641683D01*
X104441444Y-60585748D01*
X104441452Y-60585745D01*
X104602730Y-60503568D01*
X104618532Y-60492085D01*
X104618533Y-60492085D01*
X104129410Y-60002962D01*
X104192993Y-59985925D01*
X104307007Y-59920099D01*
X104400099Y-59827007D01*
X104465925Y-59712993D01*
X104482962Y-59649409D01*
X104963181Y-60129628D01*
G37*
%TD.AperFunction*%
%TA.AperFunction,Conductor*%
G36*
X85534075Y-59712993D02*
G01*
X85599901Y-59827007D01*
X85692993Y-59920099D01*
X85807007Y-59985925D01*
X85870590Y-60002962D01*
X85381466Y-60492085D01*
X85381466Y-60492086D01*
X85397267Y-60503566D01*
X85397275Y-60503571D01*
X85558552Y-60585747D01*
X85558555Y-60585748D01*
X85730706Y-60641682D01*
X85892279Y-60667273D01*
X85955413Y-60697202D01*
X85992345Y-60756513D01*
X85991347Y-60826376D01*
X85952738Y-60884609D01*
X85892280Y-60912219D01*
X85730589Y-60937829D01*
X85558363Y-60993787D01*
X85558360Y-60993788D01*
X85397002Y-61076006D01*
X85250505Y-61182441D01*
X85250500Y-61182445D01*
X85212181Y-61220765D01*
X85150858Y-61254250D01*
X85081166Y-61249266D01*
X85025233Y-61207394D01*
X85000816Y-61141930D01*
X85000500Y-61133084D01*
X85000500Y-60217309D01*
X85020185Y-60150270D01*
X85036819Y-60129628D01*
X85517037Y-59649409D01*
X85534075Y-59712993D01*
G37*
%TD.AperFunction*%
%TA.AperFunction,Conductor*%
G36*
X97537185Y-59119144D02*
G01*
X97567172Y-59125668D01*
X97572187Y-59129422D01*
X97574784Y-59130185D01*
X97595421Y-59146814D01*
X97748182Y-59299574D01*
X97781666Y-59360896D01*
X97784500Y-59387254D01*
X97784500Y-59573070D01*
X97787289Y-59602814D01*
X97787291Y-59602826D01*
X97831147Y-59728155D01*
X97831148Y-59728157D01*
X97910001Y-59834999D01*
X97949634Y-59864250D01*
X97991884Y-59919896D01*
X98000000Y-59964019D01*
X98000000Y-60396000D01*
X97980315Y-60463039D01*
X97927511Y-60508794D01*
X97876000Y-60520000D01*
X97750000Y-60520000D01*
X97750000Y-60646000D01*
X97730315Y-60713039D01*
X97677511Y-60758794D01*
X97626000Y-60770000D01*
X97081362Y-60770000D01*
X97014323Y-60750315D01*
X97013932Y-60750000D01*
X96657755Y-60750000D01*
X96628314Y-60741355D01*
X96598328Y-60734832D01*
X96593312Y-60731077D01*
X96590716Y-60730315D01*
X96570074Y-60713681D01*
X96546819Y-60690426D01*
X96513334Y-60629103D01*
X96510500Y-60602745D01*
X96510500Y-60250000D01*
X97000000Y-60250000D01*
X97418638Y-60250000D01*
X97485677Y-60269685D01*
X97486068Y-60270000D01*
X97500000Y-60270000D01*
X97500000Y-59942531D01*
X97499999Y-59942530D01*
X97497274Y-59942786D01*
X97497272Y-59942787D01*
X97372080Y-59986594D01*
X97337182Y-60012350D01*
X97271552Y-60036320D01*
X97203382Y-60021004D01*
X97189915Y-60012349D01*
X97127919Y-59966594D01*
X97002727Y-59922787D01*
X97002725Y-59922786D01*
X97000000Y-59922530D01*
X97000000Y-60250000D01*
X96510500Y-60250000D01*
X96510500Y-60121142D01*
X96510500Y-60121139D01*
X96504223Y-60097713D01*
X96500000Y-60065627D01*
X96500000Y-59922531D01*
X96499999Y-59922530D01*
X96489769Y-59923492D01*
X96489464Y-59920251D01*
X96434235Y-59916111D01*
X96390288Y-59887760D01*
X95824708Y-59322181D01*
X95791223Y-59260858D01*
X95796207Y-59191167D01*
X95838078Y-59135233D01*
X95903543Y-59110816D01*
X95912389Y-59110500D01*
X97024863Y-59110500D01*
X97222273Y-59110500D01*
X97507745Y-59110500D01*
X97537185Y-59119144D01*
G37*
%TD.AperFunction*%
%TA.AperFunction,Conductor*%
G36*
X85205703Y-57813203D02*
G01*
X85212181Y-57819235D01*
X85250500Y-57857554D01*
X85250505Y-57857558D01*
X85376735Y-57949268D01*
X85397006Y-57963996D01*
X85502484Y-58017740D01*
X85558360Y-58046211D01*
X85558363Y-58046212D01*
X85644476Y-58074191D01*
X85730591Y-58102171D01*
X85850038Y-58121089D01*
X85892279Y-58127780D01*
X85955414Y-58157709D01*
X85992345Y-58217021D01*
X85991347Y-58286883D01*
X85952737Y-58345116D01*
X85892279Y-58372726D01*
X85730706Y-58398317D01*
X85558555Y-58454251D01*
X85558547Y-58454254D01*
X85397269Y-58536432D01*
X85381466Y-58547912D01*
X85381466Y-58547913D01*
X85870591Y-59037037D01*
X85807007Y-59054075D01*
X85692993Y-59119901D01*
X85599901Y-59212993D01*
X85534075Y-59327007D01*
X85517037Y-59390590D01*
X85036819Y-58910372D01*
X85003334Y-58849049D01*
X85000500Y-58822691D01*
X85000500Y-57906916D01*
X85020185Y-57839877D01*
X85072989Y-57794122D01*
X85142147Y-57784178D01*
X85205703Y-57813203D01*
G37*
%TD.AperFunction*%
%TA.AperFunction,Conductor*%
G36*
X104918834Y-57790734D02*
G01*
X104974767Y-57832606D01*
X104999184Y-57898070D01*
X104999500Y-57906916D01*
X104999500Y-58822690D01*
X104979815Y-58889729D01*
X104963181Y-58910371D01*
X104482962Y-59390589D01*
X104465925Y-59327007D01*
X104400099Y-59212993D01*
X104307007Y-59119901D01*
X104192993Y-59054075D01*
X104129409Y-59037037D01*
X104618533Y-58547913D01*
X104602730Y-58536431D01*
X104441447Y-58454252D01*
X104441444Y-58454251D01*
X104269293Y-58398317D01*
X104107720Y-58372726D01*
X104044585Y-58342797D01*
X104007654Y-58283485D01*
X104008652Y-58213623D01*
X104047262Y-58155390D01*
X104107720Y-58127780D01*
X104122270Y-58125475D01*
X104269409Y-58102171D01*
X104441639Y-58046211D01*
X104602994Y-57963996D01*
X104749501Y-57857553D01*
X104787819Y-57819235D01*
X104849142Y-57785750D01*
X104918834Y-57790734D01*
G37*
%TD.AperFunction*%
%TA.AperFunction,Conductor*%
G36*
X95718834Y-55080642D02*
G01*
X95774767Y-55122514D01*
X95799184Y-55187978D01*
X95799500Y-55196824D01*
X95799500Y-55310636D01*
X95808946Y-55375468D01*
X95810134Y-55383625D01*
X95815960Y-55395542D01*
X95827717Y-55464416D01*
X95815960Y-55504458D01*
X95810599Y-55515424D01*
X95810134Y-55516375D01*
X95799500Y-55589364D01*
X95799500Y-55810636D01*
X95804494Y-55844912D01*
X95810134Y-55883625D01*
X95815960Y-55895542D01*
X95827717Y-55964416D01*
X95815960Y-56004456D01*
X95810134Y-56016375D01*
X95799500Y-56089364D01*
X95799500Y-56310636D01*
X95809170Y-56377006D01*
X95810134Y-56383625D01*
X95815960Y-56395542D01*
X95827717Y-56464416D01*
X95815960Y-56504458D01*
X95810134Y-56516374D01*
X95808361Y-56528539D01*
X95799500Y-56589364D01*
X95799500Y-56810636D01*
X95808211Y-56870426D01*
X95810134Y-56883625D01*
X95815960Y-56895542D01*
X95827717Y-56964416D01*
X95815960Y-57004456D01*
X95810134Y-57016375D01*
X95799500Y-57089364D01*
X95799500Y-57310636D01*
X95810134Y-57383625D01*
X95810134Y-57383626D01*
X95810135Y-57383628D01*
X95865172Y-57496210D01*
X95953786Y-57584824D01*
X95953787Y-57584824D01*
X95953789Y-57584826D01*
X95994641Y-57604797D01*
X96046224Y-57651925D01*
X96064138Y-57719459D01*
X96047569Y-57778197D01*
X96010031Y-57843215D01*
X96010031Y-57843216D01*
X95969108Y-57995943D01*
X95969108Y-58154055D01*
X95970169Y-58162113D01*
X95968723Y-58162303D01*
X95967270Y-58223260D01*
X95928106Y-58281121D01*
X95863876Y-58308624D01*
X95849159Y-58309500D01*
X95173407Y-58309500D01*
X95071544Y-58336793D01*
X94980221Y-58389520D01*
X94980218Y-58389522D01*
X94806560Y-58563181D01*
X94745237Y-58596666D01*
X94718879Y-58599500D01*
X92984500Y-58599500D01*
X92917461Y-58579815D01*
X92871706Y-58527011D01*
X92860500Y-58475500D01*
X92860500Y-55899500D01*
X92880185Y-55832461D01*
X92932989Y-55786706D01*
X92984500Y-55775500D01*
X93266138Y-55775500D01*
X93266144Y-55775500D01*
X93350590Y-55765359D01*
X93425297Y-55735897D01*
X93455010Y-55724181D01*
X93524596Y-55717899D01*
X93586533Y-55750236D01*
X93621154Y-55810924D01*
X93624500Y-55839535D01*
X93624500Y-56449902D01*
X93604815Y-56516941D01*
X93588181Y-56537583D01*
X93544481Y-56581282D01*
X93544475Y-56581290D01*
X93465426Y-56718209D01*
X93465423Y-56718216D01*
X93424500Y-56870943D01*
X93424500Y-57029057D01*
X93434580Y-57066674D01*
X93465423Y-57181783D01*
X93465426Y-57181790D01*
X93544475Y-57318709D01*
X93544479Y-57318714D01*
X93544480Y-57318716D01*
X93656284Y-57430520D01*
X93656286Y-57430521D01*
X93656290Y-57430524D01*
X93770063Y-57496210D01*
X93793216Y-57509577D01*
X93945943Y-57550500D01*
X93945945Y-57550500D01*
X94104055Y-57550500D01*
X94104057Y-57550500D01*
X94256784Y-57509577D01*
X94381750Y-57437428D01*
X94449647Y-57420956D01*
X94515674Y-57443808D01*
X94531428Y-57457135D01*
X94542431Y-57468138D01*
X94542433Y-57468139D01*
X94542437Y-57468142D01*
X94679356Y-57547191D01*
X94679363Y-57547195D01*
X94832090Y-57588118D01*
X94832092Y-57588118D01*
X94990202Y-57588118D01*
X94990204Y-57588118D01*
X95142931Y-57547195D01*
X95279863Y-57468138D01*
X95391667Y-57356334D01*
X95470724Y-57219402D01*
X95511647Y-57066675D01*
X95511647Y-56908561D01*
X95470724Y-56755834D01*
X95451297Y-56722185D01*
X95391671Y-56618908D01*
X95391665Y-56618900D01*
X95347966Y-56575201D01*
X95314481Y-56513878D01*
X95311647Y-56487520D01*
X95311647Y-55436677D01*
X95331332Y-55369638D01*
X95347962Y-55349000D01*
X95587819Y-55109142D01*
X95649142Y-55075658D01*
X95718834Y-55080642D01*
G37*
%TD.AperFunction*%
%TA.AperFunction,Conductor*%
G36*
X102792540Y-42160185D02*
G01*
X102838295Y-42212989D01*
X102849501Y-42264500D01*
X102849501Y-42634856D01*
X102849502Y-42634882D01*
X102852413Y-42659987D01*
X102852415Y-42659991D01*
X102897793Y-42762764D01*
X102897794Y-42762765D01*
X102977235Y-42842206D01*
X103080009Y-42887585D01*
X103105135Y-42890500D01*
X103842873Y-42890499D01*
X103909910Y-42910183D01*
X103955665Y-42962987D01*
X103965609Y-43032146D01*
X103936584Y-43095702D01*
X103877806Y-43133476D01*
X103862270Y-43136972D01*
X103730589Y-43157829D01*
X103558363Y-43213787D01*
X103558360Y-43213788D01*
X103397002Y-43296006D01*
X103250505Y-43402441D01*
X103250500Y-43402445D01*
X103122445Y-43530500D01*
X103122441Y-43530505D01*
X103016006Y-43677002D01*
X102933788Y-43838360D01*
X102933787Y-43838363D01*
X102877829Y-44010589D01*
X102849500Y-44189448D01*
X102849500Y-44370551D01*
X102877829Y-44549409D01*
X102933787Y-44721636D01*
X102933788Y-44721639D01*
X102979189Y-44810741D01*
X103009919Y-44871052D01*
X103016006Y-44882997D01*
X103122441Y-45029494D01*
X103122445Y-45029499D01*
X103250500Y-45157554D01*
X103250505Y-45157558D01*
X103373119Y-45246641D01*
X103397006Y-45263996D01*
X103468539Y-45300444D01*
X103558360Y-45346211D01*
X103558363Y-45346212D01*
X103644476Y-45374191D01*
X103730591Y-45402171D01*
X103850038Y-45421089D01*
X103892279Y-45427780D01*
X103955414Y-45457709D01*
X103992345Y-45517021D01*
X103991347Y-45586883D01*
X103952737Y-45645116D01*
X103892279Y-45672726D01*
X103730706Y-45698317D01*
X103558555Y-45754251D01*
X103558547Y-45754254D01*
X103397269Y-45836432D01*
X103381466Y-45847912D01*
X103381466Y-45847913D01*
X103870591Y-46337037D01*
X103807007Y-46354075D01*
X103692993Y-46419901D01*
X103599901Y-46512993D01*
X103534075Y-46627007D01*
X103517037Y-46690590D01*
X103027913Y-46201466D01*
X103027912Y-46201466D01*
X103016432Y-46217269D01*
X102934254Y-46378547D01*
X102934251Y-46378555D01*
X102878317Y-46550706D01*
X102850000Y-46729493D01*
X102850000Y-46910506D01*
X102878317Y-47089293D01*
X102934251Y-47261444D01*
X102934252Y-47261447D01*
X103016431Y-47422730D01*
X103027913Y-47438532D01*
X103027913Y-47438533D01*
X103517037Y-46949408D01*
X103534075Y-47012993D01*
X103599901Y-47127007D01*
X103692993Y-47220099D01*
X103807007Y-47285925D01*
X103870590Y-47302962D01*
X103381466Y-47792085D01*
X103381466Y-47792086D01*
X103397267Y-47803566D01*
X103397275Y-47803571D01*
X103558552Y-47885747D01*
X103558555Y-47885748D01*
X103730706Y-47941682D01*
X103892279Y-47967273D01*
X103955413Y-47997202D01*
X103992345Y-48056513D01*
X103991347Y-48126376D01*
X103952738Y-48184609D01*
X103892280Y-48212219D01*
X103730589Y-48237829D01*
X103558363Y-48293787D01*
X103558360Y-48293788D01*
X103397002Y-48376006D01*
X103250505Y-48482441D01*
X103250500Y-48482445D01*
X103122445Y-48610500D01*
X103122441Y-48610505D01*
X103016006Y-48757002D01*
X102933788Y-48918360D01*
X102933787Y-48918363D01*
X102877829Y-49090589D01*
X102849500Y-49269448D01*
X102849500Y-49450551D01*
X102877829Y-49629412D01*
X102924575Y-49773283D01*
X102926570Y-49843124D01*
X102894325Y-49899281D01*
X101986679Y-50806927D01*
X101986675Y-50806933D01*
X101933949Y-50898255D01*
X101933950Y-50898256D01*
X101906657Y-51000116D01*
X101906657Y-56727278D01*
X101886972Y-56794317D01*
X101834168Y-56840072D01*
X101765010Y-56850016D01*
X101735213Y-56841843D01*
X101731786Y-56840424D01*
X101731785Y-56840423D01*
X101731784Y-56840423D01*
X101579057Y-56799500D01*
X101420943Y-56799500D01*
X101418923Y-56800041D01*
X101381580Y-56804154D01*
X101367936Y-56803575D01*
X101352727Y-56799500D01*
X101271862Y-56799500D01*
X101269245Y-56799389D01*
X101238545Y-56788942D01*
X101207461Y-56779815D01*
X101205679Y-56777758D01*
X101203100Y-56776881D01*
X101182921Y-56751494D01*
X101161706Y-56727011D01*
X101161045Y-56723972D01*
X101159624Y-56722185D01*
X101158733Y-56713347D01*
X101150500Y-56675500D01*
X101150500Y-56589369D01*
X101150500Y-56589364D01*
X101139866Y-56516375D01*
X101134041Y-56504460D01*
X101122281Y-56435592D01*
X101134040Y-56395541D01*
X101139866Y-56383625D01*
X101150500Y-56310636D01*
X101150500Y-56089364D01*
X101139866Y-56016375D01*
X101134041Y-56004460D01*
X101122281Y-55935592D01*
X101134040Y-55895541D01*
X101139866Y-55883625D01*
X101150500Y-55810636D01*
X101150500Y-55589364D01*
X101139866Y-55516375D01*
X101134041Y-55504460D01*
X101122281Y-55435592D01*
X101134040Y-55395541D01*
X101139866Y-55383625D01*
X101150500Y-55310636D01*
X101150500Y-55089364D01*
X101139866Y-55016375D01*
X101138003Y-55012565D01*
X101133763Y-55003891D01*
X101122003Y-54935018D01*
X101133764Y-54894967D01*
X101139380Y-54883479D01*
X101139380Y-54883477D01*
X101144258Y-54850000D01*
X101082400Y-54850000D01*
X101021701Y-54834128D01*
X101006800Y-54825763D01*
X100996211Y-54815174D01*
X100932142Y-54783852D01*
X100929070Y-54782128D01*
X100907016Y-54759551D01*
X100883726Y-54738272D01*
X100882792Y-54734751D01*
X100880247Y-54732146D01*
X100873901Y-54701233D01*
X100865812Y-54670738D01*
X100866929Y-54667272D01*
X100866197Y-54663704D01*
X100877571Y-54634266D01*
X100887253Y-54604240D01*
X100890066Y-54601928D01*
X100891380Y-54598530D01*
X100916865Y-54579914D01*
X100941242Y-54559890D01*
X100945455Y-54559031D01*
X100947801Y-54557318D01*
X100956375Y-54556805D01*
X100989769Y-54550000D01*
X101144258Y-54550000D01*
X101144258Y-54549999D01*
X101139380Y-54516520D01*
X101084412Y-54404081D01*
X100995918Y-54315587D01*
X100883482Y-54260620D01*
X100810582Y-54250000D01*
X100575000Y-54250000D01*
X100575000Y-54576000D01*
X100572449Y-54584685D01*
X100573738Y-54593647D01*
X100562759Y-54617687D01*
X100555315Y-54643039D01*
X100548474Y-54648966D01*
X100544713Y-54657203D01*
X100522478Y-54671492D01*
X100502511Y-54688794D01*
X100491996Y-54691081D01*
X100485935Y-54694977D01*
X100451000Y-54700000D01*
X100399000Y-54700000D01*
X100331961Y-54680315D01*
X100286206Y-54627511D01*
X100275000Y-54576000D01*
X100275000Y-54250000D01*
X100264815Y-54239815D01*
X100232461Y-54230315D01*
X100186706Y-54177511D01*
X100175500Y-54126000D01*
X100175500Y-53799500D01*
X100195185Y-53732461D01*
X100247989Y-53686706D01*
X100289805Y-53677609D01*
X100289667Y-53676561D01*
X100297718Y-53675500D01*
X100297727Y-53675500D01*
X100399588Y-53648207D01*
X100490913Y-53595480D01*
X100929574Y-53156816D01*
X100990895Y-53123333D01*
X101017254Y-53120499D01*
X101207454Y-53120499D01*
X101207456Y-53120499D01*
X101236879Y-53117741D01*
X101360794Y-53074381D01*
X101466423Y-52996423D01*
X101544381Y-52890794D01*
X101566733Y-52826916D01*
X101587741Y-52766881D01*
X101587741Y-52766879D01*
X101587741Y-52766874D01*
X101590500Y-52737457D01*
X101590499Y-52262544D01*
X101587741Y-52233121D01*
X101586006Y-52228164D01*
X101562795Y-52161829D01*
X101544381Y-52109206D01*
X101484601Y-52028207D01*
X101466423Y-52003576D01*
X101390045Y-51947207D01*
X101360794Y-51925619D01*
X101360792Y-51925618D01*
X101236880Y-51882258D01*
X101207461Y-51879500D01*
X100832546Y-51879500D01*
X100803125Y-51882258D01*
X100803115Y-51882260D01*
X100679205Y-51925619D01*
X100679204Y-51925619D01*
X100583633Y-51996154D01*
X100518004Y-52020125D01*
X100449834Y-52004809D01*
X100436367Y-51996154D01*
X100340794Y-51925619D01*
X100216880Y-51882258D01*
X100187461Y-51879500D01*
X100187457Y-51879500D01*
X99997255Y-51879500D01*
X99967814Y-51870855D01*
X99937828Y-51864332D01*
X99932812Y-51860577D01*
X99930216Y-51859815D01*
X99909574Y-51843181D01*
X99831843Y-51765450D01*
X99798358Y-51704127D01*
X99803342Y-51634435D01*
X99845214Y-51578502D01*
X99845891Y-51577998D01*
X99850789Y-51574382D01*
X99850794Y-51574381D01*
X99956423Y-51496423D01*
X100034381Y-51390794D01*
X100067440Y-51296314D01*
X100096798Y-51249592D01*
X101320480Y-50025912D01*
X101373207Y-49934587D01*
X101400500Y-49832726D01*
X101400500Y-49727272D01*
X101400500Y-42717255D01*
X101420185Y-42650216D01*
X101436819Y-42629574D01*
X101889574Y-42176819D01*
X101950897Y-42143334D01*
X101977255Y-42140500D01*
X102725501Y-42140500D01*
X102792540Y-42160185D01*
G37*
%TD.AperFunction*%
%TA.AperFunction,Conductor*%
G36*
X93755703Y-53010951D02*
G01*
X93793477Y-53069729D01*
X93795391Y-53077072D01*
X93799809Y-53096431D01*
X93799814Y-53096445D01*
X93858913Y-53219166D01*
X93858916Y-53219171D01*
X93943849Y-53325674D01*
X94050352Y-53410607D01*
X94050355Y-53410608D01*
X94050356Y-53410609D01*
X94173077Y-53469708D01*
X94173079Y-53469708D01*
X94173084Y-53469711D01*
X94173090Y-53469712D01*
X94173092Y-53469713D01*
X94305884Y-53500022D01*
X94305887Y-53500022D01*
X94305890Y-53500023D01*
X94321273Y-53500023D01*
X94492119Y-53500023D01*
X94559158Y-53519708D01*
X94604913Y-53572512D01*
X94614857Y-53641670D01*
X94613010Y-53651615D01*
X94599500Y-53710803D01*
X94599500Y-54347629D01*
X94579815Y-54414668D01*
X94563181Y-54435310D01*
X93962181Y-55036310D01*
X93900858Y-55069795D01*
X93831166Y-55064811D01*
X93775233Y-55022939D01*
X93750816Y-54957475D01*
X93750500Y-54948629D01*
X93750500Y-54708862D01*
X93750500Y-54708856D01*
X93740359Y-54624410D01*
X93687364Y-54490025D01*
X93687363Y-54490024D01*
X93687363Y-54490023D01*
X93600078Y-54374921D01*
X93484974Y-54287635D01*
X93429009Y-54265565D01*
X93412419Y-54252656D01*
X93393297Y-54243924D01*
X93385396Y-54231630D01*
X93373866Y-54222659D01*
X93366888Y-54202831D01*
X93355523Y-54185146D01*
X93351970Y-54160437D01*
X93350673Y-54156751D01*
X93350500Y-54150211D01*
X93350500Y-53962628D01*
X93370185Y-53895589D01*
X93400866Y-53862857D01*
X93422150Y-53847150D01*
X93502793Y-53737882D01*
X93536459Y-53641670D01*
X93547646Y-53609701D01*
X93547646Y-53609699D01*
X93550500Y-53579269D01*
X93550500Y-53104664D01*
X93570185Y-53037625D01*
X93622989Y-52991870D01*
X93692147Y-52981926D01*
X93755703Y-53010951D01*
G37*
%TD.AperFunction*%
%TA.AperFunction,Conductor*%
G36*
X96336498Y-52108530D02*
G01*
X96468216Y-52184577D01*
X96469471Y-52184913D01*
X96476085Y-52187528D01*
X96498253Y-52204805D01*
X96522254Y-52219435D01*
X96525440Y-52225994D01*
X96531194Y-52230479D01*
X96540504Y-52257005D01*
X96552783Y-52282283D01*
X96553846Y-52295020D01*
X96554333Y-52296406D01*
X96554058Y-52297558D01*
X96554500Y-52302845D01*
X96554500Y-52737453D01*
X96557258Y-52766874D01*
X96557260Y-52766884D01*
X96594465Y-52873207D01*
X96600619Y-52890794D01*
X96625761Y-52924860D01*
X96678576Y-52996423D01*
X96747820Y-53047527D01*
X96784206Y-53074381D01*
X96790924Y-53076731D01*
X96847700Y-53117452D01*
X96873448Y-53182404D01*
X96871383Y-53218968D01*
X96867329Y-53238502D01*
X96851793Y-53265412D01*
X96835646Y-53325674D01*
X96824500Y-53367273D01*
X96824500Y-53444890D01*
X96821913Y-53457357D01*
X96816190Y-53468080D01*
X96811901Y-53486621D01*
X96795726Y-53519708D01*
X96785134Y-53541375D01*
X96774500Y-53614364D01*
X96774500Y-53614369D01*
X96774500Y-54125500D01*
X96754815Y-54192539D01*
X96702011Y-54238294D01*
X96650500Y-54249500D01*
X96274500Y-54249500D01*
X96207461Y-54229815D01*
X96161706Y-54177011D01*
X96150500Y-54125500D01*
X96150500Y-52215918D01*
X96170185Y-52148879D01*
X96222989Y-52103124D01*
X96292147Y-52093180D01*
X96336498Y-52108530D01*
G37*
%TD.AperFunction*%
%TA.AperFunction,Conductor*%
G36*
X86539281Y-45385674D02*
G01*
X87563181Y-46409574D01*
X87596666Y-46470897D01*
X87599500Y-46497255D01*
X87599500Y-52633745D01*
X87579815Y-52700784D01*
X87527011Y-52746539D01*
X87457853Y-52756483D01*
X87394297Y-52727458D01*
X87387819Y-52721426D01*
X87105674Y-52439281D01*
X87072189Y-52377958D01*
X87075423Y-52313284D01*
X87122171Y-52169409D01*
X87123624Y-52160237D01*
X87150500Y-51990551D01*
X87150500Y-51809448D01*
X87132224Y-51694061D01*
X87122171Y-51630591D01*
X87078578Y-51496422D01*
X87066212Y-51458363D01*
X87066211Y-51458360D01*
X87024124Y-51375761D01*
X86983996Y-51297006D01*
X86954410Y-51256284D01*
X86877558Y-51150505D01*
X86877554Y-51150500D01*
X86749499Y-51022445D01*
X86749494Y-51022441D01*
X86602997Y-50916006D01*
X86602996Y-50916005D01*
X86602994Y-50916004D01*
X86551300Y-50889664D01*
X86441639Y-50833788D01*
X86441636Y-50833787D01*
X86269410Y-50777829D01*
X86109321Y-50752473D01*
X86046186Y-50722544D01*
X86009255Y-50663232D01*
X86010253Y-50593370D01*
X86048863Y-50535137D01*
X86109321Y-50507527D01*
X86181565Y-50496084D01*
X86269409Y-50482171D01*
X86441639Y-50426211D01*
X86602994Y-50343996D01*
X86749501Y-50237553D01*
X86877553Y-50109501D01*
X86983996Y-49962994D01*
X87066211Y-49801639D01*
X87122171Y-49629409D01*
X87138806Y-49524381D01*
X87150500Y-49450551D01*
X87150500Y-49269448D01*
X87126774Y-49119654D01*
X87122171Y-49090591D01*
X87066211Y-48918361D01*
X87066211Y-48918360D01*
X87037740Y-48862484D01*
X86983996Y-48757006D01*
X86949013Y-48708856D01*
X86877558Y-48610505D01*
X86877554Y-48610500D01*
X86749499Y-48482445D01*
X86749494Y-48482441D01*
X86602997Y-48376006D01*
X86602996Y-48376005D01*
X86602994Y-48376004D01*
X86542950Y-48345410D01*
X86441639Y-48293788D01*
X86441636Y-48293787D01*
X86269410Y-48237828D01*
X86107720Y-48212219D01*
X86044585Y-48182289D01*
X86007654Y-48122978D01*
X86008652Y-48053115D01*
X86047262Y-47994883D01*
X86107721Y-47967273D01*
X86269292Y-47941683D01*
X86441444Y-47885748D01*
X86441452Y-47885745D01*
X86602730Y-47803568D01*
X86618532Y-47792085D01*
X86618533Y-47792085D01*
X86129410Y-47302962D01*
X86192993Y-47285925D01*
X86307007Y-47220099D01*
X86400099Y-47127007D01*
X86465925Y-47012993D01*
X86482962Y-46949410D01*
X86972085Y-47438533D01*
X86972085Y-47438532D01*
X86983568Y-47422730D01*
X87065745Y-47261452D01*
X87065748Y-47261444D01*
X87121682Y-47089293D01*
X87150000Y-46910506D01*
X87150000Y-46729493D01*
X87121682Y-46550706D01*
X87065748Y-46378555D01*
X87065747Y-46378552D01*
X86983571Y-46217275D01*
X86983566Y-46217267D01*
X86972085Y-46201466D01*
X86482962Y-46690589D01*
X86465925Y-46627007D01*
X86400099Y-46512993D01*
X86307007Y-46419901D01*
X86192993Y-46354075D01*
X86129409Y-46337037D01*
X86618533Y-45847913D01*
X86602730Y-45836431D01*
X86441447Y-45754252D01*
X86441444Y-45754251D01*
X86269293Y-45698317D01*
X86107720Y-45672726D01*
X86044585Y-45642797D01*
X86007654Y-45583485D01*
X86008652Y-45513623D01*
X86047262Y-45455390D01*
X86107720Y-45427780D01*
X86122270Y-45425475D01*
X86269409Y-45402171D01*
X86413284Y-45355423D01*
X86483123Y-45353429D01*
X86539281Y-45385674D01*
G37*
%TD.AperFunction*%
%TA.AperFunction,Conductor*%
G36*
X93947723Y-48077700D02*
G01*
X93984109Y-48102912D01*
X94197109Y-48315912D01*
X94197110Y-48315913D01*
X94271677Y-48390480D01*
X94363003Y-48443207D01*
X94464863Y-48470500D01*
X94475500Y-48470500D01*
X94542539Y-48490185D01*
X94588294Y-48542989D01*
X94599500Y-48594500D01*
X94599500Y-50519647D01*
X94579815Y-50586686D01*
X94527011Y-50632441D01*
X94457853Y-50642385D01*
X94413501Y-50627035D01*
X94306784Y-50565423D01*
X94306785Y-50565423D01*
X94153538Y-50524361D01*
X94093878Y-50487996D01*
X94063349Y-50425149D01*
X94071204Y-50359447D01*
X94070865Y-50359329D01*
X94071402Y-50357792D01*
X94071644Y-50355773D01*
X94073386Y-50352122D01*
X94105621Y-50260000D01*
X93750000Y-50260000D01*
X93750000Y-50549785D01*
X93730315Y-50616824D01*
X93711060Y-50637762D01*
X93712031Y-50638733D01*
X93594481Y-50756282D01*
X93594475Y-50756290D01*
X93515426Y-50893209D01*
X93515423Y-50893216D01*
X93474500Y-51045943D01*
X93474500Y-51059215D01*
X93454815Y-51126254D01*
X93438181Y-51146896D01*
X92812181Y-51772896D01*
X92750858Y-51806381D01*
X92681166Y-51801397D01*
X92625233Y-51759525D01*
X92600816Y-51694061D01*
X92600500Y-51685215D01*
X92600500Y-50420730D01*
X92597646Y-50390300D01*
X92597646Y-50390298D01*
X92559556Y-50281445D01*
X92555551Y-50270000D01*
X92552793Y-50262118D01*
X92551230Y-50260000D01*
X92894378Y-50260000D01*
X92926065Y-50350557D01*
X92926066Y-50350559D01*
X93003934Y-50456065D01*
X93109438Y-50533931D01*
X93233219Y-50577244D01*
X93249999Y-50578817D01*
X93250000Y-50578816D01*
X93250000Y-50260000D01*
X92894378Y-50260000D01*
X92551230Y-50260000D01*
X92472150Y-50152850D01*
X92450865Y-50137141D01*
X92447843Y-50133161D01*
X92443297Y-50131085D01*
X92426926Y-50105611D01*
X92408615Y-50081494D01*
X92407487Y-50075363D01*
X92405523Y-50072307D01*
X92400500Y-50037372D01*
X92400500Y-49830070D01*
X92420185Y-49763031D01*
X92472989Y-49717276D01*
X92478973Y-49714730D01*
X92484975Y-49712364D01*
X92600078Y-49625078D01*
X92687364Y-49509975D01*
X92734240Y-49391106D01*
X92739345Y-49384544D01*
X92741168Y-49376433D01*
X92760480Y-49357381D01*
X92777144Y-49335965D01*
X92784988Y-49333204D01*
X92790908Y-49327365D01*
X92817459Y-49321778D01*
X92843052Y-49312772D01*
X92851142Y-49314690D01*
X92859281Y-49312978D01*
X92884637Y-49322632D01*
X92911036Y-49328892D01*
X92918496Y-49335524D01*
X92924578Y-49337840D01*
X92949360Y-49362962D01*
X92970134Y-49391109D01*
X92996466Y-49426788D01*
X93020436Y-49492417D01*
X93005120Y-49560587D01*
X92996465Y-49574055D01*
X92926066Y-49669440D01*
X92926065Y-49669442D01*
X92894378Y-49759999D01*
X92894378Y-49760000D01*
X94105622Y-49760000D01*
X94105621Y-49759999D01*
X94073934Y-49669442D01*
X94073932Y-49669439D01*
X94003535Y-49574056D01*
X93979563Y-49508427D01*
X93994878Y-49440257D01*
X94003529Y-49426794D01*
X94074381Y-49330794D01*
X94102652Y-49250000D01*
X94117741Y-49206881D01*
X94117741Y-49206879D01*
X94120500Y-49177457D01*
X94120499Y-48802544D01*
X94117741Y-48773121D01*
X94074381Y-48649206D01*
X94034006Y-48594500D01*
X93996423Y-48543576D01*
X93897406Y-48470499D01*
X93890794Y-48465619D01*
X93890792Y-48465618D01*
X93766881Y-48422258D01*
X93762917Y-48421887D01*
X93760173Y-48420793D01*
X93759885Y-48420730D01*
X93756853Y-48421167D01*
X93727736Y-48407870D01*
X93698010Y-48396026D01*
X93696173Y-48393455D01*
X93693297Y-48392142D01*
X93675990Y-48365212D01*
X93657387Y-48339179D01*
X93656718Y-48335224D01*
X93655523Y-48333364D01*
X93650500Y-48298429D01*
X93650500Y-48194500D01*
X93670185Y-48127461D01*
X93722989Y-48081706D01*
X93774500Y-48070500D01*
X93860629Y-48070500D01*
X93860636Y-48070500D01*
X93878551Y-48067889D01*
X93947723Y-48077700D01*
G37*
%TD.AperFunction*%
%TA.AperFunction,Conductor*%
G36*
X100518834Y-43650073D02*
G01*
X100574767Y-43691945D01*
X100599184Y-43757409D01*
X100599500Y-43766255D01*
X100599500Y-48654076D01*
X100579815Y-48721115D01*
X100527011Y-48766870D01*
X100457853Y-48776814D01*
X100430011Y-48769431D01*
X100342725Y-48735011D01*
X100259356Y-48725000D01*
X100250000Y-48725000D01*
X100250000Y-49376000D01*
X100230315Y-49443039D01*
X100177511Y-49488794D01*
X100126000Y-49500000D01*
X99874000Y-49500000D01*
X99806961Y-49480315D01*
X99761206Y-49427511D01*
X99750000Y-49376000D01*
X99750000Y-48725000D01*
X99740644Y-48725000D01*
X99657275Y-48735010D01*
X99524613Y-48787325D01*
X99410989Y-48873489D01*
X99324825Y-48987113D01*
X99320873Y-48994143D01*
X99270856Y-49042929D01*
X99202403Y-49056929D01*
X99137248Y-49031699D01*
X99104703Y-48994138D01*
X99100615Y-48986868D01*
X99014367Y-48873132D01*
X98900634Y-48786886D01*
X98900632Y-48786885D01*
X98767846Y-48734521D01*
X98767845Y-48734520D01*
X98767843Y-48734520D01*
X98684402Y-48724500D01*
X98165598Y-48724500D01*
X98082156Y-48734520D01*
X98082155Y-48734520D01*
X97949365Y-48786886D01*
X97835632Y-48873132D01*
X97749386Y-48986865D01*
X97697020Y-49119655D01*
X97697020Y-49119656D01*
X97687000Y-49203097D01*
X97687000Y-49796902D01*
X97697020Y-49880343D01*
X97697020Y-49880344D01*
X97718411Y-49934587D01*
X97738525Y-49985594D01*
X97749386Y-50013134D01*
X97835632Y-50126867D01*
X97949365Y-50213113D01*
X97949368Y-50213115D01*
X98010992Y-50237416D01*
X98027580Y-50250323D01*
X98046703Y-50259056D01*
X98054602Y-50271347D01*
X98066133Y-50280319D01*
X98073111Y-50300148D01*
X98084477Y-50317834D01*
X98088029Y-50342538D01*
X98089327Y-50346227D01*
X98089500Y-50352769D01*
X98089500Y-50407085D01*
X98069815Y-50474124D01*
X98049232Y-50496084D01*
X98050151Y-50497003D01*
X98043577Y-50503577D01*
X97965618Y-50609207D01*
X97922258Y-50733118D01*
X97922258Y-50733120D01*
X97919500Y-50762538D01*
X97919500Y-51135321D01*
X97899815Y-51202360D01*
X97856042Y-51240289D01*
X97857451Y-51242729D01*
X97759088Y-51299519D01*
X97497203Y-51561403D01*
X97435880Y-51594887D01*
X97366188Y-51589903D01*
X97310255Y-51548031D01*
X97289747Y-51505814D01*
X97287231Y-51496423D01*
X97259577Y-51393216D01*
X97255222Y-51385672D01*
X97180524Y-51256290D01*
X97180518Y-51256282D01*
X97068717Y-51144481D01*
X97068709Y-51144475D01*
X96931790Y-51065426D01*
X96931786Y-51065424D01*
X96931784Y-51065423D01*
X96779057Y-51024500D01*
X96620943Y-51024500D01*
X96468216Y-51065423D01*
X96468215Y-51065423D01*
X96336499Y-51141469D01*
X96268599Y-51157941D01*
X96202572Y-51135088D01*
X96159382Y-51080166D01*
X96150500Y-51034081D01*
X96150500Y-50715656D01*
X96170185Y-50648617D01*
X96222989Y-50602862D01*
X96237218Y-50600456D01*
X96249999Y-50588817D01*
X96750000Y-50588817D01*
X96766780Y-50587244D01*
X96890561Y-50543931D01*
X96996065Y-50466065D01*
X97073933Y-50360559D01*
X97073934Y-50360557D01*
X97105621Y-50270000D01*
X96750000Y-50270000D01*
X96750000Y-50588817D01*
X96249999Y-50588817D01*
X96250000Y-50588816D01*
X96250000Y-50144000D01*
X96269685Y-50076961D01*
X96322489Y-50031206D01*
X96374000Y-50020000D01*
X96500000Y-50020000D01*
X96500000Y-49894000D01*
X96519685Y-49826961D01*
X96572489Y-49781206D01*
X96624000Y-49770000D01*
X97105622Y-49770000D01*
X97105621Y-49769999D01*
X97073934Y-49679442D01*
X97073932Y-49679439D01*
X97003535Y-49584056D01*
X96979563Y-49518427D01*
X96994878Y-49450257D01*
X97003529Y-49436794D01*
X97074381Y-49340794D01*
X97099346Y-49269448D01*
X97117741Y-49216881D01*
X97117741Y-49216879D01*
X97120500Y-49187457D01*
X97120499Y-48812544D01*
X97117741Y-48783121D01*
X97112054Y-48766870D01*
X97074381Y-48659207D01*
X97074381Y-48659206D01*
X96996423Y-48553577D01*
X96947270Y-48517300D01*
X96905020Y-48461652D01*
X96901129Y-48449623D01*
X96900500Y-48447275D01*
X96900500Y-48447273D01*
X96873207Y-48345413D01*
X96820480Y-48254087D01*
X96820478Y-48254085D01*
X96817245Y-48248485D01*
X96800772Y-48180585D01*
X96823624Y-48114558D01*
X96878545Y-48071368D01*
X96882361Y-48069912D01*
X96894241Y-48065603D01*
X96933625Y-48059866D01*
X97001289Y-48026786D01*
X97007516Y-48024529D01*
X97036032Y-48022751D01*
X97064199Y-48017942D01*
X97074625Y-48020345D01*
X97077250Y-48020182D01*
X97079597Y-48021491D01*
X97090742Y-48024061D01*
X97215299Y-48067646D01*
X97245730Y-48070500D01*
X97245734Y-48070500D01*
X97654270Y-48070500D01*
X97684699Y-48067646D01*
X97684701Y-48067646D01*
X97809801Y-48023871D01*
X97879580Y-48020309D01*
X97891710Y-48023870D01*
X98000000Y-48061761D01*
X98000000Y-47861932D01*
X98006959Y-47820977D01*
X98047645Y-47704701D01*
X98047646Y-47704699D01*
X98050500Y-47674269D01*
X98050500Y-47169000D01*
X98053050Y-47160314D01*
X98051762Y-47151353D01*
X98062740Y-47127312D01*
X98070185Y-47101961D01*
X98077025Y-47096033D01*
X98080787Y-47087797D01*
X98103021Y-47073507D01*
X98122989Y-47056206D01*
X98133503Y-47053918D01*
X98139565Y-47050023D01*
X98174500Y-47045000D01*
X98376000Y-47045000D01*
X98443039Y-47064685D01*
X98488794Y-47117489D01*
X98500000Y-47169000D01*
X98500000Y-48061760D01*
X98612645Y-48022346D01*
X98721792Y-47941792D01*
X98802346Y-47832645D01*
X98847149Y-47704604D01*
X98847149Y-47704600D01*
X98849999Y-47674207D01*
X98849999Y-47536813D01*
X98869683Y-47469773D01*
X98922487Y-47424018D01*
X98991645Y-47414074D01*
X99021451Y-47422251D01*
X99069999Y-47442360D01*
X99070000Y-47442360D01*
X99070000Y-46846988D01*
X99079940Y-46864205D01*
X99135795Y-46920060D01*
X99204204Y-46959556D01*
X99280504Y-46980000D01*
X99359496Y-46980000D01*
X99435796Y-46959556D01*
X99504205Y-46920060D01*
X99560060Y-46864205D01*
X99570000Y-46846988D01*
X99570000Y-47442360D01*
X99698934Y-47388954D01*
X99698952Y-47388944D01*
X99829965Y-47301404D01*
X99829973Y-47301398D01*
X99941398Y-47189973D01*
X99941401Y-47189969D01*
X100028947Y-47058948D01*
X100028952Y-47058939D01*
X100089256Y-46913351D01*
X100089258Y-46913343D01*
X100119999Y-46758797D01*
X100120000Y-46758794D01*
X100120000Y-46380000D01*
X99620000Y-46380000D01*
X99620000Y-45880000D01*
X100120000Y-45880000D01*
X100120000Y-45501206D01*
X100119999Y-45501202D01*
X100089258Y-45346656D01*
X100089256Y-45346648D01*
X100028952Y-45201060D01*
X100028947Y-45201051D01*
X99941401Y-45070030D01*
X99941398Y-45070026D01*
X99829973Y-44958601D01*
X99829969Y-44958598D01*
X99698948Y-44871052D01*
X99698939Y-44871047D01*
X99553351Y-44810743D01*
X99553345Y-44810741D01*
X99532570Y-44806609D01*
X99470659Y-44774224D01*
X99436085Y-44713508D01*
X99439825Y-44643739D01*
X99469079Y-44597313D01*
X100387819Y-43678574D01*
X100449142Y-43645089D01*
X100518834Y-43650073D01*
G37*
%TD.AperFunction*%
%TA.AperFunction,Conductor*%
G36*
X104963181Y-47429628D02*
G01*
X104996666Y-47490951D01*
X104999500Y-47517309D01*
X104999500Y-48433084D01*
X104979815Y-48500123D01*
X104927011Y-48545878D01*
X104857853Y-48555822D01*
X104794297Y-48526797D01*
X104787819Y-48520765D01*
X104749499Y-48482445D01*
X104749494Y-48482441D01*
X104602997Y-48376006D01*
X104602996Y-48376005D01*
X104602994Y-48376004D01*
X104542950Y-48345410D01*
X104441639Y-48293788D01*
X104441636Y-48293787D01*
X104269410Y-48237828D01*
X104107720Y-48212219D01*
X104044585Y-48182289D01*
X104007654Y-48122978D01*
X104008652Y-48053115D01*
X104047262Y-47994883D01*
X104107721Y-47967273D01*
X104269292Y-47941683D01*
X104441444Y-47885748D01*
X104441452Y-47885745D01*
X104602730Y-47803568D01*
X104618532Y-47792085D01*
X104618533Y-47792085D01*
X104129410Y-47302962D01*
X104192993Y-47285925D01*
X104307007Y-47220099D01*
X104400099Y-47127007D01*
X104465925Y-47012993D01*
X104482962Y-46949409D01*
X104963181Y-47429628D01*
G37*
%TD.AperFunction*%
%TA.AperFunction,Conductor*%
G36*
X85534075Y-47012993D02*
G01*
X85599901Y-47127007D01*
X85692993Y-47220099D01*
X85807007Y-47285925D01*
X85870590Y-47302962D01*
X85381466Y-47792085D01*
X85381466Y-47792086D01*
X85397267Y-47803566D01*
X85397275Y-47803571D01*
X85558552Y-47885747D01*
X85558555Y-47885748D01*
X85730706Y-47941682D01*
X85892279Y-47967273D01*
X85955413Y-47997202D01*
X85992345Y-48056513D01*
X85991347Y-48126376D01*
X85952738Y-48184609D01*
X85892280Y-48212219D01*
X85730589Y-48237829D01*
X85558363Y-48293787D01*
X85558360Y-48293788D01*
X85397002Y-48376006D01*
X85250505Y-48482441D01*
X85250500Y-48482445D01*
X85212181Y-48520765D01*
X85150858Y-48554250D01*
X85081166Y-48549266D01*
X85025233Y-48507394D01*
X85000816Y-48441930D01*
X85000500Y-48433084D01*
X85000500Y-47517309D01*
X85020185Y-47450270D01*
X85036819Y-47429628D01*
X85517037Y-46949409D01*
X85534075Y-47012993D01*
G37*
%TD.AperFunction*%
%TA.AperFunction,Conductor*%
G36*
X85205703Y-45113203D02*
G01*
X85212181Y-45119235D01*
X85250500Y-45157554D01*
X85250505Y-45157558D01*
X85373119Y-45246641D01*
X85397006Y-45263996D01*
X85468539Y-45300444D01*
X85558360Y-45346211D01*
X85558363Y-45346212D01*
X85644476Y-45374191D01*
X85730591Y-45402171D01*
X85850038Y-45421089D01*
X85892279Y-45427780D01*
X85955414Y-45457709D01*
X85992345Y-45517021D01*
X85991347Y-45586883D01*
X85952737Y-45645116D01*
X85892279Y-45672726D01*
X85730706Y-45698317D01*
X85558555Y-45754251D01*
X85558547Y-45754254D01*
X85397269Y-45836432D01*
X85381466Y-45847912D01*
X85381466Y-45847913D01*
X85870591Y-46337037D01*
X85807007Y-46354075D01*
X85692993Y-46419901D01*
X85599901Y-46512993D01*
X85534075Y-46627007D01*
X85517037Y-46690590D01*
X85036819Y-46210372D01*
X85003334Y-46149049D01*
X85000500Y-46122691D01*
X85000500Y-45206916D01*
X85020185Y-45139877D01*
X85072989Y-45094122D01*
X85142147Y-45084178D01*
X85205703Y-45113203D01*
G37*
%TD.AperFunction*%
%TA.AperFunction,Conductor*%
G36*
X104918834Y-45090734D02*
G01*
X104974767Y-45132606D01*
X104999184Y-45198070D01*
X104999500Y-45206916D01*
X104999500Y-46122690D01*
X104979815Y-46189729D01*
X104963181Y-46210371D01*
X104482962Y-46690589D01*
X104465925Y-46627007D01*
X104400099Y-46512993D01*
X104307007Y-46419901D01*
X104192993Y-46354075D01*
X104129409Y-46337037D01*
X104618533Y-45847913D01*
X104602730Y-45836431D01*
X104441447Y-45754252D01*
X104441444Y-45754251D01*
X104269293Y-45698317D01*
X104107720Y-45672726D01*
X104044585Y-45642797D01*
X104007654Y-45583485D01*
X104008652Y-45513623D01*
X104047262Y-45455390D01*
X104107720Y-45427780D01*
X104122270Y-45425475D01*
X104269409Y-45402171D01*
X104441639Y-45346211D01*
X104602994Y-45263996D01*
X104749501Y-45157553D01*
X104787819Y-45119235D01*
X104849142Y-45085750D01*
X104918834Y-45090734D01*
G37*
%TD.AperFunction*%
%TD*%
M02*
