%TF.GenerationSoftware,KiCad,Pcbnew,10.0.1*%
%TF.CreationDate,2026-07-19T00:05:55+03:00*%
%TF.ProjectId,devyboardy,64657679-626f-4617-9264-792e6b696361,rev?*%
%TF.SameCoordinates,Original*%
%TF.FileFunction,Soldermask,Top*%
%TF.FilePolarity,Negative*%
%FSLAX46Y46*%
G04 Gerber Fmt 4.6, Leading zero omitted, Abs format (unit mm)*
G04 Created by KiCad (PCBNEW 10.0.1) date 2026-07-19 00:05:55*
%MOMM*%
%LPD*%
G01*
G04 APERTURE LIST*
G04 Aperture macros list*
%AMRoundRect*
0 Rectangle with rounded corners*
0 $1 Rounding radius*
0 $2 $3 $4 $5 $6 $7 $8 $9 X,Y pos of 4 corners*
0 Add a 4 corners polygon primitive as box body*
4,1,4,$2,$3,$4,$5,$6,$7,$8,$9,$2,$3,0*
0 Add four circle primitives for the rounded corners*
1,1,$1+$1,$2,$3*
1,1,$1+$1,$4,$5*
1,1,$1+$1,$6,$7*
1,1,$1+$1,$8,$9*
0 Add four rect primitives between the rounded corners*
20,1,$1+$1,$2,$3,$4,$5,0*
20,1,$1+$1,$4,$5,$6,$7,0*
20,1,$1+$1,$6,$7,$8,$9,0*
20,1,$1+$1,$8,$9,$2,$3,0*%
G04 Aperture macros list end*
%ADD10R,0.200000X1.600000*%
%ADD11RoundRect,0.062500X-0.387500X-0.062500X0.387500X-0.062500X0.387500X0.062500X-0.387500X0.062500X0*%
%ADD12RoundRect,0.140000X0.170000X-0.140000X0.170000X0.140000X-0.170000X0.140000X-0.170000X-0.140000X0*%
%ADD13RoundRect,0.135000X-0.135000X-0.185000X0.135000X-0.185000X0.135000X0.185000X-0.135000X0.185000X0*%
%ADD14R,1.700000X1.700000*%
%ADD15C,1.700000*%
%ADD16RoundRect,0.135000X0.185000X-0.135000X0.185000X0.135000X-0.185000X0.135000X-0.185000X-0.135000X0*%
%ADD17RoundRect,0.140000X-0.170000X0.140000X-0.170000X-0.140000X0.170000X-0.140000X0.170000X0.140000X0*%
%ADD18RoundRect,0.050000X-0.387500X-0.050000X0.387500X-0.050000X0.387500X0.050000X-0.387500X0.050000X0*%
%ADD19RoundRect,0.050000X-0.050000X-0.387500X0.050000X-0.387500X0.050000X0.387500X-0.050000X0.387500X0*%
%ADD20R,3.200000X3.200000*%
%ADD21RoundRect,0.140000X-0.140000X-0.170000X0.140000X-0.170000X0.140000X0.170000X-0.140000X0.170000X0*%
%ADD22RoundRect,0.200000X-0.200000X-0.800000X0.200000X-0.800000X0.200000X0.800000X-0.200000X0.800000X0*%
%ADD23RoundRect,0.135000X-0.185000X0.135000X-0.185000X-0.135000X0.185000X-0.135000X0.185000X0.135000X0*%
%ADD24RoundRect,0.225000X0.225000X0.250000X-0.225000X0.250000X-0.225000X-0.250000X0.225000X-0.250000X0*%
%ADD25RoundRect,0.140000X0.140000X0.170000X-0.140000X0.170000X-0.140000X-0.170000X0.140000X-0.170000X0*%
%ADD26RoundRect,0.218750X-0.218750X-0.256250X0.218750X-0.256250X0.218750X0.256250X-0.218750X0.256250X0*%
%ADD27RoundRect,0.150000X0.150000X-0.587500X0.150000X0.587500X-0.150000X0.587500X-0.150000X-0.587500X0*%
%ADD28RoundRect,0.250000X-0.450000X-0.350000X0.450000X-0.350000X0.450000X0.350000X-0.450000X0.350000X0*%
%ADD29C,0.650000*%
%ADD30RoundRect,0.150000X0.150000X0.575000X-0.150000X0.575000X-0.150000X-0.575000X0.150000X-0.575000X0*%
%ADD31RoundRect,0.075000X0.075000X0.650000X-0.075000X0.650000X-0.075000X-0.650000X0.075000X-0.650000X0*%
%ADD32O,1.000000X2.100000*%
%ADD33O,1.000000X1.600000*%
%ADD34RoundRect,0.075000X-0.350000X-0.075000X0.350000X-0.075000X0.350000X0.075000X-0.350000X0.075000X0*%
%ADD35RoundRect,0.075000X0.075000X-0.350000X0.075000X0.350000X-0.075000X0.350000X-0.075000X-0.350000X0*%
G04 APERTURE END LIST*
D10*
%TO.C,U3*%
X92575000Y-62250000D03*
D11*
X94000000Y-61500000D03*
X94000000Y-62000000D03*
X94000000Y-62500000D03*
X94000000Y-63000000D03*
X91150000Y-63000000D03*
X91150000Y-62500000D03*
X91150000Y-62000000D03*
X91150000Y-61500000D03*
%TD*%
D12*
%TO.C,C7*%
X96750000Y-60500000D03*
X96750000Y-61460000D03*
%TD*%
%TO.C,C8*%
X97750000Y-60520000D03*
X97750000Y-61480000D03*
%TD*%
D13*
%TO.C,R9*%
X98145000Y-52500000D03*
X97125000Y-52500000D03*
%TD*%
%TO.C,R10*%
X101020000Y-52500000D03*
X100000000Y-52500000D03*
%TD*%
D14*
%TO.C,J4*%
X91960000Y-90000000D03*
D15*
X94500000Y-90000000D03*
X97040000Y-90000000D03*
%TD*%
D16*
%TO.C,R6*%
X96500000Y-87020000D03*
X96500000Y-86000000D03*
%TD*%
D17*
%TO.C,C11*%
X97000000Y-77000000D03*
X97000000Y-77960000D03*
%TD*%
D18*
%TO.C,U1*%
X91362500Y-68900000D03*
X91362500Y-69300000D03*
X91362500Y-69700000D03*
X91362500Y-70100000D03*
X91362500Y-70500000D03*
X91362500Y-70900000D03*
X91362500Y-71300000D03*
X91362500Y-71700000D03*
X91362500Y-72100000D03*
X91362500Y-72500000D03*
X91362500Y-72900000D03*
X91362500Y-73300000D03*
X91362500Y-73700000D03*
X91362500Y-74100000D03*
D19*
X92200000Y-74937500D03*
X92600000Y-74937500D03*
X93000000Y-74937500D03*
X93400000Y-74937500D03*
X93800000Y-74937500D03*
X94200000Y-74937500D03*
X94600000Y-74937500D03*
X95000000Y-74937500D03*
X95400000Y-74937500D03*
X95800000Y-74937500D03*
X96200000Y-74937500D03*
X96600000Y-74937500D03*
X97000000Y-74937500D03*
X97400000Y-74937500D03*
D18*
X98237500Y-74100000D03*
X98237500Y-73700000D03*
X98237500Y-73300000D03*
X98237500Y-72900000D03*
X98237500Y-72500000D03*
X98237500Y-72100000D03*
X98237500Y-71700000D03*
X98237500Y-71300000D03*
X98237500Y-70900000D03*
X98237500Y-70500000D03*
X98237500Y-70100000D03*
X98237500Y-69700000D03*
X98237500Y-69300000D03*
X98237500Y-68900000D03*
D19*
X97400000Y-68062500D03*
X97000000Y-68062500D03*
X96600000Y-68062500D03*
X96200000Y-68062500D03*
X95800000Y-68062500D03*
X95400000Y-68062500D03*
X95000000Y-68062500D03*
X94600000Y-68062500D03*
X94200000Y-68062500D03*
X93800000Y-68062500D03*
X93400000Y-68062500D03*
X93000000Y-68062500D03*
X92600000Y-68062500D03*
X92200000Y-68062500D03*
D20*
X94800000Y-71500000D03*
%TD*%
D21*
%TO.C,C6*%
X99040000Y-68000000D03*
X100000000Y-68000000D03*
%TD*%
D22*
%TO.C,SW1*%
X91000000Y-85500000D03*
X95200000Y-85500000D03*
%TD*%
D23*
%TO.C,R7*%
X96500000Y-84000000D03*
X96500000Y-85020000D03*
%TD*%
D24*
%TO.C,C13*%
X92000000Y-49000000D03*
X90450000Y-49000000D03*
%TD*%
D25*
%TO.C,C9*%
X89732126Y-71983769D03*
X88772126Y-71983769D03*
%TD*%
D21*
%TO.C,C10*%
X98040000Y-65500000D03*
X99000000Y-65500000D03*
%TD*%
D26*
%TO.C,D1*%
X98425000Y-49500000D03*
X100000000Y-49500000D03*
%TD*%
D23*
%TO.C,R1*%
X96500000Y-49000000D03*
X96500000Y-50020000D03*
%TD*%
D21*
%TO.C,C18*%
X98365000Y-59350000D03*
X99325000Y-59350000D03*
%TD*%
D13*
%TO.C,R5*%
X93980000Y-78062500D03*
X95000000Y-78062500D03*
%TD*%
D27*
%TO.C,U4*%
X91050000Y-52937500D03*
X92950000Y-52937500D03*
X92000000Y-51062500D03*
%TD*%
D28*
%TO.C,Y1*%
X92300000Y-81262500D03*
X94500000Y-81262500D03*
X94500000Y-79562500D03*
X92300000Y-79562500D03*
%TD*%
D17*
%TO.C,C16*%
X90500000Y-80582500D03*
X90500000Y-81542500D03*
%TD*%
%TO.C,C2*%
X100500000Y-78540000D03*
X100500000Y-79500000D03*
%TD*%
%TO.C,C3*%
X96000000Y-77000000D03*
X96000000Y-77960000D03*
%TD*%
D14*
%TO.C,J3*%
X104000000Y-41740000D03*
D15*
X104000000Y-44280000D03*
X104000000Y-46820000D03*
X104000000Y-49360000D03*
X104000000Y-51900000D03*
X104000000Y-54440000D03*
X104000000Y-56980000D03*
X104000000Y-59520000D03*
X104000000Y-62060000D03*
X104000000Y-64600000D03*
X104000000Y-67140000D03*
X104000000Y-69680000D03*
X104000000Y-72220000D03*
X104000000Y-74760000D03*
X104000000Y-77300000D03*
X104000000Y-79840000D03*
X104000000Y-82380000D03*
X104000000Y-84920000D03*
X104000000Y-87460000D03*
X104000000Y-90000000D03*
%TD*%
D12*
%TO.C,C4*%
X90500000Y-67980000D03*
X90500000Y-67020000D03*
%TD*%
D16*
%TO.C,R4*%
X95500000Y-66520000D03*
X95500000Y-65500000D03*
%TD*%
D24*
%TO.C,C14*%
X93000000Y-55000000D03*
X91450000Y-55000000D03*
%TD*%
D21*
%TO.C,C5*%
X98540000Y-67000000D03*
X99500000Y-67000000D03*
%TD*%
%TO.C,C17*%
X93040000Y-60500000D03*
X94000000Y-60500000D03*
%TD*%
D12*
%TO.C,C15*%
X97000000Y-81542500D03*
X97000000Y-80582500D03*
%TD*%
D16*
%TO.C,R3*%
X96500000Y-66520000D03*
X96500000Y-65500000D03*
%TD*%
D23*
%TO.C,R2*%
X93500000Y-48990000D03*
X93500000Y-50010000D03*
%TD*%
D29*
%TO.C,J1*%
X97890000Y-45600000D03*
X92110000Y-45600000D03*
D30*
X98250000Y-47045000D03*
X97450000Y-47045000D03*
D31*
X96250000Y-47045000D03*
X95250000Y-47045000D03*
X94750000Y-47045000D03*
X93750000Y-47045000D03*
D30*
X92550000Y-47045000D03*
X91750000Y-47045000D03*
X91750000Y-47045000D03*
X92550000Y-47045000D03*
D31*
X93250000Y-47045000D03*
X94250000Y-47045000D03*
X95750000Y-47045000D03*
X96750000Y-47045000D03*
D30*
X97450000Y-47045000D03*
X98250000Y-47045000D03*
D32*
X99320000Y-46130000D03*
D33*
X99320000Y-41950000D03*
D32*
X90680000Y-46130000D03*
D33*
X90680000Y-41950000D03*
%TD*%
D14*
%TO.C,J2*%
X86000000Y-41740000D03*
D15*
X86000000Y-44280000D03*
X86000000Y-46820000D03*
X86000000Y-49360000D03*
X86000000Y-51900000D03*
X86000000Y-54440000D03*
X86000000Y-56980000D03*
X86000000Y-59520000D03*
X86000000Y-62060000D03*
X86000000Y-64600000D03*
X86000000Y-67140000D03*
X86000000Y-69680000D03*
X86000000Y-72220000D03*
X86000000Y-74760000D03*
X86000000Y-77300000D03*
X86000000Y-79840000D03*
X86000000Y-82380000D03*
X86000000Y-84920000D03*
X86000000Y-87460000D03*
X86000000Y-90000000D03*
%TD*%
D12*
%TO.C,C12*%
X95500000Y-61460000D03*
X95500000Y-60500000D03*
%TD*%
D13*
%TO.C,R8*%
X98490000Y-51000000D03*
X99510000Y-51000000D03*
%TD*%
D17*
%TO.C,C1*%
X99500000Y-78520000D03*
X99500000Y-79480000D03*
%TD*%
D34*
%TO.C,U2*%
X96525000Y-54700000D03*
X96525000Y-55200000D03*
X96525000Y-55700000D03*
X96525000Y-56200000D03*
X96525000Y-56700000D03*
X96525000Y-57200000D03*
D35*
X97225000Y-57900000D03*
X97725000Y-57900000D03*
X98225000Y-57900000D03*
X98725000Y-57900000D03*
X99225000Y-57900000D03*
X99725000Y-57900000D03*
D34*
X100425000Y-57200000D03*
X100425000Y-56700000D03*
X100425000Y-56200000D03*
X100425000Y-55700000D03*
X100425000Y-55200000D03*
X100425000Y-54700000D03*
D35*
X99725000Y-54000000D03*
X99225000Y-54000000D03*
X98725000Y-54000000D03*
X98225000Y-54000000D03*
X97725000Y-54000000D03*
X97225000Y-54000000D03*
%TD*%
M02*
